<?xml version="1.0" encoding="UTF-8"?>
<svg id="Layer_1" xmlns="http://www.w3.org/2000/svg" version="1.1" viewBox="0 0 1080 1080">
  <!-- Generator: Adobe Illustrator 29.6.1, SVG Export Plug-In . SVG Version: 2.1.1 Build 9)  -->
  <defs>
    <style>
      .st0, .st1 {
        fill: none;
      }

      .st2, .st1, .st3 {
        isolation: isolate;
      }

      .st4, .st5 {
        fill: #b01e3f;
      }

      .st6 {
        fill: #d05977;
      }

      .st7, .st3 {
        fill: #fff;
      }

      .st5 {
        fill-opacity: 0;
      }

      .st8 {
        fill: #e0e1e0;
      }

      .st9 {
        fill: #471519;
        stroke: #924249;
        stroke-miterlimit: 10;
        stroke-width: 5.1px;
      }

      .st1 {
        stroke: #fff;
        stroke-miterlimit: 10;
        stroke-width: 7.9px;
      }

      .st1, .st3 {
        opacity: .4;
      }
    </style>
  </defs>
  <g>
    <g>
      <rect class="st8" x="837.9" y="872.2" width="40.1" height="40.1"/>
      <rect class="st8" x="733.7" y="872.2" width="40.1" height="40.1"/>
      <rect class="st8" x="850" y="609.8" width="40.1" height="40.1"/>
      <rect class="st8" x="793.8" y="609.8" width="40.1" height="40.1"/>
      <rect class="st8" x="745.7" y="609.8" width="40.1" height="40.1"/>
      <rect class="st8" x="850" y="561.7" width="40.1" height="40.1"/>
      <rect class="st8" x="745.7" y="561.7" width="40.1" height="40.1"/>
      <rect class="st8" x="689.7" y="561.7" width="40.1" height="40.1"/>
      <rect class="st8" x="793.8" y="505.7" width="40.1" height="40.1"/>
      <rect class="st8" x="745.7" y="505.7" width="40.1" height="40.1"/>
      <rect class="st8" x="850" y="449.7" width="40.1" height="40.1"/>
      <rect class="st8" x="793.8" y="449.7" width="40.1" height="40.1"/>
      <rect class="st8" x="745.7" y="449.7" width="40.1" height="40.1"/>
      <rect class="st8" x="929" y="397.5" width="40.1" height="40.1"/>
      <rect class="st8" x="929" y="447.5" width="40.1" height="40.1"/>
      <rect class="st8" x="850" y="393.6" width="40.1" height="40.1"/>
      <rect class="st8" x="745.7" y="393.6" width="40.1" height="40.1"/>
      <rect class="st8" x="689.7" y="393.6" width="40.1" height="40.1"/>
      <rect class="st8" x="988.9" y="424.5" width="40.1" height="40.1"/>
      <rect class="st8" x="793.8" y="345.5" width="40.1" height="40.1"/>
      <rect class="st8" x="745.7" y="345.5" width="40.1" height="40.1"/>
      <rect class="st8" x="793.8" y="289.5" width="40.1" height="40.1"/>
      <rect class="st8" x="745.7" y="289.5" width="40.1" height="40.1"/>
      <rect class="st8" x="689.7" y="289.5" width="40.1" height="40.1"/>
      <rect class="st8" x="850" y="233.5" width="40.1" height="40.1"/>
      <rect class="st8" x="745.7" y="233.5" width="40.1" height="40.1"/>
      <rect class="st8" x="689.7" y="233.5" width="40.1" height="40.1"/>
      <rect class="st8" x="745.7" y="185.4" width="40.1" height="40.1"/>
      <rect class="st8" x="793.8" y="826.2" width="40.1" height="40.1"/>
      <rect class="st8" x="850" y="770" width="40.1" height="40.1"/>
      <rect class="st8" x="793.8" y="770" width="40.1" height="40.1"/>
      <rect class="st8" x="745.7" y="770" width="40.1" height="40.1"/>
      <rect class="st8" x="745.7" y="722" width="40.1" height="40.1"/>
      <rect class="st8" x="689.7" y="722" width="40.1" height="40.1"/>
      <rect class="st8" x="793.8" y="666" width="40.1" height="40.1"/>
      <rect class="st8" x="745.7" y="666" width="40.1" height="40.1"/>
      <rect class="st8" x="908.9" y="517.7" width="40.1" height="40.1"/>
    </g>
    <g>
      <rect class="st8" x="202.1" y="185.5" width="40.1" height="40.1"/>
      <rect class="st8" x="306.3" y="185.5" width="40.1" height="40.1"/>
      <rect class="st8" x="190" y="447.8" width="40.1" height="40.1"/>
      <rect class="st8" x="246.1" y="447.8" width="40.1" height="40.1"/>
      <rect class="st8" x="294.1" y="447.8" width="40.1" height="40.1"/>
      <rect class="st8" x="294.1" y="496" width="40.1" height="40.1"/>
      <rect class="st8" x="350.1" y="496" width="40.1" height="40.1"/>
      <rect class="st8" x="294.1" y="552" width="40.1" height="40.1"/>
      <rect class="st8" x="190" y="608" width="40.1" height="40.1"/>
      <rect class="st8" x="246.1" y="608" width="40.1" height="40.1"/>
      <rect class="st8" x="294.1" y="608" width="40.1" height="40.1"/>
      <rect class="st8" x="111" y="660.2" width="40.1" height="40.1"/>
      <rect class="st8" x="111" y="610.2" width="40.1" height="40.1"/>
      <rect class="st8" x="190" y="664.1" width="40.1" height="40.1"/>
      <rect class="st8" x="294.1" y="664.1" width="40.1" height="40.1"/>
      <rect class="st8" x="350.1" y="664.1" width="40.1" height="40.1"/>
      <rect class="st8" x="50.9" y="633.1" width="40.1" height="40.1"/>
      <rect class="st8" x="246.1" y="712.1" width="40.1" height="40.1"/>
      <rect class="st8" x="294.1" y="712.1" width="40.1" height="40.1"/>
      <rect class="st8" x="246.1" y="768.1" width="40.1" height="40.1"/>
      <rect class="st8" x="294.1" y="768.1" width="40.1" height="40.1"/>
      <rect class="st8" x="350.1" y="768.1" width="40.1" height="40.1"/>
      <rect class="st8" x="190" y="824.1" width="40.1" height="40.1"/>
      <rect class="st8" x="294.1" y="824.1" width="40.1" height="40.1"/>
      <rect class="st8" x="350.1" y="824.1" width="40.1" height="40.1"/>
      <rect class="st8" x="294.1" y="872.2" width="40.1" height="40.1"/>
      <rect class="st8" x="246.1" y="231.4" width="40.1" height="40.1"/>
      <rect class="st8" x="190" y="287.7" width="40.1" height="40.1"/>
      <rect class="st8" x="294.1" y="287.7" width="40.1" height="40.1"/>
      <rect class="st8" x="294.1" y="335.7" width="40.1" height="40.1"/>
      <rect class="st8" x="350.1" y="335.7" width="40.1" height="40.1"/>
      <rect class="st8" x="246.1" y="391.7" width="40.1" height="40.1"/>
      <rect class="st8" x="294.1" y="391.7" width="40.1" height="40.1"/>
      <rect class="st8" x="131" y="540" width="40.1" height="40.1"/>
    </g>
  </g>
  <g>
    <path class="st4" d="M823.4,863.9l-295.4,57.5c-29.4,5.7-61.6-17.8-71.9-52.6l-180.2-594.3c-8.8-29.8,1.3-58.2,22.8-69.3l-29.2,15.1c-21.6,11.1-31.7,39.5-22.8,69.3l180.2,594.3c10.3,34.8,42.5,58.3,71.9,52.6l295.4-57.5c4.2-.8,8.1-2.2,11.7-4l29.2-15.1c-3.6,1.8-7.5,3.2-11.7,4h0Z"/>
    <g>
      <path class="st6" d="M288.8,371.8c-4.9,2.5-6.7,11.5-4.1,20.1l28.4,95.7c2.6,8.7,8.6,13.6,13.4,11.1s6.7-11.5,4.1-20.2l-28.4-95.7c-2.6-8.6-8.6-13.6-13.4-11.1"/>
      <path class="st6" d="M334.2,524.6c-4.9,2.5-6.7,11.5-4.1,20.2l12.5,42.2c2.6,8.6,8.6,13.6,13.4,11.1s6.7-11.5,4.1-20.2l-12.5-42.2c-2.6-8.7-8.6-13.6-13.4-11.1"/>
    </g>
    <path class="st6" d="M605.9,143.6c29.4-5.7,61.5,17.9,71.9,52.6l180.2,594.3c10.3,34.8-5.1,67.6-34.5,73.3l-295.4,57.5c-29.4,5.7-61.6-17.8-71.9-52.6l-180.2-594.3c-10.3-34.8,5.1-67.6,34.5-73.3l295.4-57.5h0Z"/>
    <g>
      <path class="st7" d="M818.1,842.9l-268.4,52.2-28.7,5.6c-19.2,3.7-40.2-11.7-47-34.4l-180.7-596.3c-6.7-22.7,3.4-44.2,22.5-48l290.6-56.5,6.5-1.3c19.2-3.7,40.2,11.7,47,34.4l180.8,596.3c6.7,22.7-3.4,44.2-22.6,47.9h0Z"/>
      <path class="st5" d="M818.1,842.9l-268.4,52.2,56.7-729.6,6.5-1.3c19.2-3.7,40.2,11.7,47,34.4l180.8,596.3c6.7,22.7-3.4,44.2-22.6,47.9h0Z"/>
    </g>
  </g>
  <g>
    <g class="st2">
      <g class="st2">
        <path class="st4" d="M452.9,438.8l58.5-14.4c13-3.2,24.2-4.5,33.6-3.8,9.4.7,17.3,3,23.7,6.9,5.1,3.1,9.3,7.1,12.5,12.1,3.2,4.9,5.6,10.5,7.1,16.7,3.2,13,2.2,25.3-2.9,36.8-5.1,11.5-15.1,21.4-30,29.6l36.8,46.4-47.4,11.6-32.1-41.9-19.1,4.7-1.1,50.1-43.2,10.6,3.6-165.3ZM518.9,501.5c9.7-2.4,17-6.2,21.8-11.5,4.8-5.3,6.4-11.3,4.8-17.9-1-4-3.2-7.2-6.6-9.5-4.4-2.7-11.2-2.9-20.4-.7l-23.3,5.7-1,39.9,24.6-6Z"/>
      </g>
    </g>
    <g class="st2">
      <g class="st2">
        <path class="st4" d="M584.5,483.2l50.7-12.5c12.7-3.1,23.7-4.4,32.9-3.8,9.2.6,17.3,2.9,24.3,7.2,10.1,6.1,16.8,15.7,20,28.7,2.4,9.6,2.6,18.7.7,27.4-1.9,8.7-5.5,16.5-10.9,23.6-5.4,7-12.5,13.2-21.2,18.4-8.7,5.2-18.9,9.2-30.4,12l-25.5,6.3-1,47.5-43.2,10.6,3.6-165.3ZM642,550.8c10.6-2.6,18.3-6.8,23.1-12.6,4.8-5.8,6.2-12.4,4.4-19.8-1.1-4.3-3.4-7.5-7.1-9.8-5-3-11.6-3.5-19.9-1.5l-15.9,3.9-.8,43.6,16.2-4Z"/>
      </g>
    </g>
  </g>
  <g>
    <g>
      <line class="st0" x1="428.3" y1="238" x2="518.8" y2="220.4"/>
      <path class="st6" d="M429.5,258.2c-10,.6-19.1-6.3-21.1-16.3-2.1-11,5-21.6,16-23.7l90.5-17.6c11-2.1,21.6,5,23.7,16,2.1,11-5,21.6-16,23.7l-90.5,17.6c-.9.2-1.8.3-2.7.3h0Z"/>
    </g>
    <path class="st4" d="M430.6,252.2c-3.8.2-7.5-1.1-10.4-3.6-.7-.6-1.3-1.3-1.9-2.1-.6-.7-1.1-1.5-1.5-2.4-.4-.8-.7-1.7-1-2.6-.3-.9-.4-1.8-.5-2.8-.2-3.8,1.1-7.5,3.6-10.4,3.1-3.5,8-5.3,12.7-4.7.9.1,1.9.4,2.7.7.9.3,1.7.7,2.5,1.2s1.6,1,2.3,1.6c2.8,2.5,4.6,6.1,4.8,9.9,0,.9,0,1.9-.1,2.8-.1.9-.3,1.8-.6,2.7-.3.9-.7,1.7-1.2,2.5s-1,1.6-1.6,2.3-1.3,1.3-2.1,1.9c-.7.6-1.5,1.1-2.4,1.5-.8.4-1.7.7-2.6,1s-1.8.4-2.8.5h.1Z"/>
  </g>
  <g>
    <path class="st3" d="M522.2,467.8h0c73.8-77,196.1-79.5,273-5.7h0c77,73.8,79.5,196.1,5.7,273h0c-73.8,77-196.1,79.5-273,5.7h0c-77-73.8-79.5-196.1-5.7-273Z"/>
    <rect class="st1" x="499.6" y="439.6" width="323.7" height="323.7" rx="161.8" ry="161.8" transform="translate(-230.5 662.6) rotate(-46.2)"/>
    <path class="st9" d="M805.1,452.7c-82.4-79.2-213.9-76.5-293,5.9-79.2,82.4-76.5,213.9,5.9,293,79,75.9,203,76.5,282.8,3.9l97.1,93.2,19.6-20.4-97.1-93.2c69.3-82.7,63.6-206.6-15.4-282.4h.1ZM790.6,726.1c-68.3,71.2-181.8,73.5-253,5.1-71.2-68.3-73.5-181.8-5.1-253,68.3-71.2,181.8-73.5,253-5.1,71.2,68.3,73.5,181.8,5.1,253Z"/>
    <path class="st4" d="M989,916.6c-14.8,15.4-39.2,15.9-54.6,1.1l-106.9-102.6c-15.4-14.8-15.9-39.2-1.1-54.6,14.8-15.4,39.2-15.9,54.6-1.1l106.9,102.6c15.4,14.8,15.9,39.2,1.1,54.6Z"/>
  </g>
</svg>