<?xml version="1.0" encoding="UTF-8"?>
<svg id="Layer_1" xmlns="http://www.w3.org/2000/svg" version="1.1" viewBox="0 0 1080 1080">
  <!-- Generator: Adobe Illustrator 29.6.1, SVG Export Plug-In . SVG Version: 2.1.1 Build 9)  -->
  <defs>
    <style>
      .st0, .st1 {
        fill: none;
      }

      .st2, .st3 {
        fill: #d2d5d9;
      }

      .st1 {
        stroke: #e0e1e0;
        stroke-width: 3.7px;
      }

      .st1, .st4, .st5, .st6 {
        stroke-miterlimit: 10;
      }

      .st4 {
        stroke-width: 1.5px;
      }

      .st4, .st5, .st6 {
        stroke: #000;
      }

      .st4, .st7, .st6 {
        fill: #d15a79;
      }

      .st5 {
        stroke-width: 2.3px;
      }

      .st5, .st8 {
        fill: #c34560;
      }

      .st3 {
        mix-blend-mode: multiply;
      }

      .st3, .st9 {
        isolation: isolate;
      }

      .st10 {
        fill: #5b111f;
      }

      .st11 {
        fill: #fff;
      }

      .st12 {
        fill: #471519;
      }

      .st13 {
        fill: #b01e3f;
        fill-opacity: 0;
      }

      .st14 {
        fill: #e9e9e9;
      }

      .st15 {
        fill: #c54762;
      }

      .st6 {
        stroke-width: 3px;
      }
    </style>
  </defs>
  <g class="st9">
    <g id="Layer_11" data-name="Layer_1">
      <g>
        <g>
          <g>
            <rect class="st1" x="649.8" y="358.4" width="32.5" height="32.5"/>
            <rect class="st1" x="565.5" y="358.4" width="32.5" height="32.5"/>
            <rect class="st1" x="659.6" y="570.9" width="32.5" height="32.5"/>
            <rect class="st1" x="614.1" y="570.9" width="32.5" height="32.5"/>
            <rect class="st1" x="575.2" y="570.9" width="32.5" height="32.5"/>
            <rect class="st1" x="659.6" y="609.8" width="32.5" height="32.5"/>
            <rect class="st1" x="575.2" y="609.8" width="32.5" height="32.5"/>
            <rect class="st1" x="529.9" y="609.8" width="32.5" height="32.5"/>
            <rect class="st1" x="614.1" y="655.1" width="32.5" height="32.5"/>
            <rect class="st1" x="575.2" y="655.1" width="32.5" height="32.5"/>
            <rect class="st1" x="659.6" y="700.4" width="32.5" height="32.5"/>
            <rect class="st1" x="614.1" y="700.4" width="32.5" height="32.5"/>
            <rect class="st1" x="575.2" y="700.4" width="32.5" height="32.5"/>
            <rect class="st1" x="723.5" y="742.7" width="32.5" height="32.5"/>
            <rect class="st1" x="723.5" y="702.2" width="32.5" height="32.5"/>
            <rect class="st1" x="659.6" y="745.9" width="32.5" height="32.5"/>
            <rect class="st1" x="575.2" y="745.9" width="32.5" height="32.5"/>
            <rect class="st1" x="529.9" y="745.9" width="32.5" height="32.5"/>
            <rect class="st1" x="772.1" y="720.9" width="32.5" height="32.5"/>
            <rect class="st1" x="614.1" y="784.8" width="32.5" height="32.5"/>
            <rect class="st1" x="575.2" y="784.8" width="32.5" height="32.5"/>
            <rect class="st1" x="614.1" y="830.1" width="32.5" height="32.5"/>
            <rect class="st1" x="575.2" y="830.1" width="32.5" height="32.5"/>
            <rect class="st1" x="529.9" y="830.1" width="32.5" height="32.5"/>
            <rect class="st1" x="659.6" y="875.5" width="32.5" height="32.5"/>
            <rect class="st1" x="575.2" y="875.5" width="32.5" height="32.5"/>
            <rect class="st1" x="529.9" y="875.5" width="32.5" height="32.5"/>
            <rect class="st1" x="575.2" y="914.4" width="32.5" height="32.5"/>
            <rect class="st1" x="614.1" y="395.7" width="32.5" height="32.5"/>
            <rect class="st1" x="659.6" y="441.1" width="32.5" height="32.5"/>
            <rect class="st1" x="614.1" y="441.1" width="32.5" height="32.5"/>
            <rect class="st1" x="575.2" y="441.1" width="32.5" height="32.5"/>
            <rect class="st1" x="575.2" y="480" width="32.5" height="32.5"/>
            <rect class="st1" x="529.9" y="480" width="32.5" height="32.5"/>
            <rect class="st1" x="614.1" y="525.4" width="32.5" height="32.5"/>
            <rect class="st1" x="575.2" y="525.4" width="32.5" height="32.5"/>
            <rect class="st1" x="707.3" y="645.4" width="32.5" height="32.5"/>
          </g>
          <g>
            <rect class="st1" x="383.4" y="689.1" width="32.5" height="32.5"/>
            <rect class="st1" x="467.8" y="689.1" width="32.5" height="32.5"/>
            <rect class="st1" x="373.7" y="476.6" width="32.5" height="32.5"/>
            <rect class="st1" x="419.1" y="476.6" width="32.5" height="32.5"/>
            <rect class="st1" x="458" y="476.6" width="32.5" height="32.5"/>
            <rect class="st1" x="458" y="437.7" width="32.5" height="32.5"/>
            <rect class="st1" x="503.3" y="437.7" width="32.5" height="32.5"/>
            <rect class="st1" x="458" y="392.5" width="32.5" height="32.5"/>
            <rect class="st1" x="373.7" y="347.1" width="32.5" height="32.5"/>
            <rect class="st1" x="419.1" y="347.1" width="32.5" height="32.5"/>
            <rect class="st1" x="458" y="347.1" width="32.5" height="32.5"/>
            <rect class="st1" x="309.7" y="304.8" width="32.5" height="32.5"/>
            <rect class="st1" x="309.7" y="345.2" width="32.5" height="32.5"/>
            <rect class="st1" x="373.7" y="301.6" width="32.5" height="32.5"/>
            <rect class="st1" x="458" y="301.6" width="32.5" height="32.5"/>
            <rect class="st1" x="503.3" y="301.6" width="32.5" height="32.5"/>
            <rect class="st1" x="261.2" y="326.6" width="32.5" height="32.5"/>
            <rect class="st1" x="419.1" y="262.7" width="32.5" height="32.5"/>
            <rect class="st1" x="458" y="262.7" width="32.5" height="32.5"/>
            <rect class="st1" x="419.1" y="217.4" width="32.5" height="32.5"/>
            <rect class="st1" x="458" y="217.4" width="32.5" height="32.5"/>
            <rect class="st1" x="503.3" y="217.4" width="32.5" height="32.5"/>
            <rect class="st1" x="373.7" y="172" width="32.5" height="32.5"/>
            <rect class="st1" x="458" y="172" width="32.5" height="32.5"/>
            <rect class="st1" x="503.3" y="172" width="32.5" height="32.5"/>
            <rect class="st1" x="458" y="133.1" width="32.5" height="32.5"/>
            <rect class="st1" x="419.1" y="651.8" width="32.5" height="32.5"/>
            <rect class="st1" x="373.7" y="606.3" width="32.5" height="32.5"/>
            <rect class="st1" x="458" y="606.3" width="32.5" height="32.5"/>
            <rect class="st1" x="458" y="567.4" width="32.5" height="32.5"/>
            <rect class="st1" x="503.3" y="567.4" width="32.5" height="32.5"/>
            <rect class="st1" x="419.1" y="522.1" width="32.5" height="32.5"/>
            <rect class="st1" x="458" y="522.1" width="32.5" height="32.5"/>
            <rect class="st1" x="325.9" y="402.1" width="32.5" height="32.5"/>
          </g>
        </g>
        <g>
          <g>
            <path class="st11" d="M592.7,363c-14.7,22.3-24.7,47-29.8,72.3l-40.4,3.8v78.2l40.4,3.8c5.2,25.3,15.2,50,29.8,72.3l-25.9,31.1,55.4,55.2,31.1-25.9c22.3,14.7,47,24.7,72.3,29.8l3.8,40.4h78.2l3.8-40.4c25.3-5.2,50-15.2,72.3-29.8l31.1,25.9,55.2-55.4-25.9-31.1c14.7-22.3,24.7-47,29.8-72.3l40.4-3.8v-78.2l-40.4-3.8c-5.2-25.3-15.2-50-29.8-72.3l25.9-31.1-55.4-55.2-31.1,25.9c-22.3-14.7-47-24.7-72.3-29.8l-3.8-40.4h-78.2l-3.8,40.4c-25.3,5.2-50,15.2-72.3,29.8l-31.1-25.9-55.4,55.4,25.9,31.1h.2ZM843.5,403.4c41.3,41.3,41.3,108.5,0,149.8-41.3,41.3-108.5,41.3-149.8,0s-41.3-108.5,0-149.8,108.5-41.3,149.8,0h0Z"/>
            <path class="st14" d="M814.8,732.2h-92.3l-4-41.9c-23-5.4-44.7-14.3-64.6-26.7l-32.2,26.7-65.3-65.3,26.7-32.2c-12.3-20-21.2-41.6-26.7-64.6l-41.9-4v-92.3l41.9-4c5.4-23,14.3-44.7,26.7-64.6l-26.7-32.2,65.3-65.3,32.2,26.7c20-12.3,41.6-21.2,64.6-26.7l4-41.9h92.3l4,41.9c23,5.4,44.7,14.3,64.6,26.7l32.2-26.7,65.3,65.3-26.7,32.2c12.3,20,21.2,41.6,26.7,64.6l41.9,4v92.3l-41.9,4c-5.4,23-14.3,44.7-26.7,64.6l26.7,32.2-65.3,65.3-32.2-26.7c-20,12.3-41.6,21.2-64.6,26.7l-4,41.9ZM736.5,716.7h64.2l3.7-39,5.5-1.2c25.1-5.2,48.6-14.9,69.7-28.7l4.7-3.2,30.2,24.9,45.3-45.3-24.9-30.2,3.2-4.7c13.8-21.1,23.6-44.6,28.7-69.6l1.2-5.5,39.1-3.7v-64.2l-39.1-3.7-1.2-5.5c-5.1-25.1-14.9-48.6-28.7-69.6l-3.2-4.7,24.9-30.2-45.3-45.3-30.2,24.9-4.7-3.2c-21.1-13.8-44.6-23.6-69.6-28.7l-5.5-1.2-3.7-39.1h-64.2l-3.7,39.1-5.5,1.2c-25.2,5.2-48.6,14.9-69.6,28.7l-4.7,3.2-30.2-24.9-45.3,45.3,24.9,30.2-3.2,4.7c-13.8,21.1-23.6,44.6-28.7,69.6l-1.2,5.5-39.1,3.7v64.2l39.1,3.7,1.2,5.5c5.1,25.1,14.9,48.5,28.7,69.6l3.2,4.7-24.9,30.2,45.3,45.3,30.2-24.9,4.7,3.2c21.1,13.8,44.6,23.6,69.6,28.7l5.5,1.2,3.7,39.1h-.1ZM768.6,591.8c-29.1,0-58.2-11.1-80.3-33.2-44.3-44.3-44.3-116.4,0-160.7,21.4-21.4,50-33.3,80.3-33.3s58.9,11.8,80.3,33.3c21.4,21.4,33.3,50,33.3,80.3s-11.8,58.9-33.3,80.3c-22.2,22.2-51.2,33.2-80.3,33.2h0ZM768.6,380c-26.3,0-50.9,10.2-69.4,28.7-18.6,18.6-28.7,43.2-28.7,69.4s10.2,50.9,28.7,69.4c38.3,38.3,100.7,38.3,138.8,0,18.6-18.6,28.7-43.2,28.7-69.4s-10.2-50.9-28.7-69.4c-18.6-18.6-43.2-28.7-69.4-28.7h0Z"/>
          </g>
          <g>
            <path class="st11" d="M135.4,517c-14.7,22.3-24.7,47-29.8,72.3l-40.4,3.8v78.2l40.4,3.8c5.2,25.3,15.2,50,29.8,72.3l-25.9,31.1,55.4,55.2,31.1-25.9c22.3,14.7,47,24.7,72.3,29.8l3.8,40.4h78.2l3.8-40.4c25.3-5.2,50-15.2,72.3-29.8l31.1,25.9,55.2-55.4-25.9-31.1c14.7-22.3,24.7-47,29.8-72.3l40.4-3.8v-78.2l-40.4-3.8c-5.2-25.3-15.2-50-29.8-72.3l25.9-31.1-55.4-55.2-31.1,25.9c-22.3-14.7-47-24.7-72.3-29.8l-3.8-40.4h-78.2l-3.8,40.4c-25.3,5.2-50,15.2-72.3,29.8l-31.1-25.9-55.4,55.4,25.9,31.1h.2,0ZM386.2,557.3c41.3,41.3,41.3,108.5,0,149.8s-108.5,41.3-149.8,0-41.3-108.5,0-149.8,108.5-41.3,149.8,0h0Z"/>
            <path class="st14" d="M357.5,886.1h-92.3l-4-41.9c-23-5.4-44.7-14.3-64.6-26.7l-32.2,26.7-65.3-65.3,26.7-32.2c-12.3-20-21.2-41.6-26.7-64.6l-41.9-4v-92.3l41.9-4c5.4-23,14.3-44.7,26.7-64.6l-26.7-32.2,65.3-65.3,32.2,26.7c20-12.3,41.6-21.2,64.6-26.7l4-41.9h92.3l4,41.9c23,5.4,44.7,14.3,64.6,26.7l32.2-26.7,65.3,65.3-26.7,32.2c12.3,20,21.2,41.6,26.7,64.6l41.9,4v92.3l-41.9,4c-5.4,23-14.3,44.7-26.7,64.6l26.7,32.2-65.3,65.3-32.2-26.7c-20,12.3-41.6,21.2-64.6,26.7l-4,41.9h0ZM279.3,870.6h64.2l3.7-39,5.5-1.2c25.1-5.2,48.6-14.9,69.7-28.7l4.7-3.2,30.2,24.9,45.3-45.3-24.9-30.2,3.2-4.7c13.8-21.1,23.6-44.6,28.7-69.6l1.2-5.5,39.1-3.7v-64.2l-39.1-3.7-1.2-5.5c-5.1-25.1-14.9-48.6-28.7-69.6l-3.2-4.7,24.9-30.2-45.3-45.3-30.2,24.9-4.7-3.2c-21.1-13.8-44.6-23.6-69.6-28.7l-5.5-1.2-3.7-39.1h-64.2l-3.7,39.1-5.5,1.2c-25.2,5.2-48.6,14.9-69.6,28.7l-4.7,3.2-30.2-24.9-45.3,45.3,24.9,30.2-3.2,4.7c-13.8,21.1-23.6,44.6-28.7,69.6l-1.2,5.5-39.1,3.7v64.2l39.1,3.7,1.2,5.5c5.1,25.1,14.9,48.5,28.7,69.6l3.2,4.7-24.9,30.2,45.3,45.3,30.2-24.9,4.7,3.2c21.1,13.8,44.6,23.6,69.6,28.7l5.5,1.2,3.7,39.1h-.1ZM311.4,745.8c-29.1,0-58.2-11.1-80.3-33.2-44.3-44.3-44.3-116.4,0-160.7,21.4-21.4,50-33.3,80.3-33.3s58.9,11.8,80.3,33.3c21.4,21.4,33.3,50,33.3,80.3s-11.8,58.9-33.3,80.3c-22.2,22.2-51.2,33.2-80.3,33.2h0ZM311.4,534c-26.3,0-50.9,10.2-69.4,28.7-18.6,18.6-28.7,43.2-28.7,69.4s10.2,50.9,28.7,69.4c38.3,38.3,100.7,38.3,138.8,0,18.6-18.6,28.7-43.2,28.7-69.4s-10.2-50.9-28.7-69.4c-18.6-18.6-43.2-28.7-69.4-28.7h0Z"/>
          </g>
        </g>
        <g>
          <path class="st5" d="M464.2,298.1l6.3,194.3c0,2.8-1.4,5.5-3.8,6.9l-258.1,189.2c-.5.3-1,.5-1.5.7-.4.2-.9.4-1.3.5-.4,0-.7.2-1.1.3h0c-.6,0-1.1.2-1.7.2-6.9.5-13.4-4.7-13.7-12.3l-5.7-177.7c-.3-7.9,3.8-15.3,10.6-19.3l258.4-189.3c4.1-2.5,9.2-.5,11,3.5.4.9.6,1.9.7,2.9h-.1Z"/>
          <path class="st4" d="M464.3,302.3l6.1,190.1c0,2.8-1.4,5.5-3.8,6.9l-258.1,189.2c-.5.3-1,.5-1.5.7-.4.2-.9.4-1.3.5-.4,0-.7.2-1.1.3h0c-1.1.2-2.2-.2-2.8-1.1-1.4-1.9-2.3-4.3-2.4-7l-5.7-177.7c-.3-7.9,3.8-15.3,10.6-19.3l253.9-186.1c2.7-1.6,6.1.3,6.2,3.5h-.1Z"/>
          <polygon class="st12" points="198.4 650.9 197.7 629.6 468.6 435.8 469.3 457.1 198.4 650.9"/>
        </g>
        <g>
          <path class="st8" d="M824.3,525.2l-185.6-107.6c-.2-.1-.4-.2-.6-.4h0c-4.4-2.5-10.8-1.5-17.4,3.3l-355.2,261.5c-7.3,5.4-13.9,13.9-18.1,23.4l-7,39.5c-2.6,6-1.5,10.9,1.8,12l184.3,106.9,397.8-338.7h0Z"/>
          <path class="st10" d="M824.6,523.7h0l-7.3-4.3-1.4-.8-13.6-7.9-7.4-4.3-1-.6-.5-.3-1.5-.8-38.4-22.3-107.7-62.5-6.3-3.7c-.2-.1-.4-.2-.7-.4,0,0-.2-.1-.3-.2-.5-.3-1-.5-1.5-.7-.6-.2-1.1-.4-1.7-.5-4.6-.9-10,.8-15.4,4.8l-88.3,65.1-266.8,196.5c-7.5,5.6-14.3,14.3-18.6,24.3l-6.9,39.2c-1.7,4-2.1,7.9-.8,10.7.8,1.7,1.9,2.8,3.2,3.2l184.1,106.8h0l1,.6,398.6-339.4-.7-2.6h0ZM242.7,755.7c-.8-.2-1.4-.8-1.7-1.7-.9-2-.6-5.1.9-8.7l6.9-39.2c4.1-9.3,10.5-17.6,17.6-22.8l268.1-197.4,87.1-64.1c3.9-2.9,7.8-4.4,11.2-4.4s.6,0,.8,0c.5,0,1,.1,1.4.2.5,0,1,.2,1.4.4.4.2.8.3,1.2.5l5.8,3.3,107.7,62.4,37,21.5,2,1.1.6.4,1.1.7,8.1,4.7,4.3,2.5,12.5,7.2.8.5,4.5,2.6-395.5,336.7-2.9-1.7-180.8-104.8h0Z"/>
          <path class="st12" d="M851.3,605.5l-20.1-71.4c-1-5.4-3.8-9.3-7.9-11-5-2-11.4-.5-17.7,4.1l-355.2,261.5c-7.5,5.5-14.3,14.3-18.7,24.3l-6.9,39.4c-2.3,5.3-2,10.2.8,12.7,1,.9,2.3,1.4,3.8,1.4s2.9-.5,4.5-1.4l404.9-234.7c8.1-4.7,14-16.5,12.5-25h0Z"/>
          <path class="st10" d="M755.7,535.8l-143.5-81.5c-4.9-2.8-10.9-2.4-15.4.9l-167.4,123.2c-1.5,1.1-2.4,3-2.3,4.9s1.2,3.6,2.8,4.6l142.3,82.8c2.5,1.5,5.3,2.2,8.1,2.2s6.7-1.1,9.6-3.1l166.5-122.6c1.9-1.4,2.9-3.6,2.8-5.9,0-2.3-1.4-4.4-3.4-5.5h0Z"/>
          <path class="st8" d="M815.9,486.6l-42-15.7-104.2-59.2c-4.4-2.5-9.8-2.2-13.9.8l-12.7,9.5-8.3-3.1v11.6h0c0,1.4.8,2.7,2.1,3.5l142.3,82.8c4.2,2.4,9.3,2.6,13.6.6h0s6.3-2.5,10.3-2.4c4,0,5.4.9,5.4.9l7.5,4.3v-33.7h0Z"/>
          <path class="st8" d="M588.6,668.6l163.3-120.2-140.8-80c-4.4-2.5-9.8-2.2-13.9.8l-162.8,119.9,138.2,80.4c5.1,2.9,11.4,2.6,16.1-.9h0Z"/>
          <path class="st15" d="M811.8,616l-6.6-23.2c-.8-2.8-2.8-5-5.5-6.1s-5.7-.9-8.2.6l-51.8,29.9c-3.7,2.1-5.5,6.5-4.3,10.6l6.6,23.2c.8,2.8,2.8,5,5.5,6.1,1.1.5,2.4.7,3.5.7s3.2-.4,4.7-1.3l51.7-29.9c3.7-2.1,5.5-6.5,4.3-10.7h0ZM806,624.2l-51.7,29.9c-1.7,1-3.8,1.1-5.6.4-1.9-.8-3.2-2.3-3.8-4.2l-6.5-23.2c-.8-2.8.4-5.9,3-7.3l51.8-29.9c1-.6,2.1-.8,3.2-.8s1.6.2,2.4.5c1.9.8,3.2,2.3,3.8,4.2l6.6,23.2c.8,2.8-.4,5.9-3,7.3h-.2Z"/>
          <g>
            <path class="st10" d="M364.8,676.6l-30.7-17.2c-3.6-2.1-8.1-1.8-11.5.6l-10.5,7.7c-1.2.9-1.9,2.3-1.8,3.8,0,1.5.9,2.9,2.2,3.6l29.9,18.1c1.9,1.1,4,1.7,6.1,1.7s4.9-.8,7-2.3l9.9-7.2c1.4-1.1,2.3-2.8,2.2-4.5,0-1.8-1.1-3.4-2.6-4.3h-.2Z"/>
            <path class="st8" d="M313.2,667.1l29.9,18.1c3.6,2.1,8.1,1.9,11.5-.6l9.9-7.2c2.2-1.6,2.1-5-.3-6.4l-30.8-17.2c-3.1-1.8-7-1.6-9.9.5l-10.5,7.7c-1.8,1.3-1.6,3.9.2,5.1h0Z"/>
            <path class="st11" d="M323.5,662l-8.6,6.3,28,17c3.6,2.1,8.1,1.9,11.5-.6l8.8-6.5-29.9-16.7c-3.1-1.8-7-1.6-9.9.5h.1Z"/>
            <path class="st10" d="M364.8,669.8l-30.7-17.2c-3.6-2.1-8.1-1.8-11.5.6l-10.5,7.7c-1.2.9-1.9,2.3-1.8,3.8,0,1.2.6,2.4,1.5,3.2.2.2.4.3.6.5l29.9,18.1c1.9,1.1,4,1.7,6.1,1.7s4.9-.8,7-2.3l9.9-7.2c.3-.2.6-.5.9-.8.9-1,1.3-2.3,1.2-3.7,0-1.8-1.1-3.4-2.7-4.3h.1ZM363.6,676.3l-1.7,1.2-8.2,6c-2.9,2.1-6.8,2.3-9.9.5l-27.5-16.7-2-1.2-.3-.2h0c-.5-.3-.7-.8-.8-1.3,0-.5.2-1.1.6-1.4l10.5-7.7c1.3-1,2.9-1.4,4.5-1.4s2.7.3,3.8,1l30.7,17.2c.7.4,1.1,1.1,1.2,1.9,0,.7-.2,1.4-.7,1.8,0,0-.2.2-.2.2h0Z"/>
          </g>
          <g>
            <path class="st10" d="M403.5,647.8l-30.7-17.2c-3.6-2.1-8.1-1.8-11.5.6l-10.5,7.7c-1.2.9-1.9,2.3-1.8,3.8,0,1.5.9,2.9,2.2,3.6l29.9,18.1c1.9,1.1,4,1.7,6.1,1.7s4.9-.8,7-2.3l9.9-7.2c1.4-1.1,2.3-2.8,2.2-4.5,0-1.8-1.1-3.4-2.6-4.3h-.2Z"/>
            <path class="st8" d="M351.9,638.4l29.9,18.1c3.6,2.1,8.1,1.9,11.5-.6l9.9-7.2c2.2-1.6,2.1-5-.3-6.4l-30.8-17.2c-3.1-1.8-7-1.6-9.9.5l-10.5,7.7c-1.8,1.3-1.6,3.9.2,5.1h0Z"/>
            <path class="st11" d="M362.2,633.3l-8.6,6.3,28,17c3.6,2.1,8.1,1.9,11.5-.6l8.8-6.5-29.9-16.7c-3.1-1.8-7-1.6-9.9.5h.1Z"/>
            <path class="st10" d="M403.5,641.1l-30.7-17.2c-3.6-2.1-8.1-1.8-11.5.6l-10.5,7.7c-1.2.9-1.9,2.3-1.8,3.8,0,1.2.6,2.4,1.5,3.1.2.2.4.3.7.5l29.9,18.1c1.9,1.1,4,1.7,6.1,1.7s4.9-.8,7.1-2.3l9.8-7.2c.3-.2.7-.5.9-.8.8-1,1.3-2.4,1.2-3.7,0-1.8-1.1-3.4-2.7-4.3h0ZM402.3,647.5l-1.7,1.2-8.2,6c-2.9,2.1-6.8,2.3-9.9.5l-27.5-16.7-2.1-1.2-.3-.2c-.5-.3-.8-.8-.8-1.3s.2-1,.7-1.3l10.5-7.7c1.3-1,2.9-1.5,4.5-1.5s2.6.4,3.8,1l30.7,17.2c.7.4,1.1,1.1,1.2,1.9,0,.7-.2,1.3-.7,1.8s-.2.2-.3.2h0Z"/>
          </g>
          <g>
            <path class="st10" d="M441.9,619.6l-30.7-17.2c-3.6-2.1-8.1-1.8-11.5.6l-10.5,7.7c-1.2.9-1.9,2.3-1.8,3.8,0,1.5.9,2.9,2.2,3.6l29.9,18.1c1.9,1.1,4,1.7,6.1,1.7s4.9-.8,7-2.3l9.9-7.2c1.4-1.1,2.3-2.8,2.2-4.5,0-1.8-1.1-3.4-2.6-4.3h-.2Z"/>
            <path class="st8" d="M390.3,610.2l29.9,18.1c3.6,2.1,8.1,1.9,11.5-.6l9.9-7.2c2.2-1.6,2.1-5-.3-6.4l-30.8-17.2c-3.1-1.8-7-1.6-9.9.5l-10.5,7.7c-1.8,1.3-1.6,3.9.2,5.1h0Z"/>
            <path class="st11" d="M400.6,605.1l-8.6,6.3,28,17c3.6,2.1,8.1,1.9,11.5-.6l8.8-6.5-29.9-16.7c-3.1-1.8-7-1.6-9.9.5h.1Z"/>
            <path class="st10" d="M441.9,612.8l-30.7-17.2c-3.6-2.1-8.1-1.8-11.5.6l-10.5,7.7c-1.2.9-1.9,2.3-1.8,3.8,0,1.2.6,2.4,1.5,3.1.2.2.4.4.7.5l29.9,18.1c1.9,1.1,4,1.7,6.1,1.7s4.9-.8,7-2.3l9.9-7.2c.3-.2.7-.5.9-.8.8-1,1.3-2.4,1.2-3.7-.1-1.8-1.1-3.4-2.7-4.3h0ZM440.7,619.3l-1.6,1.2-8.2,6c-2.9,2.1-6.8,2.3-9.9.5l-27.6-16.7-2-1.2-.3-.2c-.5-.3-.8-.8-.8-1.3s.2-1.1.7-1.4l10.5-7.7c1.4-1,2.9-1.4,4.5-1.4s2.6.3,3.8,1l30.7,17.2c.7.4,1.1,1.1,1.2,1.9,0,.7-.2,1.4-.8,1.8,0,0-.2.2-.2.2h0Z"/>
          </g>
          <g>
            <path class="st10" d="M419.1,708.3l-30.7-17.2c-3.6-2.1-8.1-1.8-11.5.6l-10.5,7.7c-1.2.9-1.9,2.3-1.8,3.8,0,1.5.9,2.9,2.2,3.6l29.9,18.1c1.9,1.1,4,1.7,6.1,1.7s4.9-.8,7-2.3l9.9-7.2c1.4-1.1,2.3-2.8,2.2-4.5,0-1.8-1.1-3.4-2.6-4.3h-.2Z"/>
            <path class="st8" d="M367.5,698.9l29.9,18.1c3.6,2.1,8.1,1.9,11.5-.6l9.9-7.2c2.2-1.6,2.1-5-.3-6.4l-30.8-17.2c-3.1-1.8-7-1.6-9.9.5l-10.5,7.7c-1.8,1.3-1.6,3.9.2,5.1h0Z"/>
            <path class="st11" d="M377.8,693.8l-8.6,6.3,28,17c3.6,2.1,8.1,1.9,11.5-.6l8.8-6.5-29.9-16.7c-3.1-1.8-7-1.6-9.9.5h.1Z"/>
            <path class="st10" d="M419.1,701.6l-30.7-17.2c-3.6-2.1-8.1-1.8-11.5.6l-10.5,7.7c-1.2.9-1.9,2.3-1.8,3.8,0,1.2.6,2.4,1.5,3.2.2.2.4.3.6.5l29.9,18.1c1.9,1.1,4,1.6,6.1,1.6s4.9-.8,7-2.3l9.9-7.2c.4-.2.7-.5.9-.8.8-1,1.3-2.3,1.2-3.7,0-1.8-1.1-3.4-2.6-4.3h0ZM417.9,708.1l-1.6,1.2-8.3,6.1c-2.9,2.1-6.8,2.3-9.9.5l-27.5-16.7-2-1.2-.3-.2h0c-.5-.3-.7-.8-.8-1.3,0-.5.2-1,.6-1.4l10.5-7.7c1.3-1,2.9-1.5,4.5-1.5s2.7.4,3.8,1l30.7,17.2c.7.4,1.1,1.1,1.2,1.9,0,.7-.2,1.4-.7,1.8,0,0-.2.2-.3.3h0Z"/>
          </g>
          <g>
            <path class="st10" d="M457.7,679.6l-30.7-17.2c-3.6-2.1-8.1-1.8-11.5.6l-10.5,7.7c-1.2.9-1.9,2.3-1.8,3.8,0,1.5.9,2.9,2.2,3.6l29.9,18.1c1.9,1.1,4,1.7,6.1,1.7s4.9-.8,7-2.3l9.9-7.2c1.4-1.1,2.3-2.8,2.2-4.5,0-1.8-1.1-3.4-2.6-4.3h-.2Z"/>
            <path class="st8" d="M406.2,670.2l29.9,18.1c3.6,2.1,8.1,1.9,11.5-.6l9.9-7.2c2.2-1.6,2.1-5-.3-6.4l-30.8-17.2c-3.1-1.8-7-1.6-9.9.5l-10.5,7.7c-1.8,1.3-1.6,3.9.2,5.1h0Z"/>
            <path class="st11" d="M416.4,665.1l-8.6,6.3,28,17c3.6,2.1,8.1,1.9,11.5-.6l8.8-6.5-29.9-16.7c-3.1-1.8-7-1.6-9.9.5h.1Z"/>
            <path class="st10" d="M457.8,672.9l-30.7-17.2c-3.6-2.1-8.1-1.8-11.5.6l-10.5,7.7c-1.2.9-1.9,2.3-1.8,3.8,0,1.2.6,2.4,1.5,3.1.2.2.4.3.7.5l29.9,18.1c1.9,1.1,4,1.6,6,1.6s4.9-.8,7.1-2.3l9.9-7.2c.3-.2.6-.5.9-.8.8-1,1.3-2.4,1.2-3.7,0-1.8-1.1-3.4-2.7-4.3h0ZM456.6,679.3l-1.6,1.2-8.2,6c-2.9,2.1-6.8,2.3-9.9.5l-27.6-16.7-2-1.2-.3-.2h0c-.5-.3-.8-.8-.8-1.3s.2-1,.7-1.4l10.5-7.7c1.3-1,2.9-1.5,4.5-1.5s2.7.3,3.8,1l30.7,17.2c.7.4,1.1,1.1,1.2,1.9,0,.7-.2,1.3-.7,1.8,0,0-.2.2-.3.2v.2Z"/>
          </g>
          <g>
            <path class="st10" d="M496.2,651.4l-30.7-17.2c-3.6-2.1-8.1-1.8-11.5.6l-10.5,7.7c-1.2.9-1.9,2.3-1.8,3.8,0,1.5.9,2.9,2.2,3.6l29.9,18.1c1.9,1.1,4,1.7,6.1,1.7s4.9-.8,7-2.3l9.9-7.2c1.4-1.1,2.3-2.8,2.2-4.5s-1.1-3.4-2.6-4.3h-.2Z"/>
            <path class="st8" d="M444.6,642l29.9,18.1c3.6,2.1,8.1,1.9,11.5-.6l9.9-7.2c2.2-1.6,2.1-5-.3-6.4l-30.8-17.2c-3.1-1.8-7-1.6-9.9.5l-10.5,7.7c-1.8,1.3-1.6,3.9.2,5.1h0Z"/>
            <path class="st11" d="M454.9,636.9l-8.6,6.3,28,17c3.6,2.1,8.1,1.9,11.5-.6l8.8-6.5-29.9-16.7c-3.1-1.8-7-1.6-9.9.5h.1Z"/>
            <path class="st10" d="M496.2,644.6l-30.7-17.2c-3.6-2.1-8.1-1.8-11.5.6l-10.5,7.7c-1.2.9-1.9,2.3-1.8,3.8,0,1.2.6,2.4,1.5,3.1.2.2.4.3.7.5l29.9,18.1c1.9,1.1,4,1.6,6.1,1.6s4.9-.8,7.1-2.3l9.8-7.2c.4-.2.7-.5.9-.8.8-1,1.3-2.3,1.2-3.7,0-1.8-1.1-3.4-2.7-4.3h0ZM495,651.1l-1.6,1.2-8.2,6c-2.9,2.1-6.8,2.3-9.9.5l-27.6-16.7-2-1.2-.3-.2c-.5-.3-.8-.8-.8-1.3s.2-1,.7-1.4l10.5-7.7c1.3-1,2.9-1.5,4.5-1.5s2.6.4,3.8,1l30.7,17.2c.7.4,1.1,1.1,1.2,1.9,0,.7-.2,1.3-.7,1.8s-.2.2-.3.2v.2Z"/>
          </g>
          <g>
            <path class="st10" d="M473.6,740l-30.7-17.2c-3.6-2.1-8.1-1.8-11.5.6l-10.5,7.7c-1.2.9-1.9,2.3-1.8,3.8,0,1.5.9,2.9,2.2,3.6l29.9,18.1c1.9,1.1,4,1.7,6.1,1.7s4.9-.8,7-2.3l9.9-7.2c1.4-1.1,2.3-2.8,2.2-4.5,0-1.8-1.1-3.4-2.6-4.3h-.2Z"/>
            <path class="st8" d="M422,730.6l29.9,18.1c3.6,2.1,8.1,1.9,11.5-.6l9.9-7.2c2.2-1.6,2.1-5-.3-6.4l-30.8-17.2c-3.1-1.8-7-1.6-9.9.5l-10.5,7.7c-1.8,1.3-1.6,3.9.2,5.1h0Z"/>
            <path class="st11" d="M432.2,725.5l-8.6,6.3,28,17c3.6,2.1,8.1,1.9,11.5-.6l8.8-6.5-29.9-16.7c-3.1-1.8-7-1.6-9.9.5h.1Z"/>
            <path class="st10" d="M473.6,733.2l-30.7-17.2c-3.6-2.1-8.1-1.8-11.5.6l-10.5,7.7c-1.2.9-1.9,2.3-1.8,3.8,0,1.2.6,2.4,1.6,3.2.2.2.4.3.6.5l29.9,18.1c1.9,1.1,4,1.7,6,1.7s5-.8,7.1-2.3l9.9-7.2c.3-.2.7-.5.9-.8.8-1,1.3-2.3,1.2-3.7,0-1.8-1.1-3.4-2.7-4.3h0ZM472.4,739.7l-1.7,1.2-8.2,6c-2.9,2.1-6.8,2.3-9.9.5l-27.5-16.7-2-1.2-.3-.2h0c-.5-.3-.8-.8-.8-1.3s.2-1.1.7-1.4l10.5-7.7c1.3-1,2.9-1.4,4.5-1.4s2.7.3,3.8,1l30.7,17.2c.7.4,1.1,1.1,1.2,1.9,0,.7-.2,1.4-.7,1.8,0,0-.2.2-.2.2h-.1Z"/>
          </g>
          <g>
            <path class="st10" d="M512.2,711.3l-30.7-17.2c-3.6-2.1-8.1-1.8-11.5.6l-10.5,7.7c-1.2.9-1.9,2.3-1.8,3.8,0,1.5.9,2.9,2.2,3.6l29.9,18.1c1.9,1.1,4,1.7,6.1,1.7s4.9-.8,7-2.3l9.9-7.2c1.4-1.1,2.3-2.8,2.2-4.5,0-1.8-1.1-3.4-2.6-4.3h-.2Z"/>
            <path class="st8" d="M460.6,701.9l29.9,18.1c3.6,2.1,8.1,1.9,11.5-.6l9.9-7.2c2.2-1.6,2.1-5-.3-6.4l-30.8-17.2c-3.1-1.8-7-1.6-9.9.5l-10.5,7.7c-1.8,1.3-1.6,3.9.2,5.1h0Z"/>
            <path class="st11" d="M470.9,696.7l-8.6,6.3,28,17c3.6,2.1,8.1,1.9,11.5-.6l8.8-6.5-29.9-16.7c-3.1-1.8-7-1.6-9.9.5h.1Z"/>
            <path class="st10" d="M512.2,704.5l-30.7-17.2c-3.6-2.1-8.1-1.8-11.5.6l-10.5,7.7c-1.2.9-1.9,2.3-1.8,3.8,0,1.2.6,2.4,1.5,3.1.2.2.4.3.7.5l29.9,18.1c1.9,1.1,4,1.7,6.1,1.7s4.9-.8,7-2.3l9.9-7.2c.3-.2.7-.5.9-.8.8-1,1.3-2.4,1.2-3.7,0-1.8-1.1-3.4-2.7-4.3h0ZM511,711l-1.6,1.2-8.2,6c-2.9,2.1-6.8,2.3-9.9.5l-27.6-16.7-2-1.2-.3-.2c-.5-.3-.8-.8-.8-1.3s.2-1.1.7-1.4l10.5-7.7c1.4-1,2.9-1.4,4.5-1.4s2.6.3,3.8,1l30.7,17.2c.7.4,1.1,1.1,1.2,1.9,0,.7-.2,1.4-.8,1.8,0,0-.2.2-.2.2h0Z"/>
          </g>
          <g>
            <path class="st10" d="M550.6,683.1l-30.7-17.2c-3.6-2.1-8.1-1.8-11.5.6l-10.5,7.7c-1.2.9-1.9,2.3-1.8,3.8,0,1.5.9,2.9,2.2,3.6l29.9,18.1c1.9,1.1,4,1.7,6.1,1.7s4.9-.8,7-2.3l9.9-7.2c1.4-1.1,2.3-2.8,2.2-4.5,0-1.8-1.1-3.4-2.6-4.3h-.2Z"/>
            <path class="st8" d="M499,673.7l29.9,18.1c3.6,2.1,8.1,1.9,11.5-.6l9.9-7.2c2.2-1.6,2.1-5-.3-6.4l-30.8-17.2c-3.1-1.8-7-1.6-9.9.5l-10.5,7.7c-1.8,1.3-1.6,3.9.2,5.1h0Z"/>
            <path class="st11" d="M509.3,668.5l-8.6,6.3,28,17c3.6,2.1,8.1,1.9,11.5-.6l8.8-6.5-29.9-16.7c-3.1-1.8-7-1.6-9.9.5h.1Z"/>
            <path class="st10" d="M550.7,676.3l-30.7-17.2c-3.6-2.1-8.1-1.8-11.5.6l-10.5,7.7c-1.2.9-1.9,2.3-1.8,3.8,0,1.2.6,2.4,1.5,3.2.2.2.4.3.6.5l29.9,18.1c1.9,1.1,4,1.7,6.1,1.7s4.9-.8,7-2.3l9.9-7.2c.3-.2.6-.5.9-.8.9-1,1.3-2.3,1.2-3.7,0-1.8-1.1-3.4-2.6-4.3h0ZM549.4,682.8l-1.6,1.2-8.2,6c-2.9,2.1-6.8,2.3-9.9.5l-27.5-16.7-2-1.2-.3-.2h0c-.5-.3-.7-.8-.8-1.3,0-.5.2-1.1.6-1.4l10.5-7.7c1.3-1,2.9-1.4,4.5-1.4s2.7.3,3.9,1l30.7,17.2c.7.4,1.1,1.1,1.2,1.9,0,.7-.2,1.4-.7,1.8,0,0-.2.2-.2.2h-.2Z"/>
          </g>
          <path class="st8" d="M636.9,422.5l142.3,82.8c5.1,2.9,11.4,2.6,16.1-.9l18.4-13.8c3.1-2.3,2.8-7-.5-9l-143.5-81.5c-4.4-2.5-9.8-2.2-13.9.8l-19.3,14.4c-2.5,1.8-2.3,5.5.4,7.1h0Z"/>
          <path class="st7" d="M636.9,434.1l142.3,82.8c5.1,2.9,11.4,2.6,16.1-.9l18.4-13.8c3.1-2.3,2.8-7-.5-9l-143.5-81.5c-4.4-2.5-9.8-2.2-13.9.8l-19.3,14.4c-2.5,1.8-2.3,5.5.4,7.1h0Z"/>
          <path class="st10" d="M813.9,480.5l-31.9-18.1-111.6-63.4c-4.9-2.7-11-2.4-15.4.9l-19.3,14.5c-.2.1-.3.2-.4.3-.4.4-.8.8-1.1,1.3s-.5.9-.6,1.4v.2c0,.4-.2.8-.2,1.3v.4c0,1.3.6,2.5,1.4,3.5.4.4.8.8,1.4,1.1h0l2.5,1.5,107.3,62.5,32.3,18.8c.2.1.5.3.7.4,2.3,1.2,4.9,1.8,7.4,1.8s3.5-.3,5.1-.8c.6-.2,1.1-.4,1.7-.7.5-.2,1-.5,1.5-.8.4-.3.8-.5,1.3-.8l16.7-12.5,1.7-1.3c.5-.4,1-.8,1.3-1.3.9-1.1,1.4-2.4,1.4-3.8v-.8c-.2-2.3-1.4-4.4-3.4-5.5h.2ZM814.4,486.1c0,1.4-.5,2.6-1.6,3.4l-2.7,2.1-15.7,11.7c-.8.6-1.6,1.1-2.5,1.4-.6.2-1.2.5-1.8.6-.7.2-1.4.4-2.1.5-2.7.3-5.6-.3-8.1-1.7l-31.2-18.2-107.4-62.5-3.7-2.1c-.6-.4-1.1-1-1.3-1.7v-.6c0-.3,0-.7.2-1,0-.5.4-.9.8-1.3,0,0,0-.1.2-.2l1.1-.8,18.2-13.6c2-1.4,4.3-2.2,6.7-2.2s3.9.5,5.6,1.5l110.4,62.7,33.1,18.8c1.1.7,1.8,1.8,1.9,3.1h-.1Z"/>
          <path class="st11" d="M738.3,552.1l-149.7,110.2c-4.7,3.5-11,3.8-16.1.9l-115.1-67-9.6-5.6,149.4-110c4-3,9.5-3.3,13.8-.8l112.3,63.8,15,8.5h0Z"/>
          <path class="st10" d="M702.6,518.7l-90.8-51.6c-4.9-2.8-11-2.4-15.4.9l-39.3,29-125.1,92.1-.2.2,140.1,81.5c2.3,1.4,4.9,2.1,7.5,2.2h.8c3.3,0,6.6-1.1,9.4-3.1l165.1-121.5-52-29.5v-.2ZM573.2,668.2l-136.2-79.3,123-90.5,38.1-28c3.6-2.7,8.4-3,12.3-.8l89.6,50.9,49.3,28-161.5,118.9c-4.3,3.1-9.9,3.4-14.5.8h0Z"/>
          <path class="st10" d="M817.3,521.7h0v-35.5l-1.6-.6c.4,1.7,0,3.6-1.3,5v.4l-17.7,13.8-2.5.9c-1.6,1-3.3,1.6-5.1,2l-.6.2h-.5c-3,.2-6.1-.4-8.8-2v9.9l-141.6-82.4c-.8-.5-1.3-1.3-1.4-2.3v-8.5c-1.3-1.1-1.7-2.9-1.2-4.5l-1.7-.6v13.8c0,1.9,1.2,3.6,2.8,4.6l142.3,82.8c3.9,2.3,8.6,2.8,12.8,1.5h0l2-.7s6-2.3,9.7-2.3,4.7.7,4.7.7l9.6,5.6v-1.7h0Z"/>
        </g>
        <g>
          <g>
            <path class="st3" d="M782,462.3l-1.3.9-1.3.9-7.7,5.5h0l-18.1,12.8-1.3.9-1.3.9-2.3,1.6-1.3.9-1.3.9-6.7,4.8-.9.6-1.7,1.2-24,17-10.2,7.3-1.3.9-1.3.9-7.7,5.5-21.1,15c-3,2.2-6.5,3.4-10.1,3.7s-7.2-.4-10.6-2l-82.5-40.4-7.9-3.9-1.5-.7-1.5-.7-10.2-5-12.4-6.1-1.4-.7-1.5-.7,88.3-65.1c5.4-4,10.8-5.6,15.4-4.8,0-.1.3-.2.4-.3l19.3-14.5c4.5-3.3,10.6-3.7,15.4-.9l111.6,63.4v.2Z"/>
            <path class="st6" d="M906.4,300.4v-.6l-.5-6.6v-.8c-.3-2.5-1.8-4.6-4.1-5.7l-166-81.2c-3.4-1.6-7-2.3-10.6-2s-7.1,1.5-10.1,3.7l-120.9,85.7h0l-2.6,1.9h0l-112,80c-1.8,1.3-2.9,3.3-3.1,5.5h-.1v1.5l.5,6.6v.8c.3,2.5,1.8,4.6,4.1,5.7l166,81.2c3.4,1.6,7,2.3,10.6,2s7.1-1.5,10.1-3.7l120.9-85.7h0l2.6-1.9h0l112-80c1.8-1.3,2.9-3.3,3.1-5.5h0v-.9h0Z"/>
            <path class="st6" d="M476.2,380.2l165.9,82c8.6,4,18.7,3.1,26.6-2.2l237.1-167.7"/>
          </g>
          <g>
            <line class="st0" x1="867.4" y1="269.9" x2="612.2" y2="454.3"/>
            <polygon class="st12" points="624.6 454.3 599.7 442.4 851.5 262.1 876.8 274 624.6 454.3"/>
          </g>
        </g>
        <g class="st9">
          <g class="st9">
            <path class="st2" d="M555.8,545.6l3.4,2c1.4.8,2.2,1.7,2.5,2.8.2.8.1,1.6-.4,2.5-1.5,2.5-4.5,2.8-7.7.9l-2.6-1.5-3.3,3.3-1.2-.7,9.2-9.3ZM554.4,552.7c2.6,1.5,4.6,1.3,5.7-.5.3-.5.4-1,.2-1.6-.2-.7-.8-1.4-1.8-1.9l-2.5-1.4-4,4.1,2.4,1.3Z"/>
            <path class="st2" d="M569.3,553.2l1.2.7-4.3,12.2-1.3-.7,1.2-3.2-6-3.4-3.7,1.7-1.4-.8,14.2-6.5ZM566.6,561l2.2-6.2-7.2,3.3,5,2.8Z"/>
            <path class="st2" d="M573.5,564.4l1-8.1,1.4.8-1,6.8,8.3-2.6,1.6.9-10.3,3.1-3.5,3.6-1.3-.7,3.7-3.7Z"/>
            <path class="st2" d="M586.5,563.1l1.2.7-1,7.3,9-2.8,1.4.8-9.2,9.3-1.3-.7,7.4-7.5-8.9,2.7h0s.9-7.3.9-7.3l-7.4,7.5-1.2-.7,9.2-9.3Z"/>
            <path class="st2" d="M600.1,570.9l7.8,4.5-1,.9-6.6-3.8-3.1,3.2,5.9,3.4-1,.9-5.9-3.4-3.2,3.2,6.7,3.8-.9,1-7.9-4.5,9.2-9.3Z"/>
            <path class="st2" d="M610.3,576.7l1.1.7-.6,11.4,7.5-7.5,1.2.7-9.2,9.3-1-.6.6-11.7-7.6,7.7-1.2-.7,9.2-9.3Z"/>
            <path class="st2" d="M624.2,586.1l-3.7-2.1,1-1,8.6,4.9-1,1-3.7-2.1-8.2,8.3-1.2-.7,8.2-8.3Z"/>
          </g>
        </g>
        <g class="st9">
          <g class="st9">
            <path class="st12" d="M555.8,542.8l3.4,2c1.4.8,2.2,1.7,2.5,2.8.2.8.1,1.6-.4,2.5-1.5,2.5-4.5,2.8-7.7.9l-2.6-1.5-3.3,3.3-1.2-.7,9.2-9.3ZM554.4,549.9c2.6,1.5,4.6,1.3,5.7-.5.3-.5.4-1,.2-1.6-.2-.7-.8-1.4-1.8-1.9l-2.5-1.4-4,4.1,2.4,1.3Z"/>
            <path class="st12" d="M569.3,550.4l1.2.7-4.3,12.2-1.3-.7,1.2-3.2-6-3.4-3.7,1.7-1.4-.8,14.2-6.5ZM566.6,558.2l2.2-6.2-7.2,3.3,5,2.8Z"/>
            <path class="st12" d="M573.5,561.6l1-8.1,1.4.8-1,6.8,8.3-2.6,1.6.9-10.3,3.1-3.5,3.6-1.3-.7,3.7-3.7Z"/>
            <path class="st12" d="M586.5,560.3l1.2.7-1,7.3,9-2.8,1.4.8-9.2,9.3-1.3-.7,7.4-7.5-8.9,2.7h0s.9-7.3.9-7.3l-7.4,7.5-1.2-.7,9.2-9.3Z"/>
            <path class="st12" d="M600.1,568.1l7.8,4.5-1,.9-6.6-3.8-3.1,3.2,5.9,3.4-1,.9-5.9-3.4-3.2,3.2,6.7,3.8-.9,1-7.9-4.5,9.2-9.3Z"/>
            <path class="st12" d="M610.3,573.9l1.1.7-.6,11.4,7.5-7.5,1.2.7-9.2,9.3-1-.6.6-11.7-7.6,7.7-1.2-.7,9.2-9.3Z"/>
            <path class="st12" d="M624.2,583.3l-3.7-2.1,1-1,8.6,4.9-1,1-3.7-2.1-8.2,8.3-1.2-.7,8.2-8.3Z"/>
          </g>
        </g>
        <path class="st13" d="M738.3,552.1l-149.7,110.2c-4.7,3.5-11,3.8-16.1.9l-115.1-67,265.9-52.6,15,8.5h0Z"/>
      </g>
    </g>
  </g>
</svg>