<?xml version="1.0" encoding="UTF-8"?>
<svg id="Layer_1" xmlns="http://www.w3.org/2000/svg" version="1.1" viewBox="0 0 1080 1080">
  <!-- Generator: Adobe Illustrator 29.6.1, SVG Export Plug-In . SVG Version: 2.1.1 Build 9)  -->
  <defs>
    <style>
      .st0 {
        stroke-dasharray: 0 59.1;
      }

      .st0, .st1 {
        fill: none;
        stroke: #471519;
        stroke-linecap: round;
        stroke-linejoin: round;
        stroke-width: 23.4px;
      }

      .st2 {
        fill: #c34560;
        stroke-width: 4.2px;
      }

      .st2, .st3 {
        stroke: #000;
        stroke-miterlimit: 10;
      }

      .st4 {
        fill: #fff;
      }

      .st5 {
        fill: #471519;
      }

      .st6 {
        fill: #e9e9e9;
      }

      .st7 {
        fill: #e0e1e0;
      }

      .st3 {
        fill: #d15a79;
        stroke-width: 2.8px;
      }
    </style>
  </defs>
  <g>
    <g>
      <rect class="st7" x="696.6" y="484.6" width="31.1" height="31.1" transform="translate(1212.4 -212) rotate(90)"/>
      <rect class="st7" x="696.6" y="403.7" width="31.1" height="31.1" transform="translate(1131.5 -292.9) rotate(90)"/>
      <rect class="st7" x="492.8" y="494" width="31.1" height="31.1" transform="translate(1018 1.2) rotate(90)"/>
      <rect class="st7" x="492.8" y="450.4" width="31.1" height="31.1" transform="translate(974.4 -42.4) rotate(90)"/>
      <rect class="st7" x="492.8" y="413.1" width="31.1" height="31.1" transform="translate(937 -79.7) rotate(90)"/>
      <rect class="st7" x="455.5" y="494" width="31.1" height="31.1" transform="translate(980.7 38.5) rotate(90)"/>
      <rect class="st7" x="455.5" y="413.1" width="31.1" height="31.1" transform="translate(899.7 -42.4) rotate(90)"/>
      <rect class="st7" x="455.5" y="369.6" width="31.1" height="31.1" transform="translate(856.2 -85.9) rotate(90)"/>
      <rect class="st7" x="412" y="450.4" width="31.1" height="31.1" transform="translate(893.6 38.4) rotate(90)"/>
      <rect class="st7" x="412" y="413.1" width="31.1" height="31.1" transform="translate(856.2 1.1) rotate(90)"/>
      <rect class="st7" x="368.5" y="494" width="31.1" height="31.1" transform="translate(893.7 125.5) rotate(90)"/>
      <rect class="st7" x="368.5" y="450.4" width="31.1" height="31.1" transform="translate(850.1 81.9) rotate(90)"/>
      <rect class="st7" x="368.5" y="413.1" width="31.1" height="31.1" transform="translate(812.8 44.6) rotate(90)"/>
      <rect class="st7" x="328" y="555.4" width="31.1" height="31.1" transform="translate(914.5 227.4) rotate(90)"/>
      <rect class="st7" x="366.8" y="555.4" width="31.1" height="31.1" transform="translate(953.3 188.6) rotate(90)"/>
      <rect class="st7" x="324.9" y="494" width="31.1" height="31.1" transform="translate(850.1 169.1) rotate(90)"/>
      <rect class="st7" x="324.9" y="413.1" width="31.1" height="31.1" transform="translate(769.1 88.2) rotate(90)"/>
      <rect class="st7" x="324.9" y="369.6" width="31.1" height="31.1" transform="translate(725.6 44.7) rotate(90)"/>
      <rect class="st7" x="348.9" y="601.9" width="31.1" height="31.1" transform="translate(982 253) rotate(90)"/>
      <rect class="st7" x="287.6" y="450.4" width="31.1" height="31.1" transform="translate(769.1 162.8) rotate(90)"/>
      <rect class="st7" x="287.6" y="413.1" width="31.1" height="31.1" transform="translate(731.8 125.5) rotate(90)"/>
      <rect class="st7" x="244.1" y="450.4" width="31.1" height="31.1" transform="translate(725.6 206.3) rotate(90)"/>
      <rect class="st7" x="244.1" y="413.1" width="31.1" height="31.1" transform="translate(688.3 169) rotate(90)"/>
      <rect class="st7" x="244.1" y="369.6" width="31.1" height="31.1" transform="translate(644.8 125.5) rotate(90)"/>
      <rect class="st7" x="200.6" y="494" width="31.1" height="31.1" transform="translate(725.8 293.4) rotate(90)"/>
      <rect class="st7" x="200.6" y="413.1" width="31.1" height="31.1" transform="translate(644.8 212.5) rotate(90)"/>
      <rect class="st7" x="200.6" y="369.6" width="31.1" height="31.1" transform="translate(601.4 169) rotate(90)"/>
      <rect class="st7" x="163.3" y="413.1" width="31.1" height="31.1" transform="translate(607.5 249.8) rotate(90)"/>
      <rect class="st7" x="660.9" y="450.4" width="31.1" height="31.1" transform="translate(1142.4 -210.4) rotate(90)"/>
      <rect class="st7" x="617.2" y="494" width="31.1" height="31.1" transform="translate(1142.4 -123.2) rotate(90)"/>
      <rect class="st7" x="617.2" y="450.4" width="31.1" height="31.1" transform="translate(1098.8 -166.8) rotate(90)"/>
      <rect class="st7" x="617.2" y="413.1" width="31.1" height="31.1" transform="translate(1061.5 -204.1) rotate(90)"/>
      <rect class="st7" x="579.9" y="413.1" width="31.1" height="31.1" transform="translate(1024.2 -166.8) rotate(90)"/>
      <rect class="st7" x="579.9" y="369.6" width="31.1" height="31.1" transform="translate(980.7 -210.3) rotate(90)"/>
      <rect class="st7" x="536.4" y="450.4" width="31.1" height="31.1" transform="translate(1018 -86) rotate(90)"/>
      <rect class="st7" x="536.4" y="413.1" width="31.1" height="31.1" transform="translate(980.7 -123.3) rotate(90)"/>
      <rect class="st7" x="421.3" y="539.8" width="31.1" height="31.1" transform="translate(992.2 118.5) rotate(90)"/>
    </g>
    <g>
      <rect class="st7" x="379.4" y="229.1" width="31.1" height="31.1" transform="translate(150.2 639.6) rotate(-90)"/>
      <rect class="st7" x="379.4" y="310.1" width="31.1" height="31.1" transform="translate(69.3 720.6) rotate(-90)"/>
      <rect class="st7" x="583.1" y="219.7" width="31.1" height="31.1" transform="translate(363.4 834) rotate(-90)"/>
      <rect class="st7" x="583.1" y="263.4" width="31.1" height="31.1" transform="translate(319.8 877.6) rotate(-90)"/>
      <rect class="st7" x="583.1" y="300.7" width="31.1" height="31.1" transform="translate(282.5 915) rotate(-90)"/>
      <rect class="st7" x="620.5" y="300.7" width="31.1" height="31.1" transform="translate(319.8 952.3) rotate(-90)"/>
      <rect class="st7" x="620.5" y="344.2" width="31.1" height="31.1" transform="translate(276.3 995.8) rotate(-90)"/>
      <rect class="st7" x="664" y="300.7" width="31.1" height="31.1" transform="translate(363.3 995.8) rotate(-90)"/>
      <rect class="st7" x="707.4" y="219.7" width="31.1" height="31.1" transform="translate(487.7 958.3) rotate(-90)"/>
      <rect class="st7" x="707.4" y="263.4" width="31.1" height="31.1" transform="translate(444.1 1001.9) rotate(-90)"/>
      <rect class="st7" x="707.4" y="300.7" width="31.1" height="31.1" transform="translate(406.8 1039.3) rotate(-90)"/>
      <rect class="st7" x="748" y="158.4" width="31.1" height="31.1" transform="translate(589.6 937.5) rotate(-90)"/>
      <rect class="st7" x="709.2" y="158.4" width="31.1" height="31.1" transform="translate(550.8 898.7) rotate(-90)"/>
      <rect class="st7" x="751.1" y="219.7" width="31.1" height="31.1" transform="translate(531.3 1001.9) rotate(-90)"/>
      <rect class="st7" x="751.1" y="300.7" width="31.1" height="31.1" transform="translate(450.4 1082.9) rotate(-90)"/>
      <rect class="st7" x="751.1" y="344.2" width="31.1" height="31.1" transform="translate(406.9 1126.4) rotate(-90)"/>
      <rect class="st7" x="727" y="111.8" width="31.1" height="31.1" transform="translate(615.2 870) rotate(-90)"/>
      <rect class="st7" x="788.4" y="263.4" width="31.1" height="31.1" transform="translate(525 1082.9) rotate(-90)"/>
      <rect class="st7" x="788.4" y="300.7" width="31.1" height="31.1" transform="translate(487.7 1120.2) rotate(-90)"/>
      <rect class="st7" x="831.9" y="263.4" width="31.1" height="31.1" transform="translate(568.5 1126.4) rotate(-90)"/>
      <rect class="st7" x="831.9" y="300.7" width="31.1" height="31.1" transform="translate(531.2 1163.7) rotate(-90)"/>
      <rect class="st7" x="831.9" y="344.2" width="31.1" height="31.1" transform="translate(487.7 1207.2) rotate(-90)"/>
      <rect class="st7" x="875.4" y="219.7" width="31.1" height="31.1" transform="translate(655.6 1126.2) rotate(-90)"/>
      <rect class="st7" x="875.4" y="300.7" width="31.1" height="31.1" transform="translate(574.7 1207.2) rotate(-90)"/>
      <rect class="st7" x="875.4" y="344.2" width="31.1" height="31.1" transform="translate(531.2 1250.7) rotate(-90)"/>
      <rect class="st7" x="912.7" y="300.7" width="31.1" height="31.1" transform="translate(612 1244.5) rotate(-90)"/>
      <rect class="st7" x="415.1" y="263.4" width="31.1" height="31.1" transform="translate(151.7 709.6) rotate(-90)"/>
      <rect class="st7" x="458.7" y="219.7" width="31.1" height="31.1" transform="translate(239 709.6) rotate(-90)"/>
      <rect class="st7" x="458.7" y="300.7" width="31.1" height="31.1" transform="translate(158.1 790.5) rotate(-90)"/>
      <rect class="st7" x="496" y="300.7" width="31.1" height="31.1" transform="translate(195.4 827.9) rotate(-90)"/>
      <rect class="st7" x="496" y="344.2" width="31.1" height="31.1" transform="translate(151.9 871.3) rotate(-90)"/>
      <rect class="st7" x="539.5" y="263.4" width="31.1" height="31.1" transform="translate(276.2 834) rotate(-90)"/>
      <rect class="st7" x="539.5" y="300.7" width="31.1" height="31.1" transform="translate(238.9 871.3) rotate(-90)"/>
      <rect class="st7" x="654.7" y="174" width="31.1" height="31.1" transform="translate(480.7 859.8) rotate(-90)"/>
    </g>
  </g>
  <g>
    <g>
      <rect class="st7" x="696.6" y="819.7" width="31.1" height="31.1" transform="translate(1547.5 123.1) rotate(90)"/>
      <rect class="st7" x="696.6" y="738.8" width="31.1" height="31.1" transform="translate(1466.5 42.2) rotate(90)"/>
      <rect class="st7" x="492.8" y="829.1" width="31.1" height="31.1" transform="translate(1353.1 336.3) rotate(90)"/>
      <rect class="st7" x="492.8" y="785.5" width="31.1" height="31.1" transform="translate(1309.5 292.7) rotate(90)"/>
      <rect class="st7" x="492.8" y="748.2" width="31.1" height="31.1" transform="translate(1272.1 255.4) rotate(90)"/>
      <rect class="st7" x="455.5" y="829.1" width="31.1" height="31.1" transform="translate(1315.8 373.6) rotate(90)"/>
      <rect class="st7" x="455.5" y="748.2" width="31.1" height="31.1" transform="translate(1234.8 292.7) rotate(90)"/>
      <rect class="st7" x="455.5" y="704.7" width="31.1" height="31.1" transform="translate(1191.3 249.2) rotate(90)"/>
      <rect class="st7" x="412" y="785.5" width="31.1" height="31.1" transform="translate(1228.6 373.5) rotate(90)"/>
      <rect class="st7" x="412" y="748.2" width="31.1" height="31.1" transform="translate(1191.3 336.2) rotate(90)"/>
      <rect class="st7" x="368.5" y="829.1" width="31.1" height="31.1" transform="translate(1228.8 460.6) rotate(90)"/>
      <rect class="st7" x="368.5" y="785.5" width="31.1" height="31.1" transform="translate(1185.2 417) rotate(90)"/>
      <rect class="st7" x="368.5" y="748.2" width="31.1" height="31.1" transform="translate(1147.8 379.7) rotate(90)"/>
      <rect class="st7" x="328" y="890.5" width="31.1" height="31.1" transform="translate(1249.6 562.5) rotate(90)"/>
      <rect class="st7" x="366.8" y="890.5" width="31.1" height="31.1" transform="translate(1288.4 523.7) rotate(90)"/>
      <rect class="st7" x="324.9" y="829.1" width="31.1" height="31.1" transform="translate(1185.2 504.2) rotate(90)"/>
      <rect class="st7" x="324.9" y="748.2" width="31.1" height="31.1" transform="translate(1104.2 423.3) rotate(90)"/>
      <rect class="st7" x="324.9" y="704.7" width="31.1" height="31.1" transform="translate(1060.7 379.8) rotate(90)"/>
      <rect class="st7" x="348.9" y="937" width="31.1" height="31.1" transform="translate(1317.1 588.1) rotate(90)"/>
      <rect class="st7" x="287.6" y="785.5" width="31.1" height="31.1" transform="translate(1104.2 497.9) rotate(90)"/>
      <rect class="st7" x="287.6" y="748.2" width="31.1" height="31.1" transform="translate(1066.9 460.6) rotate(90)"/>
      <rect class="st7" x="244.1" y="785.5" width="31.1" height="31.1" transform="translate(1060.7 541.4) rotate(90)"/>
      <rect class="st7" x="244.1" y="748.2" width="31.1" height="31.1" transform="translate(1023.4 504.1) rotate(90)"/>
      <rect class="st7" x="244.1" y="704.7" width="31.1" height="31.1" transform="translate(979.9 460.6) rotate(90)"/>
      <rect class="st7" x="200.6" y="829.1" width="31.1" height="31.1" transform="translate(1060.9 628.5) rotate(90)"/>
      <rect class="st7" x="200.6" y="748.2" width="31.1" height="31.1" transform="translate(979.9 547.6) rotate(90)"/>
      <rect class="st7" x="200.6" y="704.7" width="31.1" height="31.1" transform="translate(936.4 504.1) rotate(90)"/>
      <rect class="st7" x="163.3" y="748.2" width="31.1" height="31.1" transform="translate(942.6 584.9) rotate(90)"/>
      <rect class="st7" x="660.9" y="785.5" width="31.1" height="31.1" transform="translate(1477.5 124.6) rotate(90)"/>
      <rect class="st7" x="617.2" y="829.1" width="31.1" height="31.1" transform="translate(1477.5 211.9) rotate(90)"/>
      <rect class="st7" x="617.2" y="785.5" width="31.1" height="31.1" transform="translate(1433.9 168.3) rotate(90)"/>
      <rect class="st7" x="617.2" y="748.2" width="31.1" height="31.1" transform="translate(1396.6 130.9) rotate(90)"/>
      <rect class="st7" x="579.9" y="748.2" width="31.1" height="31.1" transform="translate(1359.2 168.3) rotate(90)"/>
      <rect class="st7" x="579.9" y="704.7" width="31.1" height="31.1" transform="translate(1315.8 124.8) rotate(90)"/>
      <rect class="st7" x="536.4" y="785.5" width="31.1" height="31.1" transform="translate(1353.1 249.1) rotate(90)"/>
      <rect class="st7" x="536.4" y="748.2" width="31.1" height="31.1" transform="translate(1315.8 211.8) rotate(90)"/>
      <rect class="st7" x="421.3" y="874.9" width="31.1" height="31.1" transform="translate(1327.3 453.6) rotate(90)"/>
    </g>
    <g>
      <rect class="st7" x="379.4" y="564.2" width="31.1" height="31.1" transform="translate(-184.9 974.7) rotate(-90)"/>
      <rect class="st7" x="379.4" y="645.1" width="31.1" height="31.1" transform="translate(-265.8 1055.6) rotate(-90)"/>
      <rect class="st7" x="583.1" y="554.8" width="31.1" height="31.1" transform="translate(28.3 1169.1) rotate(-90)"/>
      <rect class="st7" x="583.1" y="598.5" width="31.1" height="31.1" transform="translate(-15.3 1212.7) rotate(-90)"/>
      <rect class="st7" x="583.1" y="635.8" width="31.1" height="31.1" transform="translate(-52.6 1250.1) rotate(-90)"/>
      <rect class="st7" x="620.5" y="635.8" width="31.1" height="31.1" transform="translate(-15.3 1287.4) rotate(-90)"/>
      <rect class="st7" x="620.5" y="679.3" width="31.1" height="31.1" transform="translate(-58.8 1330.9) rotate(-90)"/>
      <rect class="st7" x="664" y="635.8" width="31.1" height="31.1" transform="translate(28.2 1330.9) rotate(-90)"/>
      <rect class="st7" x="707.4" y="554.8" width="31.1" height="31.1" transform="translate(152.6 1293.4) rotate(-90)"/>
      <rect class="st7" x="707.4" y="598.5" width="31.1" height="31.1" transform="translate(109 1337) rotate(-90)"/>
      <rect class="st7" x="748" y="493.5" width="31.1" height="31.1" transform="translate(254.5 1272.6) rotate(-90)"/>
      <rect class="st7" x="709.2" y="493.5" width="31.1" height="31.1" transform="translate(215.7 1233.8) rotate(-90)"/>
      <rect class="st7" x="751.1" y="554.8" width="31.1" height="31.1" transform="translate(196.2 1337) rotate(-90)"/>
      <rect class="st7" x="751.1" y="679.3" width="31.1" height="31.1" transform="translate(71.8 1461.5) rotate(-90)"/>
      <rect class="st7" x="727" y="446.9" width="31.1" height="31.1" transform="translate(280.1 1205.1) rotate(-90)"/>
      <rect class="st7" x="788.4" y="598.5" width="31.1" height="31.1" transform="translate(189.9 1418) rotate(-90)"/>
      <rect class="st7" x="788.4" y="635.8" width="31.1" height="31.1" transform="translate(152.6 1455.3) rotate(-90)"/>
      <rect class="st7" x="831.9" y="635.8" width="31.1" height="31.1" transform="translate(196.1 1498.8) rotate(-90)"/>
      <rect class="st7" x="831.9" y="679.3" width="31.1" height="31.1" transform="translate(152.6 1542.3) rotate(-90)"/>
      <rect class="st7" x="875.4" y="554.8" width="31.1" height="31.1" transform="translate(320.5 1461.3) rotate(-90)"/>
      <rect class="st7" x="875.4" y="635.8" width="31.1" height="31.1" transform="translate(239.6 1542.3) rotate(-90)"/>
      <rect class="st7" x="875.4" y="679.3" width="31.1" height="31.1" transform="translate(196.1 1585.7) rotate(-90)"/>
      <rect class="st7" x="912.7" y="635.8" width="31.1" height="31.1" transform="translate(276.9 1579.6) rotate(-90)"/>
      <rect class="st7" x="415.1" y="598.5" width="31.1" height="31.1" transform="translate(-183.3 1044.7) rotate(-90)"/>
      <rect class="st7" x="458.7" y="554.8" width="31.1" height="31.1" transform="translate(-96.1 1044.7) rotate(-90)"/>
      <rect class="st7" x="458.7" y="635.8" width="31.1" height="31.1" transform="translate(-177 1125.6) rotate(-90)"/>
      <rect class="st7" x="496" y="635.8" width="31.1" height="31.1" transform="translate(-139.7 1162.9) rotate(-90)"/>
      <rect class="st7" x="496" y="679.3" width="31.1" height="31.1" transform="translate(-183.2 1206.4) rotate(-90)"/>
      <rect class="st7" x="539.5" y="598.5" width="31.1" height="31.1" transform="translate(-58.9 1169.1) rotate(-90)"/>
      <rect class="st7" x="539.5" y="635.8" width="31.1" height="31.1" transform="translate(-96.2 1206.4) rotate(-90)"/>
      <rect class="st7" x="654.7" y="509.1" width="31.1" height="31.1" transform="translate(145.6 1194.9) rotate(-90)"/>
    </g>
  </g>
  <g>
    <g>
      <path class="st4" d="M580.6,487.9c-14.1,21.4-23.7,45.1-28.6,69.4l-38.8,3.6v75l38.8,3.6c5,24.3,14.6,47.9,28.6,69.4l-24.8,29.8,53.2,53,29.8-24.8c21.4,14.1,45.1,23.7,69.4,28.6l3.6,38.8h75l3.6-38.8c24.3-5,47.9-14.6,69.4-28.6l29.8,24.8,53-53.2-24.8-29.8c14.1-21.4,23.7-45.1,28.6-69.4l38.8-3.6v-75l-38.8-3.6c-5-24.3-14.6-47.9-28.6-69.4l24.8-29.8-53.2-53-29.8,24.8c-21.4-14.1-45.1-23.7-69.4-28.6l-3.6-38.8h-75l-3.6,38.8c-24.3,5-47.9,14.6-69.4,28.6l-29.8-24.8-53.2,53.2,24.8,29.8h.2ZM821.2,526.6c39.6,39.6,39.6,104,0,143.7s-104,39.6-143.7,0c-39.6-39.6-39.6-104,0-143.7,39.6-39.6,104-39.6,143.7,0h0Z"/>
      <path class="st6" d="M793.7,842.1h-88.5l-3.8-40.2c-22.1-5.2-42.8-13.7-62-25.6l-30.9,25.6-62.6-62.6,25.6-30.9c-11.8-19.1-20.4-39.9-25.6-62l-40.2-3.8v-88.5l40.2-3.8c5.2-22.1,13.7-42.8,25.6-62l-25.6-30.9,62.6-62.6,30.9,25.6c19.1-11.8,39.9-20.4,62-25.6l3.8-40.2h88.5l3.8,40.2c22.1,5.2,42.8,13.7,62,25.6l30.9-25.6,62.6,62.6-25.6,30.9c11.8,19.1,20.4,39.9,25.6,62l40.2,3.8v88.5l-40.2,3.8c-5.2,22.1-13.7,42.8-25.6,62l25.6,30.9-62.6,62.6-30.9-25.6c-19.1,11.8-39.9,20.4-62,25.6l-3.8,40.2ZM718.6,827.2h61.6l3.5-37.4,5.3-1.1c24.1-5,46.6-14.3,66.9-27.6l4.5-3,29,23.9,43.5-43.5-23.9-29,3-4.5c13.3-20.3,22.6-42.7,27.6-66.8l1.1-5.3,37.5-3.5v-61.6l-37.5-3.5-1.1-5.3c-4.9-24.1-14.3-46.6-27.6-66.8l-3-4.5,23.9-29-43.5-43.5-29,23.9-4.5-3c-20.3-13.3-42.7-22.6-66.8-27.6l-5.3-1.1-3.5-37.5h-61.6l-3.5,37.5-5.3,1.1c-24.2,5-46.6,14.3-66.8,27.6l-4.5,3-29-23.9-43.5,43.5,23.9,29-3,4.5c-13.3,20.3-22.6,42.7-27.6,66.8l-1.1,5.3-37.5,3.5v61.6l37.5,3.5,1.1,5.3c4.9,24.1,14.3,46.5,27.6,66.8l3,4.5-23.9,29,43.5,43.5,29-23.9,4.5,3c20.3,13.3,42.7,22.6,66.8,27.6l5.3,1.1,3.5,37.5h0ZM749.4,707.4c-28,0-55.8-10.6-77-31.8-42.5-42.5-42.5-111.6,0-154.2,20.6-20.6,47.9-31.9,77-31.9s56.5,11.3,77,31.9c20.6,20.6,31.9,47.9,31.9,77s-11.3,56.5-31.9,77c-21.3,21.3-49.1,31.8-77,31.8h0ZM749.4,504.3c-25.2,0-48.8,9.8-66.6,27.6-17.8,17.8-27.6,41.4-27.6,66.6s9.8,48.8,27.6,66.6c36.8,36.8,96.6,36.8,133.1,0,17.8-17.8,27.6-41.4,27.6-66.6s-9.8-48.8-27.6-66.6c-17.8-17.8-41.4-27.6-66.6-27.6h0Z"/>
    </g>
    <g>
      <path class="st4" d="M161.8,447.3c-14.1,21.4-23.7,45.1-28.6,69.4l-38.8,3.6v75l38.8,3.6c5,24.3,14.6,47.9,28.6,69.4l-24.8,29.8,53.2,53,29.8-24.8c21.4,14.1,45.1,23.7,69.4,28.6l3.6,38.8h75l3.6-38.8c24.3-5,47.9-14.6,69.4-28.6l29.8,24.8,53-53.2-24.8-29.8c14.1-21.4,23.7-45.1,28.6-69.4l38.8-3.6v-75l-38.8-3.6c-5-24.3-14.6-47.9-28.6-69.4l24.8-29.8-53.2-53-29.8,24.8c-21.4-14.1-45.1-23.7-69.4-28.6l-3.6-38.8h-75l-3.6,38.8c-24.3,5-47.9,14.6-69.4,28.6l-29.8-24.8-53.2,53.2,24.8,29.8h.2ZM402.4,486c39.6,39.6,39.6,104,0,143.7-39.6,39.6-104,39.6-143.7,0-39.6-39.6-39.6-104,0-143.7,39.6-39.6,104-39.6,143.7,0h0Z"/>
      <path class="st6" d="M374.8,801.4h-88.5l-3.8-40.2c-22.1-5.2-42.8-13.7-62-25.6l-30.9,25.6-62.6-62.6,25.6-30.9c-11.8-19.1-20.4-39.9-25.6-62l-40.2-3.8v-88.5l40.2-3.8c5.2-22.1,13.7-42.8,25.6-62l-25.6-30.9,62.6-62.6,30.9,25.6c19.1-11.8,39.9-20.4,62-25.6l3.8-40.2h88.5l3.8,40.2c22.1,5.2,42.8,13.7,62,25.6l30.9-25.6,62.6,62.6-25.6,30.9c11.8,19.1,20.4,39.9,25.6,62l40.2,3.8v88.5l-40.2,3.8c-5.2,22.1-13.7,42.8-25.6,62l25.6,30.9-62.6,62.6-30.9-25.6c-19.1,11.8-39.9,20.4-62,25.6l-3.8,40.2h0ZM299.8,786.5h61.6l3.5-37.4,5.3-1.1c24.1-5,46.6-14.3,66.9-27.6l4.5-3,29,23.9,43.5-43.5-23.9-29,3-4.5c13.3-20.3,22.6-42.7,27.6-66.8l1.1-5.3,37.5-3.5v-61.6l-37.5-3.5-1.1-5.3c-4.9-24.1-14.3-46.6-27.6-66.8l-3-4.5,23.9-29-43.5-43.5-29,23.9-4.5-3c-20.3-13.3-42.7-22.6-66.8-27.6l-5.3-1.1-3.5-37.5h-61.6l-3.5,37.5-5.3,1.1c-24.2,5-46.6,14.3-66.8,27.6l-4.5,3-29-23.9-43.5,43.5,23.9,29-3,4.5c-13.3,20.3-22.6,42.7-27.6,66.8l-1.1,5.3-37.5,3.5v61.6l37.5,3.5,1.1,5.3c4.9,24.1,14.3,46.5,27.6,66.8l3,4.5-23.9,29,43.5,43.5,29-23.9,4.5,3c20.3,13.3,42.7,22.6,66.8,27.6l5.3,1.1,3.5,37.5h0ZM330.6,666.9c-28,0-55.8-10.6-77-31.8-42.5-42.5-42.5-111.6,0-154.2,20.6-20.6,47.9-31.9,77-31.9s56.5,11.3,77,31.9c20.6,20.6,31.9,47.9,31.9,77s-11.3,56.5-31.9,77c-21.3,21.3-49.1,31.8-77,31.8h0ZM330.6,463.6c-25.2,0-48.8,9.8-66.6,27.6-17.8,17.8-27.6,41.4-27.6,66.6s9.8,48.8,27.6,66.6c36.8,36.8,96.6,36.8,133.1,0,17.8-17.8,27.6-41.4,27.6-66.6s-9.8-48.8-27.6-66.6c-17.8-17.8-41.4-27.6-66.6-27.6h0,0Z"/>
    </g>
  </g>
  <g>
    <g>
      <line class="st1" x1="835.6" y1="711.2" x2="835.6" y2="711.2"/>
      <path class="st0" d="M782.9,737.2c-11.7,3-24,4.7-36.7,4.7h0c-38.9,0-74.3-15.3-100.4-40.3"/>
      <line class="st1" x1="626.7" y1="679.1" x2="626.7" y2="679.1"/>
    </g>
    <g>
      <path class="st1" d="M771.3,453.8c68.2,11.9,120.1,71.4,120.1,143h0c0,46.5-21.8,87.8-55.8,114.4"/>
      <polygon class="st5" points="816.2 572.2 836.2 560.5 778.8 461.6 881.7 411.6 871.5 390.7 746.2 451.7 816.2 572.2"/>
    </g>
  </g>
  <g>
    <g>
      <path class="st2" d="M738.3,237.9l11.6,358.7c.2,5.2-2.5,10.1-7,12.8l-476.5,349.2c-.9.5-1.8,1-2.7,1.4-.8.4-1.6.7-2.4.9-.7.2-1.3.4-2,.5h-.1c-1.1.2-2.1.4-3.1.4-12.7.9-24.8-8.7-25.3-22.8l-10.6-327.9c-.5-14.5,7.1-28.2,19.5-35.6l477-349.5c7.7-4.5,17-1,20.4,6.4.7,1.6,1.2,3.5,1.2,5.4Z"/>
      <path class="st3" d="M738.6,245.6l11.3,351c.2,5.2-2.5,10.1-7,12.8l-476.5,349.2c-.9.5-1.8,1-2.7,1.4-.8.4-1.6.7-2.4.9-.7.2-1.3.4-2,.5h-.1c-2,.3-4-.4-5.3-2.1-2.6-3.6-4.2-7.9-4.4-13l-10.6-327.9c-.5-14.5,7.1-28.2,19.5-35.6l468.6-343.6c5-2.9,11.3.5,11.5,6.4Z"/>
      <polygon class="st5" points="247.7 889.1 246.4 849.9 746.5 492.1 747.8 531.3 247.7 889.1"/>
    </g>
    <path class="st5" d="M370.8,703.8l-70.8,50.7c-4.6,3.3-10.9.1-11.1-5.5l-1.4-42.7c0-2.4,1-4.6,2.9-6l70.9-50.7c4.6-3.3,10.9-.1,11.1,5.5l1.4,42.7c0,2.3-1,4.6-2.9,5.9Z"/>
  </g>
</svg>