<?xml version="1.0" encoding="UTF-8"?>
<svg id="Layer_1" xmlns="http://www.w3.org/2000/svg" version="1.1" viewBox="0 0 1080 1080">
  <!-- Generator: Adobe Illustrator 29.6.1, SVG Export Plug-In . SVG Version: 2.1.1 Build 9)  -->
  <defs>
    <style>
      .st0 {
        stroke: #fff;
        stroke-width: 4.4px;
      }

      .st0, .st1, .st2, .st3, .st4, .st5 {
        stroke-miterlimit: 10;
      }

      .st0, .st3, .st4 {
        fill: none;
      }

      .st6 {
        fill: #d15a77;
      }

      .st7 {
        isolation: isolate;
      }

      .st1 {
        stroke: #ebebeb;
        stroke-width: 13.7px;
      }

      .st1, .st8, .st2 {
        fill: #fff;
      }

      .st9 {
        fill: #b01e3f;
      }

      .st10 {
        fill: #5b111f;
      }

      .st2 {
        font-family: Gotham-Black, 'Gotham Black';
        font-size: 210.6px;
        font-weight: 800;
        stroke-width: 5.4px;
      }

      .st2, .st3, .st4, .st5 {
        stroke: #5b111f;
      }

      .st3 {
        stroke-width: 7.3px;
      }

      .st4, .st5 {
        stroke-width: 3.6px;
      }

      .st11 {
        fill: #ae1e3e;
      }

      .st5, .st12 {
        fill: #1a1a1a;
      }
    </style>
  </defs>
  <g>
    <path class="st1" d="M136.5,279.9c-13.1,19.9-21.8,41.7-26.5,64.3l-35.9,3.4v69.5s35.9,3.4,35.9,3.4c4.7,22.5,13.5,44.4,26.5,64.3l-22.9,27.7,49.1,49.1,27.7-22.9c19.9,13.1,41.7,21.8,64.3,26.5l3.4,35.9h69.5s3.4-35.9,3.4-35.9c22.5-4.7,44.4-13.5,64.3-26.5l27.7,22.9,49.1-49.1-22.9-27.7c13.1-19.9,21.8-41.7,26.5-64.3l35.9-3.4v-69.5s-35.9-3.4-35.9-3.4c-4.7-22.5-13.5-44.4-26.5-64.3l22.9-27.7-49.1-49.1-27.7,22.9c-19.9-13.1-41.7-21.8-64.3-26.5l-3.4-35.9h-69.5s-3.4,35.9-3.4,35.9c-22.5,4.7-44.4,13.5-64.3,26.5l-27.7-22.9-49.1,49.1,22.9,27.7ZM359.3,315.8c36.7,36.7,36.7,96.3,0,133-36.7,36.7-96.3,36.7-133,0-36.7-36.7-36.7-96.3,0-133,36.7-36.7,96.3-36.7,133,0Z"/>
    <path class="st1" d="M630.9,507.9c-13.1,19.9-21.8,41.7-26.5,64.3l-35.9,3.4v69.5s35.9,3.4,35.9,3.4c4.7,22.5,13.5,44.4,26.5,64.3l-22.9,27.7,49.1,49.1,27.7-22.9c19.9,13.1,41.7,21.8,64.3,26.5l3.4,35.9h69.5s3.4-35.9,3.4-35.9c22.5-4.7,44.4-13.5,64.3-26.5l27.7,22.9,49.1-49.1-22.9-27.7c13.1-19.9,21.8-41.7,26.5-64.3l35.9-3.4v-69.5s-35.9-3.4-35.9-3.4c-4.7-22.5-13.5-44.4-26.5-64.3l22.9-27.7-49.1-49.1-27.7,22.9c-19.9-13.1-41.7-21.8-64.3-26.5l-3.4-35.9h-69.5s-3.4,35.9-3.4,35.9c-22.5,4.7-44.4,13.5-64.3,26.5l-27.7-22.9-49.1,49.1,22.9,27.7ZM853.7,543.7c36.7,36.7,36.7,96.3,0,133-36.7,36.7-96.3,36.7-133,0-36.7-36.7-36.7-96.3,0-133,36.7-36.7,96.3-36.7,133,0Z"/>
  </g>
  <g>
    <g>
      <g>
        <path class="st12" d="M580.7,887.3l-43.2-1.1c-56.4,0-104.7-7.7-143.5-22.7-35.1-13.7-58.7-48.4-58.7-86.4v-353.9c0-73.3,27.5-91.6,54-109.3,6.2-4.1,12.1-8.1,17.6-12.7,26.8-22.6,23-31.4,22.9-31.5-.3-.6-.3-1.3,0-1.8.3-.5.9-.9,1.5-.9h0l255.4,1.1c.7,0,1.3.4,1.6.9.3.6.3,1.2,0,1.8-.1.3-3.6,9.2,22.9,31.5,5.5,4.6,11.4,8.5,17.6,12.7,26.6,17.7,54,36,54,109.3v353.9c0,38-23.6,72.7-58.7,86.4-38.7,15.1-87,22.7-143.5,22.7ZM433.7,270.6c.2,4.6-2.6,15-24.5,33.3-5.6,4.7-11.9,8.9-17.9,12.9-25.8,17.2-52.4,34.9-52.4,106.3v353.9c0,36.5,22.7,69.9,56.4,83,38.3,14.9,86.2,22.5,142.2,22.5l43.2,1.1c56,0,103.8-7.6,142.2-22.5,33.7-13.1,56.4-46.5,56.4-83v-353.9c0-71.3-26.6-89.1-52.4-106.3-6-4-12.3-8.2-17.9-12.9-21.8-18.4-24.7-28.8-24.5-33.4l-250.9-1.1Z"/>
        <path class="st4" d="M580.7,887.3l-43.2-1.1c-56.4,0-104.7-7.7-143.5-22.7-35.1-13.7-58.7-48.4-58.7-86.4v-353.9c0-73.3,27.5-91.6,54-109.3,6.2-4.1,12.1-8.1,17.6-12.7,26.8-22.6,23-31.4,22.9-31.5-.3-.6-.3-1.3,0-1.8.3-.5.9-.9,1.5-.9h0l255.4,1.1c.7,0,1.3.4,1.6.9.3.6.3,1.2,0,1.8-.1.3-3.6,9.2,22.9,31.5,5.5,4.6,11.4,8.5,17.6,12.7,26.6,17.7,54,36,54,109.3v353.9c0,38-23.6,72.7-58.7,86.4-38.7,15.1-87,22.7-143.5,22.7ZM433.7,270.6c.2,4.6-2.6,15-24.5,33.3-5.6,4.7-11.9,8.9-17.9,12.9-25.8,17.2-52.4,34.9-52.4,106.3v353.9c0,36.5,22.7,69.9,56.4,83,38.3,14.9,86.2,22.5,142.2,22.5l43.2,1.1c56,0,103.8-7.6,142.2-22.5,33.7-13.1,56.4-46.5,56.4-83v-353.9c0-71.3-26.6-89.1-52.4-106.3-6-4-12.3-8.2-17.9-12.9-21.8-18.4-24.7-28.8-24.5-33.4l-250.9-1.1Z"/>
      </g>
      <path class="st5" d="M578.8,864.4l-39.3-1c-51.4,0-95.3-7-130.6-20.7-32-12.5-53.5-44.1-53.5-78.8v-280c0-1,.8-1.8,1.8-1.8s1.8.8,1.8,1.8v280c0,33.2,20.6,63.5,51.2,75.4,34.8,13.6,78.4,20.5,129.3,20.5l39.3,1c50.9,0,94.4-6.9,129.3-20.5,30.6-11.9,51.2-42.2,51.2-75.4v-280c0-1,.8-1.8,1.8-1.8s1.8.8,1.8,1.8v280c0,34.6-21.5,66.3-53.5,78.8-35.3,13.7-79.2,20.7-130.6,20.7Z"/>
      <g>
        <g class="st7">
          <path class="st9" d="M699,250.8l-.2,15.4h0c0,.3,0,.6-.2.8-.1.4-.3.7-.6,1-.5.6-1.3,1.2-2.3,1.8-1,.6-2.3,1.2-3.8,1.7h0c-.5.2-1,.4-1.6.6-.4.2-.8.3-1.3.4-.4.1-.9.2-1.3.4-.3.1-.7.2-1,.3h0c-2.9.8-6.3,1.6-10.2,2.3-1.1.2-2.2.4-3.3.6-3.3.6-7,1.1-11,1.6-3,.4-6.1.7-9.4,1-10.2,1-21.9,1.9-34.9,2.5-64.7,3-140.8-.8-178.3-8.6-3.3-.7-6.3-1.4-9-2.2-.5-.1-.9-.2-1.3-.4-.8-.2-1.6-.5-2.4-.7-6.6-2.2-9.7-4.4-9.7-6.6l.2-15.5c4,1,8.5,2,13.4,2.8,44.3,8,125.6,11.8,195.2,8.5,32.5-1.5,57.5-4.3,73.1-7.9Z"/>
          <path class="st9" d="M718.5,169.9l-.9,71.8c0,3.3-6.5,6.4-18.6,9.1-15.6,3.5-40.5,6.3-73.1,7.9-69.6,3.3-150.9-.5-195.2-8.5-5-.9-9.5-1.8-13.4-2.8-1.1-.3-2.2-.6-3.2-.9-10.3-2.9-15.2-5.8-15.1-8.7l.9-71.7c0,.9.5,1.8,1.4,2.7.2.2.4.4.6.6.5.4,1,.7,1.6,1.1.2.2.5.3.7.4.5.3,1.1.6,1.7.8.3.1.6.3.9.4.9.4,1.8.7,2.8,1.1,1,.4,2.1.7,3.3,1.1.6.2,1.2.4,1.9.6,37.4,10.4,132.2,15.9,211.8,12.2,39.7-1.9,68-5.7,82-10.3.4-.1.9-.3,1.3-.4,5.5-2,8.4-4.1,8.4-6.3Z"/>
          <path class="st10" d="M718.5,169.9c0,2.2-2.9,4.3-8.4,6.3-.4.2-.9.3-1.3.4-13.9,4.6-42.3,8.4-82,10.3-79.6,3.7-174.5-1.7-211.8-12.2-.6-.2-1.3-.4-1.9-.6-1.2-.4-2.3-.7-3.3-1.1-1-.4-2-.7-2.8-1.1-.3-.1-.6-.3-.9-.4-.6-.3-1.2-.6-1.7-.8-.2-.1-.5-.2-.7-.4-.6-.4-1.2-.7-1.6-1.1-.2-.2-.5-.4-.6-.6-1-.9-1.4-1.8-1.4-2.7,0-7.5,33.9-14.3,91.6-17,79.6-3.7,174.5,1.7,211.8,12.2,10.3,2.9,15.2,5.8,15.1,8.7Z"/>
        </g>
        <g class="st7">
          <path class="st5" d="M571.7,284.1c-51.5,0-103.4-3.6-132.6-9.7-3.3-.7-6.4-1.4-9.1-2.2-.5-.1-1-.3-1.5-.4-.8-.2-1.6-.5-2.3-.7-7.5-2.5-11-5.1-10.9-8.3l.2-15.5c0-.6.3-1.1.7-1.4.4-.3,1-.5,1.6-.3,4,1,8.5,1.9,13.3,2.8,44.8,8.1,126.8,11.7,194.8,8.5,31.5-1.5,56.6-4.2,72.7-7.8.5-.1,1.1,0,1.5.4.4.4.7.9.7,1.4l-.2,15.4c0,.5,0,1-.3,1.4-.2.5-.5,1.1-1,1.6-.6.7-1.6,1.5-2.8,2.2-1.2.6-2.5,1.3-4,1.9,0,0-.2,0-.2,0-.5.2-1,.3-1.5.5-.1,0-.4.2-.7.2l-1.9.6c-.2,0-.5.2-.9.2,0,0-.1,0-.2,0-3,.8-6.5,1.6-10.3,2.3-1.1.2-2.2.4-3.4.6-3.3.6-7,1.1-11,1.6-3,.4-6.2.7-9.5,1-10.5,1.1-22.3,1.9-35,2.5-14.9.7-30.5,1-46.1,1ZM419.1,249.6l-.2,13.2s0,2,8.4,4.8c.7.2,1.5.5,2.3.7.5.2.9.3,1.3.4,2.7.7,5.7,1.5,8.9,2.2,37.8,7.9,114.2,11.5,177.8,8.6,12.7-.6,24.4-1.4,34.8-2.5,3.3-.3,6.4-.7,9.4-1,3.9-.5,7.6-1,10.9-1.6,1.2-.2,2.3-.4,3.3-.6,3.6-.7,6.8-1.4,9.7-2.2.1,0,.3-.1.5-.1.3,0,.5-.1.7-.2l1.9-.6c.2,0,.4-.1.6-.2.7-.2,1.2-.4,1.7-.6,0,0,0,0,.1,0,1.3-.5,2.5-1,3.4-1.6,1-.6,1.6-1.1,1.8-1.4.2-.2.3-.3.3-.4l.2-13.4c-16.3,3.4-40.8,6-71.1,7.4-68.3,3.2-150.5-.4-195.6-8.5-4-.7-7.8-1.5-11.3-2.3Z"/>
          <g>
            <path class="st12" d="M573.9,261.6c-54.3,0-109.5-3.6-143.4-9.7-4.9-.8-9.5-1.8-13.6-2.8-.7-.2-1.4-.4-2-.5l-1.2-.3c-11.3-3.2-16.5-6.5-16.5-10.5l.9-71.7c0-1,.8-1.8,1.8-1.8h0c1,0,1.8.8,1.8,1.8s.5,1,.9,1.4c.2.2.3.3.5.4.4.4.9.7,1.5,1,.2.1.4.2.6.3.5.3,1.1.5,1.6.8h.3c.2.2.3.3.5.3.9.4,1.8.7,2.8,1.1,1,.4,2.1.7,3.2,1l1.9.6c37.2,10.4,132,15.8,211.3,12.1,38.1-1.8,67.1-5.4,81.5-10.2.5-.1.9-.3,1.2-.4,7-2.5,7.2-4.4,7.2-4.6,0-1,1-1.7,1.8-1.8,1,0,1.8.8,1.8,1.8l-.9,71.8c0,4.4-6.4,7.8-20,10.9-16.3,3.7-41.7,6.4-73.4,7.9-16.8.8-34.4,1.2-52.2,1.2ZM401.6,171.3l-.8,66.5c0,.3.4,3.2,13.8,6.9l1.2.3c.6.2,1.3.4,2,.5,4,1,8.5,2,13.3,2.8,44.8,8.1,126.8,11.7,194.8,8.5,31.5-1.5,56.6-4.2,72.7-7.8,16.6-3.8,17.2-7,17.2-7.4l.8-66.5c-1.5,1-3.4,1.9-5.9,2.8-.5.2-.9.3-1.4.5-14.6,4.9-43.9,8.5-82.4,10.4-79.6,3.7-174.9-1.7-212.4-12.2l-1.8-.5c-1.3-.4-2.4-.7-3.5-1.1-1.1-.4-2.1-.8-3-1.1-.1,0-.4-.1-.6-.2,0,0-.3-.2-.4-.2-.6-.3-1.2-.6-1.8-.9-.2-.1-.5-.3-.8-.5-.3-.2-.7-.4-1-.6Z"/>
            <path class="st4" d="M573.9,261.6c-54.3,0-109.5-3.6-143.4-9.7-4.9-.8-9.5-1.8-13.6-2.8-.7-.2-1.4-.4-2-.5l-1.2-.3c-11.3-3.2-16.5-6.5-16.5-10.5l.9-71.7c0-1,.8-1.8,1.8-1.8h0c1,0,1.8.8,1.8,1.8s.5,1,.9,1.4c.2.2.3.3.5.4.4.4.9.7,1.5,1,.2.1.4.2.6.3.5.3,1.1.5,1.6.8h.3c.2.2.3.3.5.3.9.4,1.8.7,2.8,1.1,1,.4,2.1.7,3.2,1l1.9.6c37.2,10.4,132,15.8,211.3,12.1,38.1-1.8,67.1-5.4,81.5-10.2.5-.1.9-.3,1.2-.4,7-2.5,7.2-4.4,7.2-4.6,0-1,1-1.7,1.8-1.8,1,0,1.8.8,1.8,1.8l-.9,71.8c0,4.4-6.4,7.8-20,10.9-16.3,3.7-41.7,6.4-73.4,7.9-16.8.8-34.4,1.2-52.2,1.2ZM401.6,171.3l-.8,66.5c0,.3.4,3.2,13.8,6.9l1.2.3c.6.2,1.3.4,2,.5,4,1,8.5,2,13.3,2.8,44.8,8.1,126.8,11.7,194.8,8.5,31.5-1.5,56.6-4.2,72.7-7.8,16.6-3.8,17.2-7,17.2-7.4l.8-66.5c-1.5,1-3.4,1.9-5.9,2.8-.5.2-.9.3-1.4.5-14.6,4.9-43.9,8.5-82.4,10.4-79.6,3.7-174.9-1.7-212.4-12.2l-1.8-.5c-1.3-.4-2.4-.7-3.5-1.1-1.1-.4-2.1-.8-3-1.1-.1,0-.4-.1-.6-.2,0,0-.3-.2-.4-.2-.6-.3-1.2-.6-1.8-.9-.2-.1-.5-.3-.8-.5-.3-.2-.7-.4-1-.6Z"/>
          </g>
          <path class="st10" d="M574.6,189.9c-65.3,0-130.6-5.2-160.1-13.4l-1.8-.5c-1-.3-1.8-.6-2.6-.8l-.9-.3c-1.1-.4-2.1-.8-3-1.2-.1,0-.4-.1-.6-.2,0,0-.3-.2-.4-.2-.7-.3-1.2-.6-1.8-.9-.2-.1-.5-.3-.8-.5-.7-.4-1.3-.8-1.8-1.2-.3-.2-.5-.4-.8-.7-1.3-1.2-2-2.6-2-4,0-13.1,65.3-17.5,93.4-18.8,79.7-3.7,175,1.8,212.4,12.2,11.3,3.2,16.5,6.5,16.5,10.5h0c0,3.1-3.1,5.6-9.6,8-.5.2-.9.3-1.4.5-14.6,4.9-43.9,8.5-82.4,10.4-17,.8-34.6,1.2-52.3,1.2ZM543.8,149.6c-17.7,0-35.3.4-52.3,1.2-65.5,3.1-89.9,10.9-89.9,15.2s.5,1,.9,1.4c.2.2.3.3.5.4.4.4.9.7,1.5,1,.2.1.4.2.6.3.5.3,1.1.5,1.6.8h.3c.2.2.3.3.5.3.9.4,1.8.7,2.8,1.1l.8.3c.8.3,1.6.5,2.4.8l1.8.5c37.2,10.4,132,15.8,211.3,12.1,38.1-1.8,67.1-5.4,81.5-10.2.5-.1.9-.3,1.2-.4,6.9-2.5,7.2-4.4,7.2-4.6,0-.2-.2-3.1-13.8-6.9-29.2-8.2-94.1-13.3-159-13.3ZM718.5,169.9h0,0Z"/>
        </g>
        <g>
          <path class="st12" d="M415,248c-1,0-1.8-.8-1.8-1.8v-71.5c0-1,.8-1.8,1.8-1.8s1.8.8,1.8,1.8v71.5c0,1-.8,1.8-1.8,1.8Z"/>
          <path class="st4" d="M415,248c-1,0-1.8-.8-1.8-1.8v-71.5c0-1,.8-1.8,1.8-1.8s1.8.8,1.8,1.8v71.5c0,1-.8,1.8-1.8,1.8Z"/>
        </g>
        <g>
          <path class="st12" d="M558.7,261.6c-1,0-1.8-.8-1.8-1.8v-71.7c0-1,.8-1.8,1.8-1.8s1.8.8,1.8,1.8v71.7c0,1-.8,1.8-1.8,1.8Z"/>
          <path class="st4" d="M558.7,261.6c-1,0-1.8-.8-1.8-1.8v-71.7c0-1,.8-1.8,1.8-1.8s1.8.8,1.8,1.8v71.7c0,1-.8,1.8-1.8,1.8Z"/>
        </g>
        <g>
          <path class="st12" d="M478.8,258c-1,0-1.8-.8-1.8-1.8v-71.9c0-1,.8-1.8,1.8-1.8s1.8.8,1.8,1.8v71.9c0,1-.8,1.8-1.8,1.8Z"/>
          <path class="st4" d="M478.8,258c-1,0-1.8-.8-1.8-1.8v-71.9c0-1,.8-1.8,1.8-1.8s1.8.8,1.8,1.8v71.9c0,1-.8,1.8-1.8,1.8Z"/>
        </g>
        <g>
          <path class="st12" d="M519.3,260.3c-1,0-1.8-.8-1.8-1.8v-71.7c0-1,.8-1.8,1.8-1.8s1.8.8,1.8,1.8v71.7c0,1-.8,1.8-1.8,1.8Z"/>
          <path class="st4" d="M519.3,260.3c-1,0-1.8-.8-1.8-1.8v-71.7c0-1,.8-1.8,1.8-1.8s1.8.8,1.8,1.8v71.7c0,1-.8,1.8-1.8,1.8Z"/>
        </g>
        <g>
          <path class="st12" d="M442.8,253.8c-1,0-1.8-.8-1.8-1.8v-71.8c0-1,.8-1.8,1.8-1.8s1.8.8,1.8,1.8v71.8c0,1-.8,1.8-1.8,1.8Z"/>
          <path class="st4" d="M442.8,253.8c-1,0-1.8-.8-1.8-1.8v-71.8c0-1,.8-1.8,1.8-1.8s1.8.8,1.8,1.8v71.8c0,1-.8,1.8-1.8,1.8Z"/>
        </g>
        <g>
          <path class="st12" d="M703.1,251c-1,0-1.8-.8-1.8-1.8v-70.5c0-1,.8-1.8,1.8-1.8s1.8.8,1.8,1.8v70.5c0,1-.8,1.8-1.8,1.8Z"/>
          <path class="st4" d="M703.1,251c-1,0-1.8-.8-1.8-1.8v-70.5c0-1,.8-1.8,1.8-1.8s1.8.8,1.8,1.8v70.5c0,1-.8,1.8-1.8,1.8Z"/>
        </g>
        <g>
          <path class="st12" d="M638,259.5c-1,0-1.8-.8-1.8-1.8v-71c0-1,.8-1.8,1.8-1.8s1.8.8,1.8,1.8v71c0,1-.8,1.8-1.8,1.8Z"/>
          <path class="st4" d="M638,259.5c-1,0-1.8-.8-1.8-1.8v-71c0-1,.8-1.8,1.8-1.8s1.8.8,1.8,1.8v71c0,1-.8,1.8-1.8,1.8Z"/>
        </g>
        <g>
          <path class="st12" d="M597.5,261.3c-1,0-1.8-.8-1.8-1.8v-71.7c0-1,.8-1.8,1.8-1.8s1.8.8,1.8,1.8v71.7c0,1-.8,1.8-1.8,1.8Z"/>
          <path class="st4" d="M597.5,261.3c-1,0-1.8-.8-1.8-1.8v-71.7c0-1,.8-1.8,1.8-1.8s1.8.8,1.8,1.8v71.7c0,1-.8,1.8-1.8,1.8Z"/>
        </g>
        <g>
          <path class="st12" d="M674.1,256c-1,0-1.8-.8-1.8-1.8v-71c0-1,.8-1.8,1.8-1.8s1.8.8,1.8,1.8v71c0,1-.8,1.8-1.8,1.8Z"/>
          <path class="st4" d="M674.1,256c-1,0-1.8-.8-1.8-1.8v-71c0-1,.8-1.8,1.8-1.8s1.8.8,1.8,1.8v71c0,1-.8,1.8-1.8,1.8Z"/>
        </g>
        <rect class="st8" x="497.4" y="158.4" width="113.2" height="15.6"/>
      </g>
      <path class="st5" d="M574.7,313.6c-66.8,0-128-9.5-128.9-9.6-1-.2-1.7-1.1-1.5-2.1.2-1,1.1-1.7,2.1-1.5,1.4.2,138.6,21.4,225.8,0,1-.2,2,.4,2.2,1.3.2,1-.4,2-1.3,2.2-29.5,7.2-64.6,9.6-98.3,9.6Z"/>
      <path class="st5" d="M369.4,426.7c-.9,0-1.7-.7-1.8-1.7,0-.8-6.1-79.9,59.4-95.4,1-.2,2,.4,2.2,1.3.2,1-.4,2-1.3,2.2-62.4,14.8-56.7,90.8-56.6,91.6,0,1-.7,1.9-1.7,2,0,0-.1,0-.2,0Z"/>
      <g>
        <ellipse class="st8" cx="560.7" cy="795.4" rx="173.1" ry="54.2"/>
        <ellipse class="st3" cx="560.7" cy="795.4" rx="173.1" ry="54.2"/>
      </g>
    </g>
    <g>
      <g>
        <path class="st10" d="M733.5,564.8c0,18.3-64,23.7-70.6,39.7-6.8,16.5,34.3,65.5,21.9,78-12.4,12.4-61.5-28.7-78-21.9-15.9,6.6-21.4,70.6-39.7,70.6-18.3,0-23.7-64-39.7-70.6-16.5-6.8-65.5,34.3-78,21.9s28.7-61.5,21.9-78c-6.6-15.9-70.6-21.4-70.6-39.7s64-23.7,70.6-39.7c6.8-16.5-34.3-65.5-21.9-78,12.4-12.4,61.5,28.7,78,21.9,15.9-6.6,21.4-70.6,39.7-70.6s23.7,64,39.7,70.6c16.5,6.8,65.5-34.3,78-21.9,12.4,12.4-28.7,61.5-21.9,78,6.6,15.9,70.6,21.4,70.6,39.7Z"/>
        <g>
          <path class="st11" d="M717.6,548.9c0,18.3-64,23.7-70.6,39.7-6.8,16.5,34.3,65.5,21.9,78-12.4,12.4-61.5-28.7-78-21.9-15.9,6.6-21.4,70.6-39.7,70.6s-23.7-64-39.7-70.6c-16.5-6.8-65.5,34.3-78,21.9-12.4-12.4,28.7-61.5,21.9-78-6.6-15.9-70.6-21.4-70.6-39.7s64-23.7,70.6-39.7c6.8-16.5-34.3-65.5-21.9-78s61.5,28.7,78,21.9c15.9-6.6,21.4-70.6,39.7-70.6s23.7,64,39.7,70.6,65.5-34.3,78-21.9c12.4,12.4-28.7,61.5-21.9,78,6.6,15.9,70.6,21.4,70.6,39.7Z"/>
          <path class="st0" d="M717.6,548.9c0,18.3-64,23.7-70.6,39.7-6.8,16.5,34.3,65.5,21.9,78-12.4,12.4-61.5-28.7-78-21.9-15.9,6.6-21.4,70.6-39.7,70.6s-23.7-64-39.7-70.6c-16.5-6.8-65.5,34.3-78,21.9-12.4-12.4,28.7-61.5,21.9-78-6.6-15.9-70.6-21.4-70.6-39.7s64-23.7,70.6-39.7c6.8-16.5-34.3-65.5-21.9-78s61.5,28.7,78,21.9c15.9-6.6,21.4-70.6,39.7-70.6s23.7,64,39.7,70.6,65.5-34.3,78-21.9c12.4,12.4-28.7,61.5-21.9,78,6.6,15.9,70.6,21.4,70.6,39.7Z"/>
        </g>
      </g>
      <text class="st2" transform="translate(495.7 622.9)"><tspan x="0" y="0">?</tspan></text>
    </g>
    <g>
      <g class="st7">
        <g>
          <path class="st11" d="M380.3,654.2c-14.9-11.6-56.2-18.9-100.3-18.9s-22.3.4-33.3,1.4c-44,3.8-71.8,14.6-71.7,26.2,0,.7.1,1.4.3,2.2,0,.4.3.7.4,1.1.9,1.9,2.4,3.7,4.8,5.5,4.6,3.6,11.9,6.8,20.9,9.5,1.8.5,3.7,1.1,5.7,1.6,2,.5,4,1,6.1,1.4s4.2.9,6.4,1.3h0c2.2.4,4.5.8,6.8,1.2h0c2.3.3,4.7.7,7.1,1h0c7.2,1,14.9,1.7,22.8,2.2,0,0,0,0,0,0,7.9.5,16.1.7,24.3.7s8.2,0,12.3-.2h.5c2.6,0,5.2-.2,7.9-.3,4.2-.2,8.5-.5,12.7-.9,17.8-1.6,33-4.3,44.8-7.7,2.7-.8,5.2-1.6,7.6-2.5,3.9-1.4,7.2-3,10-4.6.9-.5,1.7-1,2.5-1.6.4-.3.8-.5,1.2-.8.7-.5,1.3-1,1.9-1.6,1.1-1,2-2.1,2.6-3.1.4-.7.7-1.4,1-2.1.2-.7.3-1.4.3-2.2,0-2.9-1.8-5.9-5.6-8.8ZM307.8,684.2c-3.5.3-7.1.6-10.7.7-5.4.3-10.9.4-16.2.4-35.9,0-69.4-5.9-81.5-15.3-15.1-11.7,9-24.4,53.7-28.4,4.7-.4,9.3-.7,14-.9,4.3-.2,8.6-.3,12.9-.3,35.8,0,69.4,5.9,81.5,15.3,15.1,11.7-9,24.4-53.6,28.4Z"/>
          <path class="st6" d="M307.8,684.2c-3.5.3-7.1.6-10.7.7-5.4.3-10.9.4-16.2.4-35.9,0-69.4-5.9-81.5-15.3-15.1-11.7,9-24.4,53.7-28.4,4.7-.4,9.3-.7,14-.9,4.3-.2,8.6-.3,12.9-.3,35.8,0,69.4,5.9,81.5,15.3,15.1,11.7-9,24.4-53.6,28.4Z"/>
        </g>
        <path class="st11" d="M385.9,663v22.2c0,11.5-27.8,22.3-71.8,26.1-55.1,4.8-115-3-133.6-17.5-3.8-2.9-5.6-5.9-5.6-8.8v-22.1c0,2.9,1.8,5.9,5.6,8.8,18.6,14.5,78.5,22.3,133.6,17.5,44-3.8,71.7-14.6,71.7-26.1Z"/>
      </g>
      <g class="st7">
        <path class="st11" d="M385.8,685.1v22.2c0,11.5-27.8,22.3-71.7,26.1-55.1,4.8-115-3-133.6-17.5-3.8-2.9-5.6-5.9-5.5-8.9v-22.2c0,2.9,1.8,5.9,5.6,8.9,18.6,14.4,78.5,22.3,133.6,17.5,43.9-3.8,71.7-14.6,71.7-26.1Z"/>
      </g>
      <path class="st11" d="M385.9,707.2v22.2c0,11.5-27.8,22.3-71.8,26.1-55.1,4.8-115-3-133.6-17.5-3.8-2.9-5.6-5.9-5.6-8.8v-22.1c0,2.9,1.8,5.9,5.6,8.8,18.6,14.5,78.5,22.3,133.6,17.5,44-3.8,71.7-14.6,71.7-26.1Z"/>
      <g class="st7">
        <path class="st11" d="M385.9,729.3v22.2c0,11.5-27.8,22.3-71.7,26.1-55.1,4.8-115-3-133.6-17.5-3.8-2.9-5.6-5.9-5.5-8.9v-22.2c0,2.9,1.8,5.9,5.6,8.9,18.6,14.4,78.5,22.3,133.6,17.5,43.9-3.8,71.7-14.6,71.7-26.1Z"/>
      </g>
      <path class="st11" d="M385.9,751.3v22.2c0,11.5-27.8,22.3-71.8,26.1-55.1,4.8-115-3-133.6-17.5-3.8-2.9-5.6-5.9-5.6-8.8v-22.1c0,2.9,1.8,5.9,5.6,8.8,18.6,14.5,78.5,22.3,133.6,17.5,44-3.8,71.7-14.6,71.7-26.1Z"/>
      <g class="st7">
        <path class="st11" d="M385.9,773.4v22.2c0,11.5-27.8,22.3-71.7,26.1-55.1,4.8-115-3-133.6-17.5-3.8-2.9-5.6-5.9-5.5-8.9v-22.2c0,2.9,1.8,5.9,5.6,8.9,18.6,14.4,78.5,22.3,133.6,17.5,43.9-3.8,71.7-14.6,71.7-26.1Z"/>
      </g>
      <g class="st7">
        <g>
          <path class="st10" d="M281,691.7c-44.4,0-86.2-7.4-101.2-19.1-6.2-4.8-6.5-9.3-5.6-12.2,3.4-11.5,31.8-21.3,72.4-24.8,55.3-4.8,115.7,3.1,134.4,17.7,6.2,4.8,6.5,9.3,5.6,12.2-3.4,11.5-31.8,21.3-72.4,24.8-11,1-22.2,1.4-33.2,1.4ZM280,636.5c-11,0-22.2.5-33.3,1.4-45.1,3.9-67.8,14.5-70.4,23.2-.9,3.2.7,6.5,4.8,9.7,18.4,14.3,78,22,132.8,17.2,45.1-3.9,67.8-14.5,70.4-23.2.9-3.2-.7-6.5-4.8-9.7-14.7-11.4-55.7-18.7-99.6-18.7Z"/>
          <path class="st10" d="M280.9,686.5c-36.1,0-70-6-82.3-15.6-5.1-4-5.4-7.7-4.6-10.1,2.8-9.6,25.4-17.4,58.9-20.3,44.9-3.9,93.9,2.5,109.2,14.4,5.1,4,5.4,7.7,4.7,10.1-2.8,9.6-25.4,17.4-58.9,20.3-8.9.8-18,1.1-26.9,1.1ZM280.1,641.7c-8.9,0-18,.4-27,1.2-36.4,3.2-54.8,11.7-56.9,18.7-.7,2.5.6,5.1,3.8,7.6,14.9,11.6,63.2,17.8,107.6,13.9,36.4-3.2,54.8-11.7,56.9-18.7.7-2.5-.6-5.1-3.8-7.6-11.9-9.2-45.1-15.1-80.6-15.1Z"/>
        </g>
        <path class="st10" d="M281,713.9c-44.4,0-86.1-7.4-101.2-19.1-4-3.1-6-6.4-6-9.7v-22.2c0-.6.6-1.2,1.2-1.2h0c.6,0,1.2.5,1.2,1.2,0,2.6,1.7,5.3,5.1,7.9,18.4,14.3,78,22,132.8,17.2,41.6-3.6,70.7-13.9,70.7-25,0-.6.5-1.2,1.2-1.2h0c.6,0,1.2.5,1.2,1.2v22.2c0,12.7-28.6,23.4-72.8,27.3-11,1-22.2,1.4-33.2,1.4ZM176.1,669v16c0,2.6,1.7,5.3,5.1,7.9,18.4,14.3,78,22,132.8,17.2,41.6-3.6,70.7-13.9,70.7-25v-16c-7.6,9.9-33.6,17.9-70.5,21.1-55.3,4.8-115.6-3.1-134.4-17.7-1.5-1.2-2.7-2.4-3.7-3.6Z"/>
      </g>
      <g class="st7">
        <path class="st10" d="M281.1,736c-44.5,0-86.2-7.4-101.3-19.1-4-3.1-6-6.4-6-9.8v-22.2c0-.6.5-1.2,1.2-1.2h0c.6,0,1.2.5,1.2,1.2,0,2.6,1.7,5.3,5.1,7.9,18.4,14.3,78,22,132.8,17.2,48.5-4.2,70.6-15.9,70.7-25,0-.6.5-1.2,1.2-1.2h0c.6,0,1.2.5,1.2,1.2v22.2c0,12.7-28.6,23.4-72.8,27.3-11,1-22.1,1.4-33.1,1.4ZM176.1,691.1v16c0,2.6,1.7,5.3,5.1,7.9,18.4,14.3,78,22,132.8,17.2,48.5-4.2,70.6-15.9,70.7-25v-16c-7.6,9.9-33.6,17.9-70.4,21.1-55.3,4.8-115.6-3.1-134.4-17.7-1.5-1.2-2.7-2.4-3.7-3.6Z"/>
      </g>
      <path class="st10" d="M281,758.1c-44.4,0-86.1-7.4-101.2-19.1-4-3.1-6-6.4-6-9.7v-22.2c0-.6.6-1.2,1.2-1.2h0c.6,0,1.2.5,1.2,1.2,0,2.6,1.7,5.3,5.1,7.9,18.4,14.3,78,22,132.8,17.2,41.6-3.6,70.7-13.9,70.7-25,0-.6.5-1.2,1.2-1.2h0c.6,0,1.2.5,1.2,1.2v22.2c0,12.7-28.6,23.4-72.8,27.3-11,1-22.2,1.4-33.2,1.4ZM176.1,713.1v16c0,2.6,1.7,5.3,5.1,7.9,18.4,14.3,78,22,132.8,17.2,41.6-3.6,70.7-13.9,70.7-25v-16c-7.6,9.9-33.6,17.9-70.5,21.1-55.3,4.9-115.6-3.1-134.4-17.7-1.5-1.2-2.7-2.4-3.7-3.6Z"/>
      <g class="st7">
        <path class="st10" d="M281.1,780.2c-44.5,0-86.2-7.4-101.3-19.1-4-3.1-6-6.4-6-9.8v-22.2c0-.6.5-1.2,1.2-1.2h0c.6,0,1.2.5,1.2,1.2,0,2.6,1.7,5.3,5.1,7.9,18.4,14.3,78,22,132.8,17.2,48.5-4.2,70.6-15.9,70.7-25,0-.6.5-1.2,1.2-1.2h0c.6,0,1.2.5,1.2,1.2v22.2c0,12.7-28.6,23.4-72.8,27.3-11,1-22.1,1.4-33.1,1.4ZM176.1,735.2v16c0,2.6,1.7,5.3,5.1,7.9,18.4,14.3,78,22,132.8,17.2,48.5-4.2,70.6-15.9,70.7-25v-16c-7.6,9.9-33.6,17.9-70.4,21.1-55.3,4.8-115.6-3.1-134.4-17.7-1.5-1.2-2.7-2.4-3.7-3.6Z"/>
      </g>
      <path class="st10" d="M281,802.2c-44.4,0-86.1-7.4-101.2-19.1-4-3.1-6-6.4-6-9.7v-22.2c0-.6.6-1.2,1.2-1.2h0c.6,0,1.2.5,1.2,1.2,0,2.6,1.7,5.3,5.1,7.9,18.4,14.3,78,22,132.8,17.2,41.6-3.6,70.7-13.9,70.7-25,0-.6.5-1.2,1.2-1.2h0c.6,0,1.2.5,1.2,1.2v22.2c0,12.7-28.6,23.4-72.8,27.3-11,1-22.2,1.4-33.2,1.4ZM176.1,757.2v16c0,2.6,1.7,5.3,5.1,7.9,18.4,14.3,78,22,132.8,17.2,41.6-3.6,70.7-13.9,70.7-25v-16c-7.6,9.9-33.6,17.9-70.5,21.1-55.3,4.8-115.6-3.1-134.4-17.7-1.5-1.2-2.7-2.4-3.7-3.6Z"/>
      <g class="st7">
        <path class="st10" d="M281.1,824.2c-44.5,0-86.2-7.4-101.3-19.1-4-3.1-6-6.4-6-9.8v-22.2c0-.6.5-1.2,1.2-1.2h0c.6,0,1.2.5,1.2,1.2,0,2.6,1.7,5.3,5.1,7.9,18.4,14.3,78,22,132.8,17.2,48.5-4.2,70.6-15.9,70.7-25,0-.6.5-1.2,1.2-1.2h0c.6,0,1.2.5,1.2,1.2v22.2c0,12.7-28.6,23.4-72.8,27.3-11,1-22.1,1.4-33.1,1.4ZM176.1,779.3v16c0,2.6,1.7,5.3,5.1,7.9,18.4,14.3,78,22,132.8,17.2,48.5-4.2,70.6-15.9,70.7-25v-16c-7.6,9.9-33.6,17.9-70.4,21.1-55.3,4.8-115.6-3.1-134.4-17.7-1.5-1.2-2.7-2.4-3.7-3.6Z"/>
      </g>
      <path class="st11" d="M385.5,795.4v22.2c0,11.5-27.8,22.3-71.8,26.1-55.1,4.8-115-3-133.6-17.5-3.8-2.9-5.6-5.9-5.6-8.8v-22.1c0,2.9,1.8,5.9,5.6,8.8,18.6,14.5,78.5,22.3,133.6,17.5,44-3.8,71.7-14.6,71.7-26.1Z"/>
      <g class="st7">
        <path class="st11" d="M385.5,817.5v22.2c0,11.5-27.8,22.3-71.7,26.1-55.1,4.8-115-3-133.6-17.5-3.8-2.9-5.6-5.9-5.5-8.9v-22.2c0,2.9,1.8,5.9,5.6,8.9,18.6,14.4,78.5,22.3,133.6,17.5,43.9-3.8,71.7-14.6,71.7-26.1Z"/>
      </g>
      <path class="st11" d="M385.5,839.5v22.2c0,11.5-27.8,22.3-71.8,26.1-55.1,4.8-115-3-133.6-17.5-3.8-2.9-5.6-5.9-5.6-8.8v-22.1c0,2.9,1.8,5.9,5.6,8.8,18.6,14.5,78.5,22.3,133.6,17.5,44-3.8,71.7-14.6,71.7-26.1Z"/>
      <g class="st7">
        <path class="st11" d="M385.5,861.6v22.2c0,11.5-27.8,22.3-71.7,26.1-55.1,4.8-115-3-133.6-17.5-3.8-2.9-5.6-5.9-5.5-8.9v-22.2c0,2.9,1.8,5.9,5.6,8.9,18.6,14.4,78.5,22.3,133.6,17.5,43.9-3.8,71.7-14.6,71.7-26.1Z"/>
      </g>
      <path class="st10" d="M280.6,846.3c-44.4,0-86.1-7.4-101.2-19.1-4-3.1-6-6.4-6-9.7v-22.2c0-.6.6-1.2,1.2-1.2h0c.6,0,1.2.5,1.2,1.2,0,2.6,1.7,5.3,5.1,7.9,18.4,14.3,78,22,132.8,17.2,41.6-3.6,70.7-13.9,70.7-25,0-.6.5-1.2,1.2-1.2h0c.6,0,1.2.5,1.2,1.2v22.2c0,12.7-28.6,23.4-72.8,27.3-11,1-22.2,1.4-33.2,1.4ZM175.8,801.4v16c0,2.6,1.7,5.3,5.1,7.9,18.4,14.3,78,22,132.8,17.2,41.6-3.6,70.7-13.9,70.7-25v-16c-7.6,9.9-33.6,17.9-70.5,21.1-55.3,4.8-115.6-3.1-134.4-17.7-1.5-1.2-2.7-2.4-3.7-3.6Z"/>
      <g class="st7">
        <path class="st10" d="M280.7,868.4c-44.5,0-86.2-7.4-101.3-19.1-4-3.1-6-6.4-6-9.8v-22.2c0-.6.5-1.2,1.2-1.2h0c.6,0,1.2.5,1.2,1.2,0,2.6,1.7,5.3,5.1,7.9,18.4,14.3,78,22,132.8,17.2,48.5-4.2,70.6-15.9,70.7-25,0-.6.5-1.2,1.2-1.2h0c.6,0,1.2.5,1.2,1.2v22.2c0,12.7-28.6,23.4-72.8,27.3-11,1-22.1,1.4-33.1,1.4ZM175.8,823.5v16c0,2.6,1.7,5.3,5.1,7.9,18.4,14.3,78,22,132.8,17.2,48.5-4.2,70.6-15.9,70.7-25v-16c-7.6,9.9-33.6,17.9-70.4,21.1-55.3,4.8-115.6-3.1-134.4-17.7-1.5-1.2-2.7-2.4-3.7-3.6Z"/>
      </g>
      <path class="st10" d="M280.6,890.4c-44.4,0-86.1-7.4-101.2-19.1-4-3.1-6-6.4-6-9.7v-22.2c0-.6.6-1.2,1.2-1.2h0c.6,0,1.2.5,1.2,1.2,0,2.6,1.7,5.3,5.1,7.9,18.4,14.3,78,22,132.8,17.2,41.6-3.6,70.7-13.9,70.7-25,0-.6.5-1.2,1.2-1.2h0c.6,0,1.2.5,1.2,1.2v22.2c0,12.7-28.6,23.4-72.8,27.3-11,1-22.2,1.4-33.2,1.4ZM175.8,845.5v16c0,2.6,1.7,5.3,5.1,7.9,18.4,14.3,78,22,132.8,17.2,41.6-3.6,70.7-13.9,70.7-25v-16c-7.6,9.9-33.6,17.9-70.5,21.1-55.3,4.8-115.6-3.1-134.4-17.7-1.5-1.2-2.7-2.4-3.7-3.6Z"/>
      <g class="st7">
        <path class="st10" d="M280.7,912.5c-44.5,0-86.2-7.4-101.3-19.1-4-3.1-6-6.4-6-9.8v-22.2c0-.6.5-1.2,1.2-1.2h0c.6,0,1.2.5,1.2,1.2,0,2.6,1.7,5.3,5.1,7.9,18.4,14.3,78,22,132.8,17.2,48.5-4.2,70.6-15.9,70.7-25,0-.6.5-1.2,1.2-1.2h0c.6,0,1.2.5,1.2,1.2v22.2c0,12.7-28.6,23.4-72.8,27.3-11,1-22.1,1.4-33.1,1.4ZM175.8,867.6v16c0,2.6,1.7,5.3,5.1,7.9,18.4,14.3,78,22,132.8,17.2,48.5-4.2,70.6-15.9,70.7-25v-16c-7.6,9.9-33.6,17.9-70.4,21.1-55.3,4.8-115.6-3.1-134.4-17.7-1.5-1.2-2.7-2.4-3.7-3.6Z"/>
      </g>
    </g>
    <g>
      <g class="st7">
        <g>
          <path class="st11" d="M508.2,786.1c-14.9-11.6-56.2-18.9-100.3-18.9s-22.3.4-33.3,1.4c-44,3.8-71.8,14.6-71.7,26.2,0,.7.1,1.4.3,2.2,0,.4.3.7.4,1.1.9,1.9,2.4,3.7,4.8,5.5,4.6,3.6,11.9,6.8,20.9,9.5,1.8.5,3.7,1.1,5.7,1.6,2,.5,4,1,6.1,1.4,2.1.4,4.2.9,6.4,1.3h0c2.2.4,4.5.8,6.8,1.2h0c2.3.3,4.7.7,7.1,1h0c7.2,1,14.9,1.7,22.8,2.2,0,0,0,0,0,0,7.9.5,16.1.7,24.3.7s8.2,0,12.3-.2h.5c2.6,0,5.2-.2,7.9-.3,4.2-.2,8.5-.5,12.7-.9,17.8-1.6,33-4.3,44.8-7.7,2.7-.8,5.2-1.6,7.6-2.5,3.9-1.4,7.2-3,10-4.6.9-.5,1.7-1,2.5-1.6.4-.3.8-.5,1.2-.8.7-.5,1.3-1,1.9-1.6,1.1-1,2-2.1,2.6-3.1.4-.7.7-1.4.9-2.1.2-.7.3-1.4.3-2.2,0-2.9-1.8-5.9-5.6-8.8ZM435.7,816.1c-3.5.3-7.1.6-10.7.7-5.4.3-10.9.4-16.2.4-35.9,0-69.4-5.9-81.5-15.3-15.1-11.7,9-24.4,53.7-28.4,4.7-.4,9.3-.7,14-.9,4.3-.2,8.6-.3,12.9-.3,35.8,0,69.4,5.9,81.5,15.3,15.1,11.7-9,24.4-53.6,28.4Z"/>
          <path class="st6" d="M435.7,816.1c-3.5.3-7.1.6-10.7.7-5.4.3-10.9.4-16.2.4-35.9,0-69.4-5.9-81.5-15.3-15.1-11.7,9-24.4,53.7-28.4,4.7-.4,9.3-.7,14-.9,4.3-.2,8.6-.3,12.9-.3,35.8,0,69.4,5.9,81.5,15.3,15.1,11.7-9,24.4-53.6,28.4Z"/>
        </g>
        <path class="st11" d="M513.8,794.9v22.2c0,11.5-27.8,22.3-71.8,26.1-55.1,4.8-115-3-133.6-17.5-3.8-2.9-5.6-5.9-5.6-8.8v-22.1c0,2.9,1.8,5.9,5.6,8.8,18.6,14.5,78.5,22.3,133.6,17.5,44-3.8,71.7-14.6,71.7-26.1Z"/>
      </g>
      <g class="st7">
        <path class="st11" d="M513.8,817v22.2c0,11.5-27.8,22.3-71.7,26.1-55.1,4.8-115-3-133.6-17.5-3.8-2.9-5.6-5.9-5.5-8.9v-22.2c0,2.9,1.8,5.9,5.6,8.9,18.6,14.4,78.5,22.3,133.6,17.5,43.9-3.8,71.7-14.6,71.7-26.1Z"/>
      </g>
      <path class="st11" d="M513.8,839v22.2c0,11.5-27.8,22.3-71.8,26.1-55.1,4.8-115-3-133.6-17.5-3.8-2.9-5.6-5.9-5.6-8.8v-22.1c0,2.9,1.8,5.9,5.6,8.8,18.6,14.5,78.5,22.3,133.6,17.5,44-3.8,71.7-14.6,71.7-26.1Z"/>
      <g class="st7">
        <path class="st11" d="M513.8,861.1v22.2c0,11.5-27.8,22.3-71.7,26.1-55.1,4.8-115-3-133.6-17.5-3.8-2.9-5.6-5.9-5.5-8.9v-22.2c0,2.9,1.8,5.9,5.6,8.9,18.6,14.4,78.5,22.3,133.6,17.5,43.9-3.8,71.7-14.6,71.7-26.1Z"/>
      </g>
      <path class="st11" d="M513.8,883.1v22.2c0,11.5-27.8,22.3-71.8,26.1-55.1,4.8-115-3-133.6-17.5-3.8-2.9-5.6-5.9-5.6-8.8v-22.1c0,2.9,1.8,5.9,5.6,8.8,18.6,14.5,78.5,22.3,133.6,17.5,44-3.8,71.7-14.6,71.7-26.1Z"/>
      <g class="st7">
        <g>
          <path class="st10" d="M409,823.6c-44.4,0-86.2-7.4-101.2-19.1-6.2-4.8-6.5-9.3-5.6-12.2,3.4-11.5,31.8-21.3,72.4-24.8,55.3-4.8,115.7,3.1,134.4,17.7,6.2,4.8,6.5,9.3,5.6,12.2-3.4,11.5-31.8,21.3-72.4,24.8-11,1-22.2,1.4-33.2,1.4ZM408,768.3c-11,0-22.2.5-33.3,1.4-45.1,3.9-67.8,14.5-70.4,23.2-.9,3.2.7,6.5,4.8,9.7,18.4,14.3,78,22,132.8,17.2,45.1-3.9,67.8-14.5,70.4-23.2.9-3.2-.7-6.5-4.8-9.7-14.7-11.4-55.7-18.7-99.6-18.7Z"/>
          <path class="st10" d="M408.9,818.4c-36.1,0-70-6-82.3-15.6-5.1-4-5.4-7.7-4.6-10.1,2.8-9.6,25.4-17.4,58.9-20.3,44.9-3.9,93.9,2.5,109.2,14.4,5.1,4,5.4,7.7,4.7,10.1-2.8,9.6-25.4,17.4-58.9,20.3-8.9.8-18,1.1-26.9,1.1ZM408.1,773.5c-8.9,0-18,.4-27,1.2-36.4,3.2-54.8,11.7-56.9,18.7-.7,2.5.6,5.1,3.8,7.6,14.9,11.6,63.2,17.8,107.6,13.9,36.4-3.2,54.8-11.7,56.9-18.7.7-2.5-.6-5.1-3.8-7.6-11.9-9.2-45.1-15.1-80.6-15.1Z"/>
        </g>
        <path class="st10" d="M408.9,845.8c-44.4,0-86.1-7.4-101.2-19.1-4-3.1-6-6.4-6-9.7v-22.2c0-.6.6-1.2,1.2-1.2h0c.6,0,1.2.5,1.2,1.2,0,2.6,1.7,5.3,5.1,7.9,18.4,14.3,78,22,132.8,17.2,41.6-3.6,70.7-13.9,70.7-25,0-.6.5-1.2,1.2-1.2h0c.6,0,1.2.5,1.2,1.2v22.2c0,12.7-28.6,23.4-72.8,27.3-11,1-22.2,1.4-33.2,1.4ZM304.1,800.8v16c0,2.6,1.7,5.3,5.1,7.9,18.4,14.3,78,22,132.8,17.2,41.6-3.6,70.7-13.9,70.7-25v-16c-7.6,9.9-33.6,17.9-70.5,21.1-55.3,4.8-115.6-3.1-134.4-17.7-1.5-1.2-2.7-2.4-3.7-3.6Z"/>
      </g>
      <g class="st7">
        <path class="st10" d="M409,867.9c-44.5,0-86.2-7.4-101.3-19.1-4-3.1-6-6.4-6-9.8v-22.2c0-.6.5-1.2,1.2-1.2h0c.6,0,1.2.5,1.2,1.2,0,2.6,1.7,5.3,5.1,7.9,18.4,14.3,78,22,132.8,17.2,48.5-4.2,70.6-15.9,70.7-25,0-.6.5-1.2,1.2-1.2h0c.6,0,1.2.5,1.2,1.2v22.2c0,12.7-28.6,23.4-72.8,27.3-11,1-22.1,1.4-33.1,1.4ZM304.1,822.9v16c0,2.6,1.7,5.3,5.1,7.9,18.4,14.3,78,22,132.8,17.2,48.5-4.2,70.6-15.9,70.7-25v-16c-7.6,9.9-33.6,17.9-70.4,21.1-55.3,4.8-115.6-3.1-134.4-17.7-1.5-1.2-2.7-2.4-3.7-3.6Z"/>
      </g>
      <path class="st10" d="M408.9,889.9c-44.4,0-86.1-7.4-101.2-19.1-4-3.1-6-6.4-6-9.7v-22.2c0-.6.6-1.2,1.2-1.2h0c.6,0,1.2.5,1.2,1.2,0,2.6,1.7,5.3,5.1,7.9,18.4,14.3,78,22,132.8,17.2,41.6-3.6,70.7-13.9,70.7-25,0-.6.5-1.2,1.2-1.2h0c.6,0,1.2.5,1.2,1.2v22.2c0,12.7-28.6,23.4-72.8,27.3-11,1-22.2,1.4-33.2,1.4ZM304.1,845v16c0,2.6,1.7,5.3,5.1,7.9,18.4,14.3,78,22,132.8,17.2,41.6-3.6,70.7-13.9,70.7-25v-16c-7.6,9.9-33.6,17.9-70.5,21.1-55.3,4.9-115.6-3.1-134.4-17.7-1.5-1.2-2.7-2.4-3.7-3.6Z"/>
      <g class="st7">
        <path class="st10" d="M409,912c-44.5,0-86.2-7.4-101.3-19.1-4-3.1-6-6.4-6-9.8v-22.2c0-.6.5-1.2,1.2-1.2h0c.6,0,1.2.5,1.2,1.2,0,2.6,1.7,5.3,5.1,7.9,18.4,14.3,78,22,132.8,17.2,48.5-4.2,70.6-15.9,70.7-25,0-.6.5-1.2,1.2-1.2h0c.6,0,1.2.5,1.2,1.2v22.2c0,12.7-28.6,23.4-72.8,27.3-11,1-22.1,1.4-33.1,1.4ZM304.1,867.1v16c0,2.6,1.7,5.3,5.1,7.9,18.4,14.3,78,22,132.8,17.2,48.5-4.2,70.6-15.9,70.7-25v-16c-7.6,9.9-33.6,17.9-70.4,21.1-55.3,4.8-115.6-3.1-134.4-17.7-1.5-1.2-2.7-2.4-3.7-3.6Z"/>
      </g>
      <path class="st10" d="M408.9,934c-44.4,0-86.1-7.4-101.2-19.1-4-3.1-6-6.4-6-9.7v-22.2c0-.6.6-1.2,1.2-1.2h0c.6,0,1.2.5,1.2,1.2,0,2.6,1.7,5.3,5.1,7.9,18.4,14.3,78,22,132.8,17.2,41.6-3.6,70.7-13.9,70.7-25,0-.6.5-1.2,1.2-1.2h0c.6,0,1.2.5,1.2,1.2v22.2c0,12.7-28.6,23.4-72.8,27.3-11,1-22.2,1.4-33.2,1.4ZM304.1,889.1v16c0,2.6,1.7,5.3,5.1,7.9,18.4,14.3,78,22,132.8,17.2,41.6-3.6,70.7-13.9,70.7-25v-16c-7.6,9.9-33.6,17.9-70.5,21.1-55.3,4.8-115.6-3.1-134.4-17.7-1.5-1.2-2.7-2.4-3.7-3.6Z"/>
    </g>
  </g>
</svg>