<?xml version="1.0" encoding="UTF-8"?>
<svg id="Layer_1" xmlns="http://www.w3.org/2000/svg" xmlns:xlink="http://www.w3.org/1999/xlink" version="1.1" viewBox="0 0 1080 868.3">
  <!-- Generator: Adobe Illustrator 29.6.1, SVG Export Plug-In . SVG Version: 2.1.1 Build 9)  -->
  <defs>
    <style>
      .st0, .st1, .st2, .st3, .st4, .st5, .st6, .st7, .st8 {
        fill: none;
      }

      .st9 {
        fill: #c44660;
      }

      .st1, .st10 {
        stroke: #45171a;
      }

      .st1, .st10, .st2, .st3, .st11, .st4, .st5, .st6, .st12, .st7, .st13, .st8 {
        stroke-miterlimit: 10;
      }

      .st1, .st10, .st2, .st3, .st4, .st5, .st6, .st12, .st7, .st13 {
        stroke-width: 2.5px;
      }

      .st10, .st14, .st12, .st13 {
        fill: #fff;
      }

      .st15 {
        fill: #171d2a;
      }

      .st2, .st12 {
        stroke: #171d2a;
      }

      .st3, .st5 {
        stroke: #fff;
      }

      .st11 {
        fill: #b11e40;
      }

      .st11, .st8 {
        stroke: #000;
        stroke-width: 4.1px;
      }

      .st16 {
        fill: #45171a;
      }

      .st4, .st13 {
        stroke: #c44660;
      }

      .st17 {
        fill: #342b3f;
      }

      .st18 {
        clip-path: url(#clippath-1);
      }

      .st19 {
        clip-path: url(#clippath-3);
      }

      .st20 {
        clip-path: url(#clippath-4);
      }

      .st21 {
        clip-path: url(#clippath-2);
      }

      .st22 {
        clip-path: url(#clippath-5);
      }

      .st5 {
        opacity: .4;
      }

      .st6 {
        stroke: #e6abb3;
      }

      .st7 {
        stroke: #342b3f;
      }

      .st23 {
        fill: #f0dde0;
      }

      .st24 {
        fill: #e09da6;
      }

      .st25 {
        clip-path: url(#clippath);
      }
    </style>
    <clipPath id="clippath">
      <path class="st0" d="M928.5,101.6h-90.4l-36.9,36.9c-18.5,18.5-48.4,18.5-66.9,0l-36.9-36.9H151.5c-37.9,0-68.6,30.7-68.6,68.7v527.9c0,37.9,30.7,68.6,68.6,68.6h546l36.9-36.9c18.5-18.4,48.4-18.4,66.9,0l36.9,36.9h90.4c37.9,0,68.7-30.7,68.7-68.6V170.2c0-37.9-30.7-68.7-68.7-68.7ZM797.2,629.5c-7.4,7.5-17.6,12-28.9,12s-21.5-4.6-28.9-12c-7.5-7.3-12-17.6-12-28.9,0-22.6,18.3-40.9,40.9-40.9s21.5,4.6,28.9,12c7.4,7.3,12,17.6,12,28.9s-4.6,21.5-12,28.9ZM797.2,463.2c-7.4,7.5-17.6,12-28.9,12s-21.5-4.6-28.9-12c-7.5-7.3-12-17.6-12-28.9,0-22.6,18.3-40.9,40.9-40.9s21.5,4.6,28.9,12,12,17.6,12,28.9-4.6,21.5-12,28.9ZM797.2,296.8c-7.4,7.5-17.6,12-28.9,12s-21.5-4.6-28.9-12c-7.5-7.4-12-17.6-12-28.9,0-22.6,18.3-40.9,40.9-40.9s21.5,4.6,28.9,12c7.4,7.5,12,17.6,12,28.9s-4.6,21.5-12,28.9Z"/>
    </clipPath>
    <clipPath id="clippath-1">
      <polygon class="st0" points="-33.3 67.6 -33.3 955.1 698.5 955.1 564.8 67.6 -33.3 67.6"/>
    </clipPath>
    <clipPath id="clippath-2">
      <rect class="st0" x="-33.3" y="394.9" width="812.9" height="271.1" transform="translate(746.3 1060.9) rotate(-180)"/>
    </clipPath>
    <clipPath id="clippath-3">
      <rect class="st0" x="-33.3" y="172.8" width="845.8" height="648.5" transform="translate(779.2 994.1) rotate(-180)"/>
    </clipPath>
    <clipPath id="clippath-4">
      <rect class="st0" x="563.2" y="265" width="291.9" height="475.8"/>
    </clipPath>
    <clipPath id="clippath-5">
      <rect class="st0" x="-33.3" y="394.9" width="812.9" height="271.1" transform="translate(746.3 1061) rotate(-180)"/>
    </clipPath>
  </defs>
  <path class="st11" d="M928.5,101.6h-90.4l-36.9,36.9c-18.5,18.5-48.4,18.5-66.9,0l-36.9-36.9H151.5c-37.9,0-68.6,30.7-68.6,68.7v527.9c0,37.9,30.7,68.6,68.6,68.6h546l36.9-36.9c18.5-18.4,48.4-18.4,66.9,0l36.9,36.9h90.4c37.9,0,68.7-30.7,68.7-68.6V170.2c0-37.9-30.7-68.7-68.7-68.7ZM797.2,629.5c-7.4,7.5-17.6,12-28.9,12s-21.5-4.6-28.9-12c-7.5-7.3-12-17.6-12-28.9,0-22.6,18.3-40.9,40.9-40.9s21.5,4.6,28.9,12c7.4,7.3,12,17.6,12,28.9s-4.6,21.5-12,28.9ZM797.2,463.2c-7.4,7.5-17.6,12-28.9,12s-21.5-4.6-28.9-12c-7.5-7.3-12-17.6-12-28.9,0-22.6,18.3-40.9,40.9-40.9s21.5,4.6,28.9,12,12,17.6,12,28.9-4.6,21.5-12,28.9ZM797.2,296.8c-7.4,7.5-17.6,12-28.9,12s-21.5-4.6-28.9-12c-7.5-7.4-12-17.6-12-28.9,0-22.6,18.3-40.9,40.9-40.9s21.5,4.6,28.9,12c7.4,7.5,12,17.6,12,28.9s-4.6,21.5-12,28.9Z"/>
  <g class="st25">
    <g>
      <g class="st18">
        <g>
          <g>
            <path class="st6" d="M-80,323.8h240c9.8,0,18.5,6.4,21.5,15.7l19.4,84.7c3,9.4,11.7,15.7,21.5,15.7h127.7S252.1,39.8,252.1,39.8"/>
            <path class="st6" d="M5,281.7h459.1c10.1,0,17.6-9.4,15.4-19.2l-50.1-222.7"/>
            <path class="st6" d="M-47.3,378.8h586.5c7.5,0,13.3-6.6,12.5-14l-60.8-325"/>
          </g>
          <g>
            <path class="st6" d="M272.4,1015.1l-23.5-136.7c-3-14,7.7-27.2,22-27.2h298.5c5.4,0,10,3.8,11.1,9l29.5,144.5"/>
            <path class="st6" d="M453.1,1006.6l-44.1-213.2c-1-8,5.2-15.1,13.2-15.1h249.6"/>
            <path class="st6" d="M514.3,1010.3l-38.5-181.9c-.7-6.3-6.1-11.1-12.5-11.1H-98.3"/>
          </g>
        </g>
      </g>
      <path class="st5" d="M607.6,352.9h-295.1c-9.8,0-18.5-6.4-21.5-15.7l-26.8-84.7c-3-9.4-11.7-15.7-21.5-15.7h-83c-14.3,0-25,13.2-22,27.2l99.6,472.3c3,14-7.7,27.2-22,27.2H-33.3"/>
      <g>
        <g class="st21">
          <g>
            <path class="st23" d="M96.4,642.1h651.3c14.9,0,26.3-13.2,24.1-28l-21-139.8c-5-33.1-33.5-57.7-67-57.7H96.4c-13.4,0-24.3,10.9-24.3,24.3v176.7c0,13.4,10.9,24.3,24.3,24.3Z"/>
            <path class="st14" d="M-101.8,614.1l21-139.8c5-33.1,33.5-57.7,67-57.7h2.9s390.2,0,390.2,0h128.5c33.5,0,62,24.5,67,57.7l21,139.8c2.2,14.7-9.2,28-24.1,28h-192.4s-421.5,0-421.5,0h-35.5c-14.9,0-26.3-13.2-24.1-28Z"/>
            <path class="st16" d="M754.8,614.1c2.2,14.7-9.2,28-24.1,28h-121.1c14.9,0,26.3-13.2,24.1-28l-4.1-27.2h121.1s4.1,27.2,4.1,27.2Z"/>
            <path class="st9" d="M754.8,614.1c2.2,14.7-9.2,28-24.1,28h-121.1c14.9,0,26.3-13.2,24.1-28l-4.1-27.2h121.1s4.1,27.2,4.1,27.2Z"/>
            <path class="st17" d="M661.8,614.1l-4.1-27.2h70s4.1,27.2,4.1,27.2c2.2,14.7-9.2,28-24.1,28h-70c14.9,0,26.3-13.2,24.1-28Z"/>
            <path class="st14" d="M669.1,603.9h46.9c2.2,0,3.9-1.8,3.9-3.9h0c0-2.2-1.8-3.9-3.9-3.9h-46.9c-2.2,0-3.9,1.8-3.9,3.9h0c0,2.2,1.8,3.9,3.9,3.9Z"/>
            <g>
              <path class="st15" d="M-1.6,439.9h260.2s10.4,0,10.4,0h233.2c22,0,40.8,15.8,44.7,37.3H-46.4c4-21.5,22.7-37.3,44.7-37.3Z"/>
              <path class="st17" d="M-46.7,478.7c0-.5.2-1,.3-1.5h593.3c0,.5.2,1,.3,1.5l9,60h-276.6s-31.7,0-31.7,0H-55.7s9-60,9-60Z"/>
            </g>
            <path class="st1" d="M360.4,628.2c0-.1,0-.2,0-.4.9-5,5.3-8.7,10.4-8.7h60.5s2.4,0,2.4,0h54.2c5.1,0,9.5,3.7,10.4,8.7,0,.1,0,.2,0,.4l2.1,13.9h-64.3s-7.4,0-7.4,0h-70.6s2.1-13.9,2.1-13.9Z"/>
            <path class="st1" d="M-8.2,628.2c0-.1,0-.2,0-.4.9-5,5.3-8.7,10.4-8.7h60.5s2.4,0,2.4,0h54.2c5.1,0,9.5,3.7,10.4,8.7,0,.1,0,.2,0,.4l2.1,13.9h-64.3s-7.4,0-7.4,0H-10.3s2.1-13.9,2.1-13.9Z"/>
            <polygon class="st16" points="-98.3 590.6 592.3 590.6 584.5 538.6 -90.4 538.6 -98.3 590.6"/>
            <g>
              <line class="st3" x1="306" y1="439.9" x2="306" y2="590.6"/>
              <line class="st7" x1="306" y1="590.6" x2="306" y2="642.1"/>
            </g>
            <g>
              <line class="st3" x1="249.3" y1="439.9" x2="249.3" y2="590.6"/>
              <line class="st7" x1="249.3" y1="590.6" x2="249.3" y2="642.1"/>
            </g>
            <g>
              <line class="st3" x1="192.5" y1="439.9" x2="192.5" y2="590.6"/>
              <line class="st7" x1="192.5" y1="590.6" x2="192.5" y2="642.1"/>
            </g>
            <path class="st16" d="M538.8,610.5h13.1c2.4,0,4.3-1.9,4.3-4.3h0c0-2.4-1.9-4.3-4.3-4.3h-13.1c-2.4,0-4.3,1.9-4.3,4.3h0c0,2.4,1.9,4.3,4.3,4.3Z"/>
            <line class="st3" x1="750.8" y1="586.9" x2="629.7" y2="586.9"/>
            <g>
              <path class="st15" d="M545.8,416.6h121.1c33.5,0,62,24.5,67,57.7l.4,2.8h-121.1s-.4-2.8-.4-2.8c-5-33.1-33.5-57.7-67-57.7Z"/>
              <polygon class="st17" points="750.8 586.9 629.7 586.9 613.2 477.1 734.3 477.1 750.8 586.9"/>
            </g>
            <path class="st16" d="M637.1,449.7h46.9c2.2,0,3.9-1.8,3.9-3.9h0c0-2.2-1.8-3.9-3.9-3.9h-46.9c-2.2,0-3.9,1.8-3.9,3.9h0c0,2.2,1.8,3.9,3.9,3.9Z"/>
            <path class="st9" d="M552,613.2h0c-2.4,0-4.3,1.9-4.3,4.3h0c0,2.4,1.9,4.3,4.3,4.3h0c2.4,0,4.3-1.9,4.3-4.3h0c0-2.4-1.9-4.3-4.3-4.3Z"/>
          </g>
        </g>
        <line class="st7" x1="828.6" y1="642.1" x2="-33.3" y2="642.1"/>
      </g>
      <line class="st1" x1="592.3" y1="712.8" x2="-33.3" y2="712.8"/>
      <path class="st16" d="M216.7,669.8c0,9.9,17.9,30.2,17.9,30.2,0,0,17.9-20.3,17.9-30.2,0-9.9-8-17.9-17.9-17.9s-17.9,8-17.9,17.9ZM228.9,667.6c0-3.2,2.6-5.7,5.7-5.7,3.2,0,5.7,2.6,5.7,5.7,0,3.2-2.6,5.7-5.7,5.7-3.2,0-5.7-2.6-5.7-5.7Z"/>
      <path class="st2" d="M460.2,394.9H36.9c-8.1,0-14.3,7.1-13.2,15.1l53.6,411.2c1,8-5.2,15.1-13.2,15.1H-33.3"/>
      <path class="st15" d="M45.5,355.9c0,9.9,17.9,30.2,17.9,30.2,0,0,17.9-20.3,17.9-30.2,0-9.9-8-17.9-17.9-17.9-9.9,0-17.9,8-17.9,17.9ZM57.7,353.6c0-3.2,2.6-5.7,5.7-5.7,3.2,0,5.7,2.6,5.7,5.7,0,3.2-2.6,5.7-5.7,5.7s-5.7-2.6-5.7-5.7Z"/>
      <g class="st19">
        <path class="st4" d="M512.4,297.8H-33.8c-7.5,0-13.3,6.6-12.5,14L10.6,786.1c.7,6.3,6.1,11.1,12.5,11.1h756.5"/>
        <path class="st9" d="M417.2,751.7c0,9.9,17.9,30.2,17.9,30.2,0,0,17.9-20.3,17.9-30.2,0-9.9-8-17.9-17.9-17.9-9.9,0-17.9,8-17.9,17.9ZM429.3,749.4c0-3.2,2.6-5.7,5.7-5.7,3.2,0,5.7,2.6,5.7,5.7,0,3.2-2.6,5.7-5.7,5.7s-5.7-2.6-5.7-5.7Z"/>
      </g>
      <path class="st13" d="M273.1,297.8c0-3.1,2.5-5.5,5.5-5.5,3.1,0,5.5,2.5,5.5,5.5,0,3.1-2.5,5.5-5.5,5.5-3.1,0-5.5-2.5-5.5-5.5Z"/>
      <path class="st13" d="M140.1,297.8c0-3.1,2.5-5.5,5.5-5.5,3.1,0,5.5,2.5,5.5,5.5,0,3.1-2.5,5.5-5.5,5.5-3.1,0-5.5-2.5-5.5-5.5Z"/>
      <path class="st13" d="M-3.9,712.8c0-3.1,2.5-5.5,5.5-5.5,3.1,0,5.5,2.5,5.5,5.5,0,3.1-2.5,5.5-5.5,5.5s-5.5-2.5-5.5-5.5Z"/>
      <circle class="st13" cx="7.2" cy="763.4" r="5.5"/>
      <circle class="st13" cx="75" cy="797.2" r="5.5"/>
      <circle class="st13" cx="311.5" cy="797.2" r="5.5"/>
      <circle class="st13" cx="435" cy="797.2" r="5.5"/>
      <path class="st10" d="M536.6,712.8c0-3.1,2.5-5.5,5.5-5.5s5.5,2.5,5.5,5.5c0,3.1-2.5,5.5-5.5,5.5s-5.5-2.5-5.5-5.5Z"/>
      <path class="st10" d="M227.2,712.8c0-3.1,2.5-5.5,5.5-5.5s5.5,2.5,5.5,5.5c0,3.1-2.5,5.5-5.5,5.5-3.1,0-5.5-2.5-5.5-5.5Z"/>
      <path class="st10" d="M58.4,712.8c0-3.1,2.5-5.5,5.5-5.5s5.5,2.5,5.5,5.5c0,3.1-2.5,5.5-5.5,5.5-3.1,0-5.5-2.5-5.5-5.5Z"/>
      <circle class="st12" cx="165.9" cy="394.9" r="5.5"/>
      <circle class="st12" cx="69.4" cy="763.4" r="5.5"/>
      <circle class="st12" cx="302" cy="394.9" r="5.5"/>
      <circle class="st12" cx="427.6" cy="394.9" r="5.5"/>
    </g>
  </g>
  <path class="st8" d="M928.5,101.6h-90.4l-36.9,36.9c-18.5,18.5-48.4,18.5-66.9,0l-36.9-36.9H151.5c-37.9,0-68.6,30.7-68.6,68.7v527.9c0,37.9,30.7,68.6,68.6,68.6h546l36.9-36.9c18.5-18.4,48.4-18.4,66.9,0l36.9,36.9h90.4c37.9,0,68.7-30.7,68.7-68.6V170.2c0-37.9-30.7-68.7-68.7-68.7ZM797.2,629.5c-7.4,7.5-17.6,12-28.9,12s-21.5-4.6-28.9-12c-7.5-7.3-12-17.6-12-28.9,0-22.6,18.3-40.9,40.9-40.9s21.5,4.6,28.9,12c7.4,7.3,12,17.6,12,28.9s-4.6,21.5-12,28.9ZM797.2,296.8c-7.4,7.5-17.6,12-28.9,12s-21.5-4.6-28.9-12c-7.5-7.4-12-17.6-12-28.9,0-22.6,18.3-40.9,40.9-40.9s21.5,4.6,28.9,12c7.4,7.5,12,17.6,12,28.9s-4.6,21.5-12,28.9Z"/>
  <g class="st20">
    <g>
      <g class="st22">
        <g>
          <path class="st23" d="M96.4,642.1h651.3c14.9,0,26.3-13.2,24.1-28l-21-139.8c-5-33.1-33.5-57.7-67-57.7H96.4c-13.4,0-24.3,10.9-24.3,24.3v176.7c0,13.4,10.9,24.3,24.3,24.3Z"/>
          <path class="st14" d="M-101.8,614.1l21-139.8c5-33.1,33.5-57.7,67-57.7h2.9s390.2,0,390.2,0h128.5c33.5,0,62,24.5,67,57.7l21,139.8c2.2,14.7-9.2,28-24.1,28h-192.4s-421.5,0-421.5,0h-35.5c-14.9,0-26.3-13.2-24.1-28Z"/>
          <path class="st16" d="M754.8,614.1c2.2,14.7-9.2,28-24.1,28h-121.1c14.9,0,26.3-13.2,24.1-28l-4.1-27.2h121.1s4.1,27.2,4.1,27.2Z"/>
          <path class="st16" d="M754.8,614.1c2.2,14.7-9.2,28-24.1,28h-121.1c14.9,0,26.3-13.2,24.1-28l-4.1-27.2h121.1s4.1,27.2,4.1,27.2Z"/>
          <path class="st14" d="M661.8,614.1l-4.1-27.2h70s4.1,27.2,4.1,27.2c2.2,14.7-9.2,28-24.1,28h-70c14.9,0,26.3-13.2,24.1-28Z"/>
          <path class="st16" d="M669.1,603.9h46.9c2.2,0,3.9-1.8,3.9-3.9h0c0-2.2-1.8-3.9-3.9-3.9h-46.9c-2.2,0-3.9,1.8-3.9,3.9h0c0,2.2,1.8,3.9,3.9,3.9Z"/>
          <g>
            <path class="st15" d="M-1.6,439.9h260.2s10.4,0,10.4,0h233.2c22,0,40.8,15.8,44.7,37.3H-46.4c4-21.5,22.7-37.3,44.7-37.3Z"/>
            <path class="st17" d="M-46.7,478.7c0-.5.2-1,.3-1.5h593.3c0,.5.2,1,.3,1.5l9,60h-276.6s-31.7,0-31.7,0H-55.7s9-60,9-60Z"/>
          </g>
          <path class="st24" d="M360.4,628.2c0-.1,0-.2,0-.4.9-5,5.3-8.7,10.4-8.7h60.5s2.4,0,2.4,0h54.2c5.1,0,9.5,3.7,10.4,8.7,0,.1,0,.2,0,.4l2.1,13.9h-64.3s-7.4,0-7.4,0h-70.6s2.1-13.9,2.1-13.9Z"/>
          <path class="st24" d="M-8.2,628.2c0-.1,0-.2,0-.4.9-5,5.3-8.7,10.4-8.7h60.5s2.4,0,2.4,0h54.2c5.1,0,9.5,3.7,10.4,8.7,0,.1,0,.2,0,.4l2.1,13.9h-64.3s-7.4,0-7.4,0H-10.3s2.1-13.9,2.1-13.9Z"/>
          <polygon class="st16" points="-98.3 590.7 592.3 590.7 584.5 538.6 -90.4 538.6 -98.3 590.7"/>
          <g>
            <line class="st3" x1="306" y1="439.9" x2="306" y2="590.7"/>
            <line class="st7" x1="306" y1="590.7" x2="306" y2="642.1"/>
          </g>
          <g>
            <line class="st3" x1="249.3" y1="439.9" x2="249.3" y2="590.7"/>
            <line class="st7" x1="249.3" y1="590.7" x2="249.3" y2="642.1"/>
          </g>
          <g>
            <line class="st3" x1="192.5" y1="439.9" x2="192.5" y2="590.7"/>
            <line class="st7" x1="192.5" y1="590.7" x2="192.5" y2="642.1"/>
          </g>
          <path class="st16" d="M538.8,610.6h13.1c2.4,0,4.3-1.9,4.3-4.3h0c0-2.4-1.9-4.3-4.3-4.3h-13.1c-2.4,0-4.3,1.9-4.3,4.3h0c0,2.4,1.9,4.3,4.3,4.3Z"/>
          <line class="st3" x1="750.8" y1="586.9" x2="629.7" y2="586.9"/>
          <g>
            <path class="st15" d="M545.8,416.7h121.1c33.5,0,62,24.5,67,57.7l.4,2.8h-121.1s-.4-2.8-.4-2.8c-5-33.1-33.5-57.7-67-57.7Z"/>
            <polygon class="st17" points="750.8 586.9 629.7 586.9 613.2 477.2 734.3 477.2 750.8 586.9"/>
          </g>
          <path class="st23" d="M637.1,449.7h46.9c2.2,0,3.9-1.8,3.9-3.9h0c0-2.2-1.8-3.9-3.9-3.9h-46.9c-2.2,0-3.9,1.8-3.9,3.9h0c0,2.2,1.8,3.9,3.9,3.9Z"/>
          <path class="st9" d="M552,613.2h0c-2.4,0-4.3,1.9-4.3,4.3h0c0,2.4,1.9,4.3,4.3,4.3h0c2.4,0,4.3-1.9,4.3-4.3h0c0-2.4-1.9-4.3-4.3-4.3Z"/>
        </g>
      </g>
      <line class="st7" x1="828.6" y1="642.2" x2="-33.3" y2="642.2"/>
    </g>
  </g>
  <g>
    <path class="st14" d="M135.2,254.7l16.4-20c10.5,8.5,22.2,13,34.5,13s12.2-2.8,12.2-7.5v-.3c0-4.5-3.5-7-18-10.4-22.7-5.3-40.2-11.8-40.2-34.2v-.3c0-20.2,15.7-34.8,41.2-34.8s32.3,5,43.8,14.4l-14.8,21.3c-9.7-7-20.4-10.7-29.8-10.7s-10.7,3.1-10.7,7v.3c0,5,3.7,7.1,18.4,10.6,24.5,5.4,39.7,13.5,39.7,33.8v.3c0,22.2-17.2,35.4-43.1,35.4s-36.8-6.1-49.9-18Z"/>
    <path class="st14" d="M244.6,162.1h33l24.2,68.8,24.2-68.8h32.4l-43.2,109.5h-27.4l-43.2-109.5Z"/>
    <path class="st14" d="M410,188.5h-32v-26.4h93.4v26.4h-32v82.3h-29.5v-82.3Z"/>
  </g>
</svg>