<?xml version="1.0" encoding="UTF-8"?>
<svg id="Layer_1" xmlns="http://www.w3.org/2000/svg" version="1.1" viewBox="0 0 1080 1080">
  <!-- Generator: Adobe Illustrator 29.6.1, SVG Export Plug-In . SVG Version: 2.1.1 Build 9)  -->
  <defs>
    <style>
      .st0 {
        isolation: isolate;
      }

      .st1, .st2 {
        fill: #b01e3f;
      }

      .st3 {
        fill: #5b111f;
      }

      .st4 {
        fill: #d05977;
      }

      .st5 {
        fill: #fff;
      }

      .st2 {
        fill-opacity: 0;
      }

      .st6 {
        fill: #e0e1e0;
      }

      .st7 {
        fill: #ae1e3f;
      }
    </style>
  </defs>
  <g>
    <g>
      <rect class="st6" x="826.9" y="842.1" width="39.4" height="39.4"/>
      <rect class="st6" x="724.5" y="842.1" width="39.4" height="39.4"/>
      <rect class="st6" x="838.8" y="584.1" width="39.4" height="39.4"/>
      <rect class="st6" x="783.6" y="584.1" width="39.4" height="39.4"/>
      <rect class="st6" x="736.3" y="584.1" width="39.4" height="39.4"/>
      <rect class="st6" x="838.8" y="536.9" width="39.4" height="39.4"/>
      <rect class="st6" x="736.3" y="536.9" width="39.4" height="39.4"/>
      <rect class="st6" x="681.3" y="536.9" width="39.4" height="39.4"/>
      <rect class="st6" x="783.6" y="481.8" width="39.4" height="39.4"/>
      <rect class="st6" x="736.3" y="481.8" width="39.4" height="39.4"/>
      <rect class="st6" x="838.8" y="426.8" width="39.4" height="39.4"/>
      <rect class="st6" x="783.6" y="426.8" width="39.4" height="39.4"/>
      <rect class="st6" x="736.3" y="426.8" width="39.4" height="39.4"/>
      <rect class="st6" x="916.4" y="375.5" width="39.4" height="39.4"/>
      <rect class="st6" x="916.4" y="424.6" width="39.4" height="39.4"/>
      <rect class="st6" x="838.8" y="371.6" width="39.4" height="39.4"/>
      <rect class="st6" x="736.3" y="371.6" width="39.4" height="39.4"/>
      <rect class="st6" x="681.3" y="371.6" width="39.4" height="39.4"/>
      <rect class="st6" x="975.4" y="402" width="39.4" height="39.4"/>
      <rect class="st6" x="783.6" y="324.3" width="39.4" height="39.4"/>
      <rect class="st6" x="736.3" y="324.3" width="39.4" height="39.4"/>
      <rect class="st6" x="783.6" y="269.3" width="39.4" height="39.4"/>
      <rect class="st6" x="736.3" y="269.3" width="39.4" height="39.4"/>
      <rect class="st6" x="681.3" y="269.3" width="39.4" height="39.4"/>
      <rect class="st6" x="838.8" y="214.3" width="39.4" height="39.4"/>
      <rect class="st6" x="736.3" y="214.3" width="39.4" height="39.4"/>
      <rect class="st6" x="681.3" y="214.3" width="39.4" height="39.4"/>
      <rect class="st6" x="736.3" y="167" width="39.4" height="39.4"/>
      <rect class="st6" x="783.6" y="796.8" width="39.4" height="39.4"/>
      <rect class="st6" x="838.8" y="741.6" width="39.4" height="39.4"/>
      <rect class="st6" x="783.6" y="741.6" width="39.4" height="39.4"/>
      <rect class="st6" x="736.3" y="741.6" width="39.4" height="39.4"/>
      <rect class="st6" x="736.3" y="694.4" width="39.4" height="39.4"/>
      <rect class="st6" x="681.3" y="694.4" width="39.4" height="39.4"/>
      <rect class="st6" x="783.6" y="639.3" width="39.4" height="39.4"/>
      <rect class="st6" x="736.3" y="639.3" width="39.4" height="39.4"/>
      <rect class="st6" x="896.7" y="493.6" width="39.4" height="39.4"/>
    </g>
    <g>
      <rect class="st6" x="201.9" y="167.1" width="39.4" height="39.4"/>
      <rect class="st6" x="304.4" y="167.1" width="39.4" height="39.4"/>
      <rect class="st6" x="190" y="425" width="39.4" height="39.4"/>
      <rect class="st6" x="245.3" y="425" width="39.4" height="39.4"/>
      <rect class="st6" x="292.4" y="425" width="39.4" height="39.4"/>
      <rect class="st6" x="292.4" y="472.2" width="39.4" height="39.4"/>
      <rect class="st6" x="347.5" y="472.2" width="39.4" height="39.4"/>
      <rect class="st6" x="292.4" y="527.3" width="39.4" height="39.4"/>
      <rect class="st6" x="190" y="582.3" width="39.4" height="39.4"/>
      <rect class="st6" x="245.3" y="582.3" width="39.4" height="39.4"/>
      <rect class="st6" x="292.4" y="582.3" width="39.4" height="39.4"/>
      <rect class="st6" x="112.4" y="633.6" width="39.4" height="39.4"/>
      <rect class="st6" x="112.4" y="584.5" width="39.4" height="39.4"/>
      <rect class="st6" x="190" y="637.5" width="39.4" height="39.4"/>
      <rect class="st6" x="292.4" y="637.5" width="39.4" height="39.4"/>
      <rect class="st6" x="347.5" y="637.5" width="39.4" height="39.4"/>
      <rect class="st6" x="53.4" y="607.1" width="39.4" height="39.4"/>
      <rect class="st6" x="245.3" y="684.8" width="39.4" height="39.4"/>
      <rect class="st6" x="292.4" y="684.8" width="39.4" height="39.4"/>
      <rect class="st6" x="245.3" y="739.8" width="39.4" height="39.4"/>
      <rect class="st6" x="292.4" y="739.8" width="39.4" height="39.4"/>
      <rect class="st6" x="347.5" y="739.8" width="39.4" height="39.4"/>
      <rect class="st6" x="190" y="794.9" width="39.4" height="39.4"/>
      <rect class="st6" x="292.4" y="794.9" width="39.4" height="39.4"/>
      <rect class="st6" x="347.5" y="794.9" width="39.4" height="39.4"/>
      <rect class="st6" x="292.4" y="842.1" width="39.4" height="39.4"/>
      <rect class="st6" x="245.3" y="212.2" width="39.4" height="39.4"/>
      <rect class="st6" x="190" y="267.5" width="39.4" height="39.4"/>
      <rect class="st6" x="292.4" y="267.5" width="39.4" height="39.4"/>
      <rect class="st6" x="292.4" y="314.7" width="39.4" height="39.4"/>
      <rect class="st6" x="347.5" y="314.7" width="39.4" height="39.4"/>
      <rect class="st6" x="245.3" y="369.7" width="39.4" height="39.4"/>
      <rect class="st6" x="292.4" y="369.7" width="39.4" height="39.4"/>
      <rect class="st6" x="132.1" y="515.6" width="39.4" height="39.4"/>
    </g>
  </g>
  <g>
    <path class="st1" d="M814.9,858.3l-290.4,56.5c-28.9,5.6-60.5-17.5-70.7-51.7l-177.1-584.2c-8.7-29.3,1.2-57.2,22.4-68.1l-28.7,14.8c-21.2,10.9-31.1,38.8-22.4,68.1l177.1,584.2c10.1,34.2,41.8,57.4,70.7,51.7l290.4-56.5c4.1-.8,8-2.1,11.5-4l28.7-14.8c-3.5,1.8-7.4,3.2-11.5,4h0Z"/>
    <g>
      <path class="st4" d="M289.4,374.7c-4.8,2.5-6.6,11.3-4.1,19.8l27.9,94.1c2.5,8.5,8.4,13.4,13.2,10.9,4.8-2.4,6.6-11.3,4.1-19.8l-27.9-94.1c-2.5-8.5-8.4-13.4-13.2-10.9"/>
      <path class="st4" d="M334,524.9c-4.8,2.5-6.6,11.3-4.1,19.8l12.3,41.4c2.5,8.5,8.4,13.4,13.2,10.9,4.8-2.4,6.6-11.3,4.1-19.8l-12.3-41.4c-2.5-8.5-8.4-13.4-13.2-11"/>
    </g>
    <path class="st4" d="M601.1,150.4c28.9-5.6,60.5,17.5,70.6,51.7l177.1,584.2c10.1,34.2-5,66.5-33.9,72.1l-290.4,56.5c-28.9,5.6-60.5-17.5-70.7-51.7l-177.1-584.2c-10.1-34.2,5.1-66.4,33.9-72.1l290.4-56.5h.1Z"/>
    <g>
      <path class="st5" d="M809.7,837.7l-263.8,51.3-28.2,5.5c-18.8,3.7-39.5-11.5-46.2-33.8l-177.7-586.1c-6.6-22.4,3.3-43.5,22.1-47.2l285.6-55.6,6.4-1.2c18.9-3.7,39.5,11.5,46.2,33.8l177.7,586.1c6.6,22.3-3.3,43.4-22.2,47.1h0Z"/>
      <path class="st2" d="M809.7,837.7l-263.8,51.3,55.7-717.2,6.4-1.2c18.9-3.7,39.5,11.5,46.2,33.8l177.7,586.1c6.6,22.3-3.3,43.4-22.2,47.1h0Z"/>
    </g>
  </g>
  <g>
    <g class="st0">
      <g class="st0">
        <path class="st1" d="M450.7,440.5l57.5-14.1c12.8-3.1,23.8-4.4,33-3.7,9.2.7,17,2.9,23.3,6.7,5,3.1,9.2,7,12.3,11.9,3.2,4.8,5.5,10.3,7,16.4,3.1,12.8,2.2,24.8-2.8,36.1-5,11.3-14.9,21-29.5,29.1l36.1,45.6-46.6,11.4-31.6-41.2-18.7,4.6-1.1,49.2-42.5,10.4,3.5-162.5ZM515.6,502.1c9.6-2.4,16.7-6.1,21.5-11.3,4.7-5.2,6.3-11.1,4.7-17.6-1-3.9-3.1-7.1-6.4-9.3-4.3-2.6-11-2.9-20-.7l-22.9,5.6-1,39.3,24.2-5.9Z"/>
      </g>
    </g>
    <g class="st0">
      <g class="st0">
        <path class="st1" d="M580,484.2l49.9-12.2c12.5-3.1,23.3-4.3,32.3-3.8,9.1.5,17,2.9,23.9,7.1,9.9,6,16.5,15.4,19.6,28.2,2.3,9.4,2.6,18.4.7,26.9-1.8,8.5-5.4,16.3-10.7,23.2-5.3,6.9-12.3,12.9-20.8,18-8.6,5.1-18.6,9.1-29.9,11.8l-25,6.2-1,46.7-42.5,10.4,3.5-162.5ZM636.5,550.6c10.5-2.6,18-6.7,22.7-12.4,4.7-5.7,6.1-12.2,4.3-19.4-1-4.2-3.4-7.4-7-9.6-4.9-3-11.4-3.4-19.5-1.4l-15.7,3.9-.8,42.9,15.9-3.9Z"/>
      </g>
    </g>
  </g>
  <g>
    <path class="st3" d="M1026.6,734.7c0,21.3-74.3,27.5-81.9,46.1-7.9,19.1,39.8,76.1,25.4,90.6-14.4,14.4-71.3-33.3-90.6-25.4-18.5,7.7-24.8,81.9-46.1,81.9s-27.5-74.3-46.1-81.9c-19.1-7.9-76.1,39.8-90.6,25.4-14.4-14.4,33.3-71.3,25.4-90.6-7.7-18.5-81.9-24.8-81.9-46.1s74.3-27.5,81.9-46.1c7.9-19.1-39.8-76.1-25.4-90.6s71.3,33.3,90.6,25.4c18.5-7.7,24.8-81.9,46.1-81.9s27.5,74.3,46.1,81.9c19.1,7.9,76.1-39.8,90.6-25.4,14.4,14.4-33.3,71.3-25.4,90.6,7.7,18.5,81.9,24.8,81.9,46.1Z"/>
    <g>
      <path class="st7" d="M1008.1,716.2c0,21.3-74.3,27.5-81.9,46.1-7.9,19.1,39.8,76.1,25.4,90.6-14.4,14.4-71.3-33.3-90.6-25.4-18.5,7.7-24.8,81.9-46.1,81.9s-27.5-74.3-46.1-81.9c-19.1-7.9-76.1,39.8-90.6,25.4-14.4-14.4,33.3-71.3,25.4-90.6-7.7-18.5-81.9-24.8-81.9-46.1s74.3-27.5,81.9-46.1c7.9-19.1-39.8-76.1-25.4-90.6,14.4-14.4,71.3,33.3,90.6,25.4,18.5-7.7,24.8-81.9,46.1-81.9s27.5,74.3,46.1,81.9c19.1,7.9,76.1-39.8,90.6-25.4s-33.3,71.3-25.4,90.6c7.7,18.5,81.9,24.8,81.9,46.1Z"/>
      <path class="st5" d="M815,911.8c-13.2,0-20.3-21.4-27.9-44-5.8-17.2-11.7-35-19.1-38-7.9-3.4-26,5.7-42,13.6-20.8,10.3-40.5,20.2-49.4,11.2-8.9-8.9.8-28.6,11.2-49.4,7.9-15.9,17-33.9,13.6-42-3.1-7.5-20.9-13.3-38-19.1-22.6-7.6-44-14.7-44-27.9s21.4-20.3,44-27.9c17.2-5.8,35-11.7,38-19.1,3.4-7.9-5.7-26-13.6-42-10.3-20.8-20.1-40.5-11.2-49.4,8.9-8.9,28.6.8,49.4,11.2,15.9,7.9,33.9,16.8,42,13.6,7.5-3.1,13.3-20.9,19.1-38,7.6-22.6,14.7-44,27.9-44s20.3,21.4,27.9,44c5.8,17.2,11.7,35,19.1,38,8.1,3.4,26-5.7,42-13.6,20.8-10.3,40.5-20.1,49.4-11.2,8.9,8.9-.8,28.6-11.2,49.4-7.9,15.9-17,33.9-13.6,42,3.1,7.5,20.9,13.3,38,19.1,22.6,7.6,44,14.7,44,27.9s-21.4,20.3-44,27.9c-17.2,5.8-35,11.7-38,19.1-3.4,7.9,5.7,26,13.6,42,10.3,20.8,20.2,40.5,11.2,49.4-8.9,8.9-28.6-.8-49.4-11.2-15.9-7.9-33.9-17-42-13.6-7.5,3.1-13.3,20.9-19.1,38-7.6,22.6-14.7,44-27.9,44ZM763.9,823.8c2.3,0,4.3.4,6.1,1.1,9.6,4,15.6,22,22,41.1,6.4,19,13.5,40.5,23,40.5s16.7-21.5,23-40.5c6.4-19.1,12.4-37.2,22-41.1,10.1-4.2,27.7,4.4,46.2,13.7,17.4,8.7,37.2,18.5,43.4,12.1,6.3-6.3-3.5-26.1-12.1-43.4-9.3-18.5-17.9-36.1-13.7-46.2,4-9.6,22-15.6,41.1-22,19-6.4,40.5-13.5,40.5-23s-21.5-16.7-40.5-23c-19.1-6.4-37.2-12.4-41.1-22-4.2-10.1,4.4-27.7,13.7-46.2,8.7-17.4,18.5-37.2,12.1-43.4-6.3-6.3-26.1,3.5-43.4,12.1-18.5,9.3-36.1,17.9-46.2,13.7-9.6-4-15.6-22-22-41.1-6.4-19-13.5-40.5-23-40.5s-16.7,21.5-23,40.5c-6.4,19.1-12.4,37.2-22,41.1-10.1,4.2-27.7-4.4-46.2-13.7-17.4-8.7-37.2-18.5-43.4-12.1-6.3,6.3,3.5,26.1,12.1,43.4,9.3,18.5,17.9,36.1,13.7,46.2-4,9.6-22,15.6-41.1,22-19,6.4-40.5,13.5-40.5,23s21.5,16.7,40.5,23c19.1,6.4,37.2,12.4,41.1,22,4.2,10.1-4.4,27.7-13.7,46.2-8.7,17.4-18.5,37.2-12.1,43.4,6.3,6.3,26.1-3.5,43.4-12.1,15.3-7.6,29.8-14.8,40.2-14.8h0Z"/>
    </g>
  </g>
  <path class="st5" d="M798.3,775.9c-4.5,0-9.1-1.7-12.5-5.2l-34.4-34.4c-6.9-6.9-6.9-18.1,0-25s18.1-6.9,25,0l21.9,21.9,55.5-55.5c6.9-6.9,18.1-6.9,25,0s6.9,18.1,0,25l-68,68c-3.5,3.5-8,5.2-12.5,5.2Z"/>
</svg>