<?xml version="1.0" encoding="UTF-8"?>
<svg id="Layer_1" xmlns="http://www.w3.org/2000/svg" version="1.1" viewBox="0 0 1080 1080">
  <!-- Generator: Adobe Illustrator 29.6.1, SVG Export Plug-In . SVG Version: 2.1.1 Build 9)  -->
  <defs>
    <style>
      .st0 {
        fill: none;
      }

      .st1 {
        fill: #d2d5d9;
      }

      .st1, .st2 {
        mix-blend-mode: multiply;
      }

      .st1, .st2, .st3, .st4, .st5 {
        isolation: isolate;
      }

      .st2, .st6 {
        fill: #b6c4d5;
      }

      .st7, .st4 {
        fill: #b01e3f;
      }

      .st8 {
        fill: #d05977;
      }

      .st9, .st5 {
        fill: #fff;
      }

      .st4 {
        mix-blend-mode: overlay;
      }

      .st4, .st5 {
        opacity: .2;
      }

      .st10 {
        fill: #e0e1e0;
      }
    </style>
  </defs>
  <g class="st3">
    <g id="Layer_11" data-name="Layer_1">
      <g>
        <polygon class="st10" points="270.9 782.1 193.3 782.1 193.3 704.5 159 704.5 159 782.1 81.5 782.1 81.5 816.3 159 816.3 159 893.9 193.3 893.9 193.3 816.3 270.9 816.3 270.9 782.1"/>
        <polygon class="st10" points="336.4 655.2 290.6 655.2 290.6 609.4 270.4 609.4 270.4 655.2 224.6 655.2 224.6 675.4 270.4 675.4 270.4 721.2 290.6 721.2 290.6 675.4 336.4 675.4 336.4 655.2"/>
        <polygon class="st10" points="193.3 612.4 166.2 612.4 166.2 585.3 154.3 585.3 154.3 612.4 127.3 612.4 127.3 624.3 154.3 624.3 154.3 651.4 166.2 651.4 166.2 624.3 193.3 624.3 193.3 612.4"/>
        <polygon class="st10" points="257.6 272.5 230.5 272.5 230.5 245.5 218.6 245.5 218.6 272.5 191.6 272.5 191.6 284.5 218.6 284.5 218.6 311.5 230.5 311.5 230.5 284.5 257.6 284.5 257.6 272.5"/>
        <polygon class="st10" points="780.4 793.2 753.4 793.2 753.4 766.2 741.5 766.2 741.5 793.2 714.4 793.2 714.4 805.1 741.5 805.1 741.5 832.2 753.4 832.2 753.4 805.1 780.4 805.1 780.4 793.2"/>
        <polygon class="st10" points="891 451.2 813.4 451.2 813.4 373.6 779.2 373.6 779.2 451.2 701.6 451.2 701.6 485.4 779.2 485.4 779.2 563 813.4 563 813.4 485.4 891 485.4 891 451.2"/>
        <polygon class="st10" points="956.5 324.3 910.7 324.3 910.7 278.5 890.5 278.5 890.5 324.3 844.7 324.3 844.7 344.5 890.5 344.5 890.5 390.3 910.7 390.3 910.7 344.5 956.5 344.5 956.5 324.3"/>
        <polygon class="st10" points="813.4 281.5 786.4 281.5 786.4 254.5 774.5 254.5 774.5 281.5 747.4 281.5 747.4 293.5 774.5 293.5 774.5 320.5 786.4 320.5 786.4 293.5 813.4 293.5 813.4 281.5"/>
        <path class="st6" d="M698.2,401.5l-303.6,62.3c-4,.8-6.2,6-4.9,11.5,1.3,5.6,5.6,9.4,9.6,8.6l303.6-62.3c4-.8,6.2-6,4.9-11.5-1.3-5.6-5.6-9.4-9.6-8.6"/>
        <path class="st2" d="M699.7,409.7l-303.6,62.3c-2.8.6-4.6,3.3-5.1,6.7,1.9,3.6,5.2,5.8,8.3,5.2l303.6-62.3c2.8-.6,4.6-3.3,5.1-6.7-1.9-3.6-5.2-5.8-8.3-5.2Z"/>
        <g>
          <path class="st7" d="M826,862.4l-297.6,57.9c-29.6,5.8-62-18-72.4-53l-181.5-598.8c-8.9-30,1.3-58.6,23-69.8l-29.5,15.2c-21.7,11.2-31.9,39.8-23,69.8l181.5,598.8c10.4,35,42.8,58.8,72.4,53l297.6-57.9c4.2-.8,8.2-2.2,11.8-4.1l29.5-15.2c-3.6,1.9-7.6,3.2-11.8,4.1Z"/>
          <g>
            <path class="st8" d="M287.4,366.7c-4.9,2.5-6.8,11.6-4.2,20.3l28.6,96.4c2.6,8.7,8.6,13.7,13.5,11.2s6.7-11.6,4.2-20.3l-28.6-96.4c-2.6-8.7-8.6-13.7-13.5-11.2"/>
            <path class="st8" d="M333.1,520.6c-4.9,2.5-6.8,11.6-4.2,20.3l12.6,42.5c2.6,8.7,8.6,13.7,13.5,11.2s6.7-11.6,4.2-20.3l-12.6-42.5c-2.6-8.7-8.6-13.7-13.5-11.2"/>
          </g>
          <path class="st8" d="M606.8,136.7c29.6-5.8,62,18,72.4,53l181.5,598.8c10.4,35-5.2,68.1-34.8,73.9l-297.6,57.9c-29.6,5.8-62-18-72.4-53l-181.5-598.8c-10.4-35,5.2-68.1,34.8-73.9l297.6-57.9h0Z"/>
          <g>
            <path class="st9" d="M613.9,157.5l-299.3,58.2c-19.3,3.8-29.5,25.4-22.7,48.3l182.1,600.7c6.8,22.9,28,38.4,47.3,34.6l299.3-58.2c19.3-3.8,29.5-25.4,22.7-48.3l-182.1-600.7c-6.8-22.9-28-38.4-47.3-34.7"/>
            <path class="st1" d="M811.6,855.6l-120.3-515.6-308.4,64.5,120.3,515.6c6.5,27.6,27.8,46.8,47.6,42.7l236.6-49.7c19.8-4.1,30.6-29.8,24.1-57.4h0Z"/>
            <path class="st8" d="M666.6,334.5l-296.2,57.6c-3.9.8-5.9,5.1-4.6,9.7,1.4,4.6,5.6,7.7,9.5,7l296.2-57.6c3.9-.8,5.9-5.1,4.6-9.7-1.4-4.6-5.6-7.7-9.5-7"/>
          </g>
        </g>
        <g>
          <g>
            <line class="st0" x1="427.9" y1="231.8" x2="519.1" y2="214.1"/>
            <path class="st8" d="M429.1,252.2c-10.1.6-19.3-6.3-21.2-16.5-2.2-11.1,5.1-21.8,16.1-23.9l91.2-17.7c11.1-2.1,21.8,5.1,23.9,16.1,2.2,11.1-5.1,21.8-16.1,23.9l-91.2,17.7c-.9.2-1.8.3-2.7.3h0Z"/>
          </g>
          <path class="st7" d="M430.2,246.1c-3.8.2-7.6-1.1-10.4-3.6-.7-.6-1.3-1.3-1.9-2.1-.6-.7-1.1-1.6-1.5-2.4-.4-.8-.7-1.7-1-2.6-.3-.9-.4-1.9-.5-2.8-.2-3.8,1.1-7.6,3.6-10.4,3.1-3.6,8-5.4,12.7-4.7.9.1,1.9.4,2.7.7.9.3,1.8.7,2.6,1.2.8.5,1.6,1,2.3,1.6,2.8,2.5,4.6,6.1,4.8,9.9,0,.9,0,1.9-.1,2.8-.1.9-.3,1.9-.6,2.7-.3.9-.7,1.8-1.2,2.6s-1,1.6-1.6,2.3-1.3,1.3-2.1,1.9c-.7.6-1.6,1.1-2.4,1.5s-1.7.7-2.6,1-1.9.4-2.8.5h0Z"/>
        </g>
        <g>
          <g>
            <path class="st7" d="M792.5,777.7c-19-47.5-32.7-125.2-42.2-187.7-.8-5-1.5-10-2.3-15-9.2-60.4-17.8-117.4-29.8-160.5-3.3-11.9-6.7-22.3-10.3-31.3-9.4-23.5-20-37.1-32.2-41.9-3.5-1.3-7.2-1.6-10.8-.8-32.7,6.5-246.3,49.2-289.3,57.8-1.6.3-1.7,2.8-.2,3.5,12,5,22.3,18.6,31.5,41.6,3.6,9,7,19.4,10.3,31.3,12,43.1,20.6,100.1,29.8,160.5.8,5,1.5,10,2.3,15,9.5,62.5,23.2,140.2,42.2,187.7,7.5,18.7,23.1,53.5,65.5,76,15.2,8.1,35.5,10.2,52,6.9l257.8-51.5c5.9-1.2,7.1-10.6,1.7-13.8-59-34.4-68.2-58.3-75.9-77.7h0Z"/>
            <path class="st4" d="M399.4,393.5s240.6,102.6,369.8,301.8c-7.5-34.9-13.8-72.3-18.8-105.4-.8-5-1.5-10-2.3-15-9.2-60.4-17.8-117.4-29.8-160.5-3.3-11.9-6.7-22.3-10.3-31.3-9.4-23.5-20-37.1-32.2-41.9-3.5-1.3-7.2-1.6-10.9-.8-28.6,5.7-195.2,39-265.5,53.1h0Z"/>
          </g>
          <circle class="st5" cx="600.8" cy="625.2" r="124.7"/>
          <g>
            <g class="st3">
              <g class="st3">
                <path class="st9" d="M546.9,557.8h34.9c7.7,0,14.2.8,19.4,2.5,5.2,1.7,9.3,4.1,12.4,7.1,2.5,2.5,4.2,5.3,5.4,8.5,1.1,3.2,1.7,6.7,1.7,10.4,0,7.8-2.2,14.5-6.7,20.3-4.5,5.8-11.5,9.9-21,12.5l14.3,31.2h-28.3l-12.3-28h-11.4l-7.5,28h-25.8l24.8-92.5ZM575.4,602.2c5.8,0,10.4-1.2,13.9-3.5,3.4-2.3,5.2-5.4,5.2-9.4s-.8-4.5-2.4-6.2c-2.1-2.1-5.9-3.2-11.4-3.2h-13.9l-6.1,22.3h14.7Z"/>
              </g>
            </g>
            <g class="st3">
              <g class="st3">
                <path class="st9" d="M614.8,601h30.2c7.6,0,13.9.8,19,2.4,5.1,1.6,9.3,4.1,12.7,7.4,4.8,4.8,7.3,11.1,7.3,18.9s-1.1,10.9-3.4,15.5c-2.2,4.6-5.4,8.5-9.4,11.8-4,3.2-8.8,5.7-14.5,7.4-5.6,1.7-11.9,2.6-18.8,2.6h-15.2l-7.1,26.6h-25.8l24.8-92.5ZM637.7,647c6.3,0,11.2-1.3,14.7-3.9,3.5-2.6,5.2-6.1,5.2-10.5s-.9-4.7-2.6-6.5c-2.4-2.4-6-3.6-11-3.6h-9.5l-6.5,24.4h9.6Z"/>
              </g>
            </g>
          </g>
        </g>
      </g>
    </g>
  </g>
</svg>