<?xml version="1.0" encoding="UTF-8"?>
<svg id="Layer_1" xmlns="http://www.w3.org/2000/svg" version="1.1" viewBox="0 0 1080 1080">
  <!-- Generator: Adobe Illustrator 29.6.1, SVG Export Plug-In . SVG Version: 2.1.1 Build 9)  -->
  <defs>
    <style>
      .st0, .st1, .st2 {
        fill: none;
      }

      .st1 {
        stroke: #e0e1e0;
        stroke-miterlimit: 10;
      }

      .st1, .st2 {
        stroke-width: 4.5px;
      }

      .st3 {
        fill: #d2d5d9;
        mix-blend-mode: multiply;
      }

      .st3, .st4, .st5, .st6 {
        isolation: isolate;
      }

      .st7, .st5 {
        fill: #b01e3f;
      }

      .st8 {
        fill: #d05977;
      }

      .st9, .st6 {
        fill: #fff;
      }

      .st2 {
        stroke: #d05977;
        stroke-linecap: round;
        stroke-linejoin: round;
      }

      .st5 {
        mix-blend-mode: overlay;
      }

      .st5, .st6 {
        opacity: .2;
      }

      .st10 {
        fill: #81142e;
      }
    </style>
  </defs>
  <g class="st4">
    <g id="Layer_11" data-name="Layer_1">
      <g>
        <g>
          <g>
            <rect class="st1" x="835.4" y="860.6" width="39.8" height="39.8"/>
            <rect class="st1" x="732.1" y="860.6" width="39.8" height="39.8"/>
            <rect class="st1" x="847.4" y="600.4" width="39.8" height="39.8"/>
            <rect class="st1" x="791.7" y="600.4" width="39.8" height="39.8"/>
            <rect class="st1" x="744" y="600.4" width="39.8" height="39.8"/>
            <rect class="st1" x="847.4" y="552.7" width="39.8" height="39.8"/>
            <rect class="st1" x="744" y="552.7" width="39.8" height="39.8"/>
            <rect class="st1" x="688.5" y="552.7" width="39.8" height="39.8"/>
            <rect class="st1" x="791.7" y="497.2" width="39.8" height="39.8"/>
            <rect class="st1" x="744" y="497.2" width="39.8" height="39.8"/>
            <rect class="st1" x="847.4" y="441.7" width="39.8" height="39.8"/>
            <rect class="st1" x="791.7" y="441.7" width="39.8" height="39.8"/>
            <rect class="st1" x="744" y="441.7" width="39.8" height="39.8"/>
            <rect class="st1" x="925.7" y="389.9" width="39.8" height="39.8"/>
            <rect class="st1" x="925.7" y="439.4" width="39.8" height="39.8"/>
            <rect class="st1" x="847.4" y="386" width="39.8" height="39.8"/>
            <rect class="st1" x="744" y="386" width="39.8" height="39.8"/>
            <rect class="st1" x="688.5" y="386" width="39.8" height="39.8"/>
            <rect class="st1" x="985.2" y="416.6" width="39.8" height="39.8"/>
            <rect class="st1" x="791.7" y="338.3" width="39.8" height="39.8"/>
            <rect class="st1" x="744" y="338.3" width="39.8" height="39.8"/>
            <rect class="st1" x="791.7" y="282.8" width="39.8" height="39.8"/>
            <rect class="st1" x="744" y="282.8" width="39.8" height="39.8"/>
            <rect class="st1" x="688.5" y="282.8" width="39.8" height="39.8"/>
            <rect class="st1" x="847.4" y="227.2" width="39.8" height="39.8"/>
            <rect class="st1" x="744" y="227.2" width="39.8" height="39.8"/>
            <rect class="st1" x="688.5" y="227.2" width="39.8" height="39.8"/>
            <rect class="st1" x="744" y="179.6" width="39.8" height="39.8"/>
            <rect class="st1" x="791.7" y="815" width="39.8" height="39.8"/>
            <rect class="st1" x="847.4" y="759.3" width="39.8" height="39.8"/>
            <rect class="st1" x="791.7" y="759.3" width="39.8" height="39.8"/>
            <rect class="st1" x="744" y="759.3" width="39.8" height="39.8"/>
            <rect class="st1" x="744" y="711.6" width="39.8" height="39.8"/>
            <rect class="st1" x="688.5" y="711.6" width="39.8" height="39.8"/>
            <rect class="st1" x="791.7" y="656.1" width="39.8" height="39.8"/>
            <rect class="st1" x="744" y="656.1" width="39.8" height="39.8"/>
            <rect class="st1" x="905.8" y="509" width="39.8" height="39.8"/>
          </g>
          <g>
            <rect class="st1" x="204.9" y="179.5" width="39.8" height="39.8"/>
            <rect class="st1" x="308.1" y="179.5" width="39.8" height="39.8"/>
            <rect class="st1" x="192.8" y="439.8" width="39.8" height="39.8"/>
            <rect class="st1" x="248.6" y="439.8" width="39.8" height="39.8"/>
            <rect class="st1" x="296.2" y="439.8" width="39.8" height="39.8"/>
            <rect class="st1" x="296.2" y="487.4" width="39.8" height="39.8"/>
            <rect class="st1" x="351.7" y="487.4" width="39.8" height="39.8"/>
            <rect class="st1" x="296.2" y="543" width="39.8" height="39.8"/>
            <rect class="st1" x="192.8" y="598.5" width="39.8" height="39.8"/>
            <rect class="st1" x="248.6" y="598.5" width="39.8" height="39.8"/>
            <rect class="st1" x="296.2" y="598.5" width="39.8" height="39.8"/>
            <rect class="st1" x="114.5" y="650.3" width="39.8" height="39.8"/>
            <rect class="st1" x="114.5" y="600.7" width="39.8" height="39.8"/>
            <rect class="st1" x="192.8" y="654.2" width="39.8" height="39.8"/>
            <rect class="st1" x="296.2" y="654.2" width="39.8" height="39.8"/>
            <rect class="st1" x="351.7" y="654.2" width="39.8" height="39.8"/>
            <rect class="st1" x="55" y="623.5" width="39.8" height="39.8"/>
            <rect class="st1" x="248.6" y="701.9" width="39.8" height="39.8"/>
            <rect class="st1" x="296.2" y="701.9" width="39.8" height="39.8"/>
            <rect class="st1" x="248.6" y="757.4" width="39.8" height="39.8"/>
            <rect class="st1" x="296.2" y="757.4" width="39.8" height="39.8"/>
            <rect class="st1" x="351.7" y="757.4" width="39.8" height="39.8"/>
            <rect class="st1" x="192.8" y="813" width="39.8" height="39.8"/>
            <rect class="st1" x="296.2" y="813" width="39.8" height="39.8"/>
            <rect class="st1" x="351.7" y="813" width="39.8" height="39.8"/>
            <rect class="st1" x="296.2" y="860.7" width="39.8" height="39.8"/>
            <rect class="st1" x="248.6" y="225.2" width="39.8" height="39.8"/>
            <rect class="st1" x="192.8" y="280.9" width="39.8" height="39.8"/>
            <rect class="st1" x="296.2" y="280.9" width="39.8" height="39.8"/>
            <rect class="st1" x="296.2" y="328.5" width="39.8" height="39.8"/>
            <rect class="st1" x="351.7" y="328.5" width="39.8" height="39.8"/>
            <rect class="st1" x="248.6" y="384.1" width="39.8" height="39.8"/>
            <rect class="st1" x="296.2" y="384.1" width="39.8" height="39.8"/>
            <rect class="st1" x="134.3" y="531.2" width="39.8" height="39.8"/>
          </g>
        </g>
        <g>
          <polygon class="st8" points="289.9 319 288.5 270.5 620.5 205.9 621.8 254.4 289.9 319"/>
          <line class="st0" x1="333.5" y1="313.7" x2="665.5" y2="249.2"/>
          <polygon class="st7" points="330.1 338 328.8 289.5 660.7 224.9 662.1 273.4 330.1 338"/>
        </g>
        <path class="st3" d="M770.5,759l-118.1-505.9-302.6,63.3,118.1,505.9c6.4,27.1,27.3,45.9,46.7,41.9l232.2-48.8c19.5-4,30.1-29.2,23.7-56.4h0Z"/>
        <path class="st8" d="M643.9,247.8l-291.6,56.7c-3.8.7-5.8,5-4.5,9.5s5.5,7.6,9.4,6.9l291.6-56.7c3.8-.7,5.8-5,4.5-9.5s-5.5-7.6-9.4-6.9"/>
        <g>
          <g>
            <path class="st7" d="M766.7,684.3c-18.7-46.7-32.1-123.2-41.5-184.8-.8-4.9-1.5-9.8-2.2-14.8-9-59.4-17.5-115.5-29.3-158-3.2-11.7-6.6-22-10.2-30.8-9.3-23.1-19.6-36.6-31.7-41.2-3.4-1.3-7.1-1.5-10.7-.8-32.2,6.4-242.4,48.4-284.7,56.9-1.5.3-1.7,2.8-.2,3.4,11.8,4.9,22,18.3,31,40.9,3.5,8.8,6.9,19.1,10.2,30.8,11.8,42.5,20.3,98.6,29.3,158,.7,4.9,1.5,9.8,2.2,14.8,9.4,61.5,22.8,138,41.5,184.8,7.4,18.4,22.7,52.6,64.5,74.8,15,7.9,35,10,51.1,6.8l253.7-50.7c5.8-1.2,7-10.5,1.7-13.6-58.1-33.9-67.1-57.4-74.8-76.5h.1Z"/>
            <path class="st5" d="M379.7,306.1s236.8,101,364,297.1c-7.4-34.4-13.5-71.1-18.5-103.7-.8-4.9-1.5-9.8-2.2-14.8-9-59.4-17.5-115.5-29.3-158-3.2-11.7-6.6-22-10.2-30.8-9.3-23.1-19.6-36.6-31.7-41.2-3.4-1.3-7.1-1.5-10.7-.8-28.1,5.6-192.1,38.4-261.3,52.2h0Z"/>
          </g>
          <circle class="st6" cx="578" cy="534.2" r="122.8"/>
          <g>
            <g class="st4">
              <g class="st4">
                <path class="st9" d="M524.9,467.9h34.3c7.6,0,14,.8,19.1,2.5,5.1,1.6,9.2,4,12.2,7,2.4,2.4,4.2,5.2,5.3,8.4,1.1,3.2,1.7,6.6,1.7,10.2,0,7.6-2.2,14.3-6.6,20-4.4,5.7-11.3,9.8-20.6,12.3l14,30.7h-27.8l-12.1-27.6h-11.2l-7.4,27.6h-25.4l24.4-91ZM552.9,511.6c5.7,0,10.3-1.1,13.7-3.4,3.4-2.3,5.1-5.4,5.1-9.3s-.8-4.4-2.3-6.1c-2.1-2.1-5.8-3.1-11.2-3.1h-13.7l-6,22h14.4Z"/>
              </g>
            </g>
            <g class="st4">
              <g class="st4">
                <path class="st9" d="M591.7,510.4h29.8c7.5,0,13.7.8,18.7,2.3,5,1.6,9.2,4,12.5,7.3,4.8,4.8,7.1,11,7.1,18.6s-1.1,10.7-3.3,15.3c-2.2,4.5-5.3,8.4-9.2,11.6-3.9,3.2-8.7,5.6-14.2,7.3-5.5,1.7-11.7,2.5-18.5,2.5h-14.9l-7,26.1h-25.3l24.4-91ZM614.3,555.6c6.2,0,11.1-1.3,14.5-3.8,3.4-2.6,5.1-6,5.1-10.3s-.9-4.6-2.6-6.4c-2.3-2.3-5.9-3.5-10.8-3.5h-9.4l-6.4,24h9.5Z"/>
              </g>
            </g>
          </g>
        </g>
        <polygon class="st10" points="288.5 270.5 328.8 289.5 330.1 338 289.9 319 288.5 270.5"/>
        <polygon class="st8" points="660.7 224.9 620.5 205.9 621.2 232.6 660.7 224.9"/>
        <path class="st2" d="M743,364.1c.5,3,.8,4.7.8,4.7"/>
        <path class="st2" d="M739.4,345c.5,2.7,1,5.2,1.5,7.5"/>
        <path class="st2" d="M736.7,332.5c.4,1.9.8,3.7,1.2,5.5"/>
        <g>
          <path class="st2" d="M704.8,255.7c13.6,11.1,24,43.8,30.6,71.3"/>
          <polygon class="st8" points="702 280 706.5 279.8 705.4 257.7 727.6 258.2 727.7 253.7 700.7 253.1 702 280"/>
        </g>
      </g>
    </g>
  </g>
</svg>