<?xml version="1.0" encoding="UTF-8"?>
<svg xmlns="http://www.w3.org/2000/svg" version="1.1" viewBox="0 0 1080 1080">
  <!-- Generator: Adobe Illustrator 29.6.1, SVG Export Plug-In . SVG Version: 2.1.1 Build 9)  -->
  <defs>
    <style>
      .st0 {
        fill: none;
        stroke: #e0e1e0;
        stroke-width: 4.2px;
      }

      .st0, .st1 {
        stroke-miterlimit: 10;
      }

      .st2 {
        fill: #c34560;
      }

      .st3 {
        isolation: isolate;
      }

      .st4 {
        fill: #5b111f;
      }

      .st5 {
        fill: #fff;
      }

      .st6, .st7 {
        fill: #471519;
      }

      .st8, .st9 {
        fill: #d2d5d9;
        mix-blend-mode: multiply;
      }

      .st8, .st7 {
        font-family: GothamBlack-Italic, 'Gotham Black';
        font-size: 20.7px;
        font-style: italic;
      }

      .st10, .st1 {
        fill: #d15a79;
      }

      .st11 {
        fill: #c54762;
      }

      .st12 {
        fill: #b01e3f;
        opacity: 0;
      }

      .st1 {
        stroke: #000;
        stroke-width: 3.5px;
      }
    </style>
  </defs>
  <g class="st3">
    <g id="Layer_1">
      <g>
        <g>
          <g>
            <rect class="st0" x="629.3" y="331.5" width="37.3" height="37.3"/>
            <rect class="st0" x="532.5" y="331.5" width="37.3" height="37.3"/>
            <rect class="st0" x="640.6" y="575.4" width="37.3" height="37.3"/>
            <rect class="st0" x="588.4" y="575.4" width="37.3" height="37.3"/>
            <rect class="st0" x="543.7" y="575.4" width="37.3" height="37.3"/>
            <rect class="st0" x="640.6" y="620.1" width="37.3" height="37.3"/>
            <rect class="st0" x="543.7" y="620.1" width="37.3" height="37.3"/>
            <rect class="st0" x="491.6" y="620.1" width="37.3" height="37.3"/>
            <rect class="st0" x="588.4" y="672.2" width="37.3" height="37.3"/>
            <rect class="st0" x="543.7" y="672.2" width="37.3" height="37.3"/>
            <rect class="st0" x="640.6" y="724.2" width="37.3" height="37.3"/>
            <rect class="st0" x="588.4" y="724.2" width="37.3" height="37.3"/>
            <rect class="st0" x="543.7" y="724.2" width="37.3" height="37.3"/>
            <rect class="st0" x="714" y="772.7" width="37.3" height="37.3"/>
            <rect class="st0" x="714" y="726.3" width="37.3" height="37.3"/>
            <rect class="st0" x="640.6" y="776.4" width="37.3" height="37.3"/>
            <rect class="st0" x="543.7" y="776.4" width="37.3" height="37.3"/>
            <rect class="st0" x="491.6" y="776.4" width="37.3" height="37.3"/>
            <rect class="st0" x="769.7" y="747.7" width="37.3" height="37.3"/>
            <rect class="st0" x="588.4" y="821.1" width="37.3" height="37.3"/>
            <rect class="st0" x="543.7" y="821.1" width="37.3" height="37.3"/>
            <rect class="st0" x="588.4" y="873.1" width="37.3" height="37.3"/>
            <rect class="st0" x="543.7" y="873.1" width="37.3" height="37.3"/>
            <rect class="st0" x="491.6" y="873.1" width="37.3" height="37.3"/>
            <rect class="st0" x="640.6" y="925.2" width="37.3" height="37.3"/>
            <rect class="st0" x="543.7" y="925.2" width="37.3" height="37.3"/>
            <rect class="st0" x="491.6" y="925.2" width="37.3" height="37.3"/>
            <rect class="st0" x="543.7" y="969.9" width="37.3" height="37.3"/>
            <rect class="st0" x="588.4" y="374.3" width="37.3" height="37.3"/>
            <rect class="st0" x="640.6" y="426.5" width="37.3" height="37.3"/>
            <rect class="st0" x="588.4" y="426.5" width="37.3" height="37.3"/>
            <rect class="st0" x="543.7" y="426.5" width="37.3" height="37.3"/>
            <rect class="st0" x="543.7" y="471.2" width="37.3" height="37.3"/>
            <rect class="st0" x="491.6" y="471.2" width="37.3" height="37.3"/>
            <rect class="st0" x="588.4" y="523.2" width="37.3" height="37.3"/>
            <rect class="st0" x="543.7" y="523.2" width="37.3" height="37.3"/>
            <rect class="st0" x="695.4" y="661.1" width="37.3" height="37.3"/>
          </g>
          <g>
            <rect class="st0" x="323.5" y="711.2" width="37.3" height="37.3" transform="translate(684.3 1459.7) rotate(-180)"/>
            <rect class="st0" x="420.3" y="711.2" width="37.3" height="37.3" transform="translate(878 1459.7) rotate(-180)"/>
            <rect class="st0" x="312.2" y="467.3" width="37.3" height="37.3" transform="translate(661.7 971.9) rotate(-180)"/>
            <rect class="st0" x="364.5" y="467.3" width="37.3" height="37.3" transform="translate(766.2 971.9) rotate(-180)"/>
            <rect class="st0" x="409.1" y="467.3" width="37.3" height="37.3" transform="translate(855.5 971.9) rotate(-180)"/>
            <rect class="st0" x="409.1" y="422.6" width="37.3" height="37.3" transform="translate(855.5 882.5) rotate(-180)"/>
            <rect class="st0" x="461.2" y="422.6" width="37.3" height="37.3" transform="translate(959.6 882.5) rotate(-180)"/>
            <rect class="st0" x="409.1" y="370.6" width="37.3" height="37.3" transform="translate(855.5 778.4) rotate(-180)"/>
            <rect class="st0" x="312.2" y="318.5" width="37.3" height="37.3" transform="translate(661.7 674.3) rotate(-180)"/>
            <rect class="st0" x="364.5" y="318.5" width="37.3" height="37.3" transform="translate(766.2 674.3) rotate(-180)"/>
            <rect class="st0" x="409.1" y="318.5" width="37.3" height="37.3" transform="translate(855.5 674.3) rotate(-180)"/>
            <rect class="st0" x="238.8" y="270" width="37.3" height="37.3" transform="translate(514.9 577.3) rotate(-180)"/>
            <rect class="st0" x="238.8" y="316.4" width="37.3" height="37.3" transform="translate(514.9 670.1) rotate(-180)"/>
            <rect class="st0" x="312.2" y="266.3" width="37.3" height="37.3" transform="translate(661.7 569.9) rotate(-180)"/>
            <rect class="st0" x="409.1" y="266.3" width="37.3" height="37.3" transform="translate(855.5 569.9) rotate(-180)"/>
            <rect class="st0" x="461.2" y="266.3" width="37.3" height="37.3" transform="translate(959.6 569.9) rotate(-180)"/>
            <rect class="st0" x="183.1" y="295.1" width="37.3" height="37.3" transform="translate(403.4 627.4) rotate(-180)"/>
            <rect class="st0" x="364.5" y="221.6" width="37.3" height="37.3" transform="translate(766.2 480.5) rotate(-180)"/>
            <rect class="st0" x="409.1" y="221.6" width="37.3" height="37.3" transform="translate(855.5 480.5) rotate(-180)"/>
            <rect class="st0" x="364.5" y="169.6" width="37.3" height="37.3" transform="translate(766.2 376.4) rotate(-180)"/>
            <rect class="st0" x="409.1" y="169.6" width="37.3" height="37.3" transform="translate(855.5 376.4) rotate(-180)"/>
            <rect class="st0" x="461.2" y="169.6" width="37.3" height="37.3" transform="translate(959.6 376.4) rotate(-180)"/>
            <rect class="st0" x="312.2" y="117.5" width="37.3" height="37.3" transform="translate(661.7 272.3) rotate(-180)"/>
            <rect class="st0" x="409.1" y="117.5" width="37.3" height="37.3" transform="translate(855.5 272.3) rotate(-180)"/>
            <rect class="st0" x="461.2" y="117.5" width="37.3" height="37.3" transform="translate(959.6 272.3) rotate(-180)"/>
            <rect class="st0" x="409.1" y="72.9" width="37.3" height="37.3" transform="translate(855.5 183) rotate(-180)"/>
            <rect class="st0" x="364.5" y="668.5" width="37.3" height="37.3" transform="translate(766.2 1374.2) rotate(-180)"/>
            <rect class="st0" x="312.2" y="616.2" width="37.3" height="37.3" transform="translate(661.7 1269.7) rotate(-180)"/>
            <rect class="st0" x="409.1" y="616.2" width="37.3" height="37.3" transform="translate(855.5 1269.7) rotate(-180)"/>
            <rect class="st0" x="409.1" y="571.6" width="37.3" height="37.3" transform="translate(855.5 1180.4) rotate(-180)"/>
            <rect class="st0" x="461.2" y="571.6" width="37.3" height="37.3" transform="translate(959.6 1180.4) rotate(-180)"/>
            <rect class="st0" x="364.5" y="519.5" width="37.3" height="37.3" transform="translate(766.2 1076.3) rotate(-180)"/>
            <rect class="st0" x="409.1" y="519.5" width="37.3" height="37.3" transform="translate(855.5 1076.3) rotate(-180)"/>
            <rect class="st0" x="257.4" y="381.7" width="37.3" height="37.3" transform="translate(552.2 800.6) rotate(-180)"/>
          </g>
        </g>
        <g>
          <path class="st2" d="M829.7,523l-213.1-123.6c-.2-.2-.5-.3-.7-.4h0c-5.1-2.9-12.4-1.8-20,3.8l-407.8,300.3c-8.4,6.2-16,16-20.8,26.9l-8,45.4c-3,6.9-1.7,12.5,2,13.8l211.6,122.7,456.8-388.9Z"/>
          <path class="st4" d="M830.1,521.3h0s-8.3-4.9-8.3-4.9l-1.7-1-15.6-9-8.5-4.9-1.2-.7-.5-.3-1.7-1-44.1-25.6-123.7-71.7-7.3-4.2c-.2-.1-.4-.2-.8-.5-.1,0-.2-.1-.4-.2-.6-.3-1.1-.6-1.7-.8-.7-.2-1.3-.5-2-.6-5.3-1-11.5.9-17.7,5.5l-101.4,74.7-306.4,225.6c-8.7,6.4-16.4,16.4-21.4,27.9l-7.9,45c-2,4.6-2.4,9-1,12.2.9,1.9,2.2,3.2,3.7,3.6l211.4,122.6h0c0,0,1.2.7,1.2.7l457.7-389.7-.8-3ZM161.8,787.6c-.9-.3-1.6-.9-2-2-1-2.3-.7-5.9,1.1-9.9l7.9-45c4.7-10.6,12.1-20.2,20.2-26.2l307.8-226.6,100.1-73.7c4.5-3.3,8.9-5,12.8-5s.7,0,1,0c.6,0,1.1.1,1.7.3.6.1,1.1.2,1.6.5.5.2.9.4,1.4.6l6.6,3.8,123.6,71.6,42.5,24.7,2.3,1.3.7.4,1.3.8,9.3,5.4,5,2.9,14.3,8.3.9.5,5.2,3-454.1,386.6-3.4-1.9-207.6-120.3Z"/>
          <path class="st6" d="M860.7,615.2l-23.1-82c-1.1-6.2-4.3-10.7-9.1-12.6-5.7-2.3-13.1-.6-20.3,4.7l-407.8,300.3c-8.6,6.4-16.4,16.4-21.4,27.9l-8,45.2c-2.6,6-2.3,11.7.9,14.6,1.2,1.1,2.7,1.6,4.3,1.6s3.4-.5,5.2-1.6l464.9-269.5c9.2-5.3,16.1-18.9,14.4-28.7Z"/>
          <path class="st4" d="M750.9,535.2l-164.8-93.6c-5.6-3.2-12.5-2.8-17.7,1l-192.2,141.5c-1.8,1.3-2.8,3.4-2.6,5.6.1,2.2,1.3,4.2,3.2,5.3l163.4,95.1c2.9,1.7,6.1,2.5,9.3,2.5s7.7-1.2,11-3.6l191.1-140.7c2.1-1.6,3.3-4.1,3.2-6.7-.2-2.6-1.6-5-3.9-6.3Z"/>
          <path class="st2" d="M820,478.7l-48.3-18-119.6-68c-5-2.9-11.3-2.5-15.9.9l-14.6,10.9-9.5-3.6v13.3s0,0,0,.1h0c0,1.5.9,3,2.4,3.9l163.4,95.1c4.8,2.8,10.6,3,15.6.7h0s7.2-2.8,11.8-2.7c4.6,0,6.2,1,6.2,1l8.6,5v-38.7Z"/>
          <path class="st2" d="M559.1,687.6l187.5-138-161.7-91.9c-5-2.9-11.3-2.5-15.9.9l-187,137.7,158.6,92.3c5.8,3.4,13.1,3,18.5-1Z"/>
          <path class="st11" d="M815.3,627.3l-7.6-26.7c-.9-3.2-3.2-5.8-6.3-7-3.1-1.2-6.5-1-9.4.7l-59.5,34.3c-4.3,2.5-6.3,7.5-5,12.2l7.6,26.7c.9,3.2,3.2,5.8,6.3,7,1.3.5,2.7.8,4.1.8s3.7-.5,5.4-1.5l59.4-34.3c4.3-2.5,6.3-7.5,5-12.2ZM808.7,636.6l-59.4,34.3c-2,1.1-4.4,1.3-6.5.5-2.1-.9-3.7-2.6-4.4-4.9l-7.5-26.7c-.9-3.3.5-6.7,3.4-8.4l59.5-34.3c1.1-.7,2.4-1,3.7-1s1.9.2,2.8.5c2.1.9,3.7,2.6,4.3,4.9l7.6,26.7c.9,3.3-.5,6.7-3.4,8.4Z"/>
          <g>
            <path class="st4" d="M302.1,696.8l-35.3-19.8c-4.1-2.4-9.3-2.1-13.2.7l-12.1,8.8c-1.4,1-2.2,2.7-2.1,4.4,0,1.7,1,3.3,2.5,4.2l34.3,20.8c2.2,1.3,4.6,1.9,7,1.9s5.7-.9,8.1-2.6l11.3-8.3c1.7-1.2,2.6-3.2,2.5-5.2-.1-2.1-1.2-3.9-3-4.9Z"/>
            <path class="st2" d="M242.9,686l34.3,20.8c4.1,2.4,9.3,2.2,13.2-.6l11.3-8.3c2.6-1.9,2.4-5.8-.4-7.3l-35.3-19.8c-3.6-2.1-8-1.8-11.4.6l-12.1,8.9c-2,1.5-1.9,4.5.3,5.8Z"/>
            <path class="st5" d="M254.7,680.1l-9.8,7.2,32.1,19.5c4.1,2.4,9.3,2.2,13.2-.6l10.2-7.5-34.3-19.2c-3.6-2.1-8-1.8-11.4.6Z"/>
            <path class="st4" d="M302.1,689l-35.3-19.7c-4.2-2.4-9.3-2.1-13.2.7l-12.1,8.8c-1.4,1-2.2,2.7-2.1,4.4,0,1.4.7,2.7,1.8,3.6.2.2.5.4.7.6l34.3,20.8c2.1,1.3,4.6,1.9,7,1.9s5.7-.9,8.1-2.6l11.3-8.3c.4-.3.7-.6,1-1,1-1.1,1.5-2.7,1.4-4.3-.1-2-1.2-3.9-3-4.9ZM300.7,696.5l-1.9,1.4-9.4,6.9c-3.3,2.4-7.8,2.7-11.4.6l-31.6-19.2-2.3-1.4-.4-.2h0c-.5-.3-.8-.9-.9-1.5,0-.6.2-1.2.7-1.6l12.1-8.9c1.5-1.1,3.4-1.7,5.2-1.7s3,.4,4.4,1.2l35.3,19.7c.8.5,1.3,1.3,1.4,2.2,0,.8-.2,1.6-.8,2.1-.1.1-.2.2-.3.3Z"/>
          </g>
          <g>
            <path class="st4" d="M346.5,663.8l-35.3-19.8c-4.1-2.4-9.3-2.1-13.2.7l-12.1,8.8c-1.4,1-2.2,2.7-2.1,4.4,0,1.7,1,3.3,2.5,4.2l34.3,20.8c2.2,1.3,4.6,1.9,7,1.9s5.7-.9,8.1-2.6l11.3-8.3c1.7-1.2,2.6-3.2,2.5-5.2-.1-2.1-1.2-3.9-3-4.9Z"/>
            <path class="st2" d="M287.2,653l34.3,20.8c4.1,2.4,9.3,2.2,13.2-.6l11.3-8.3c2.6-1.9,2.4-5.8-.4-7.3l-35.3-19.8c-3.6-2.1-8-1.8-11.4.6l-12.1,8.9c-2,1.5-1.9,4.5.3,5.8Z"/>
            <path class="st5" d="M299,647.1l-9.8,7.2,32.1,19.5c4.1,2.4,9.3,2.2,13.2-.6l10.2-7.5-34.3-19.2c-3.6-2.1-8-1.8-11.4.6Z"/>
            <path class="st4" d="M346.5,656l-35.3-19.7c-4.1-2.4-9.3-2.1-13.2.7l-12.1,8.9c-1.4,1-2.2,2.7-2.1,4.4,0,1.4.7,2.7,1.8,3.6.2.2.5.4.8.6l34.3,20.8c2.2,1.2,4.6,1.9,7,1.9s5.7-.9,8.1-2.6l11.3-8.3c.4-.3.8-.6,1.1-1,1-1.2,1.5-2.7,1.4-4.3-.1-2-1.2-3.9-3-4.9ZM345.1,663.5l-1.9,1.4-9.4,6.9c-3.4,2.4-7.8,2.7-11.4.6l-31.6-19.2-2.4-1.4-.3-.2c-.6-.3-.9-.9-.9-1.5,0-.6.2-1.2.8-1.5l12.1-8.9c1.5-1.1,3.3-1.7,5.2-1.7s3,.4,4.4,1.2l35.3,19.8c.8.5,1.3,1.2,1.4,2.2,0,.8-.2,1.5-.8,2.1s-.2.2-.3.3Z"/>
          </g>
          <g>
            <path class="st4" d="M390.6,631.4l-35.3-19.8c-4.1-2.4-9.3-2.1-13.2.7l-12.1,8.8c-1.4,1-2.2,2.7-2.1,4.4,0,1.7,1,3.3,2.5,4.2l34.3,20.8c2.2,1.3,4.6,1.9,7,1.9s5.7-.9,8.1-2.6l11.3-8.3c1.7-1.2,2.6-3.2,2.5-5.2-.1-2.1-1.2-3.9-3-4.9Z"/>
            <path class="st2" d="M331.4,620.6l34.3,20.8c4.1,2.4,9.3,2.2,13.2-.6l11.3-8.3c2.6-1.9,2.4-5.8-.4-7.3l-35.3-19.8c-3.6-2.1-8-1.8-11.4.6l-12.1,8.9c-2,1.5-1.9,4.5.3,5.8Z"/>
            <path class="st5" d="M343.2,614.7l-9.8,7.2,32.1,19.5c4.1,2.4,9.3,2.2,13.2-.6l10.2-7.5-34.3-19.2c-3.6-2.1-8-1.8-11.4.6Z"/>
            <path class="st4" d="M390.6,623.6l-35.3-19.7c-4.1-2.4-9.3-2.1-13.2.7l-12.1,8.9c-1.4,1-2.2,2.7-2.1,4.4,0,1.4.7,2.7,1.8,3.6.2.2.5.4.8.6l34.3,20.8c2.2,1.3,4.6,1.9,7,1.9s5.7-.9,8.1-2.6l11.3-8.3c.4-.3.8-.6,1.1-1,1-1.2,1.5-2.7,1.4-4.3-.1-2-1.2-3.9-3-4.9ZM389.2,631.1l-1.9,1.4-9.4,6.9c-3.4,2.4-7.8,2.7-11.4.6l-31.7-19.2-2.3-1.4-.3-.2c-.6-.3-.9-.9-.9-1.5,0-.6.2-1.2.8-1.6l12-8.9c1.6-1.1,3.4-1.7,5.2-1.7s3,.4,4.4,1.2l35.3,19.7c.8.5,1.3,1.2,1.4,2.2,0,.8-.3,1.6-.9,2.1,0,.1-.2.2-.3.3Z"/>
          </g>
          <g>
            <path class="st4" d="M364.4,733.3l-35.3-19.8c-4.1-2.4-9.3-2.1-13.2.7l-12.1,8.8c-1.4,1-2.2,2.7-2.1,4.4,0,1.7,1,3.3,2.5,4.2l34.3,20.8c2.2,1.3,4.6,1.9,7,1.9s5.7-.9,8.1-2.6l11.3-8.3c1.7-1.2,2.6-3.2,2.5-5.2-.1-2.1-1.2-3.9-3-4.9Z"/>
            <path class="st2" d="M305.2,722.5l34.3,20.8c4.1,2.4,9.3,2.2,13.2-.6l11.3-8.3c2.6-1.9,2.4-5.8-.4-7.3l-35.3-19.8c-3.6-2.1-8-1.8-11.4.6l-12.1,8.9c-2,1.5-1.9,4.5.3,5.8Z"/>
            <path class="st5" d="M317,716.6l-9.8,7.2,32.1,19.5c4.1,2.4,9.3,2.2,13.2-.6l10.2-7.5-34.3-19.2c-3.6-2.1-8-1.8-11.4.6Z"/>
            <path class="st4" d="M364.5,725.5l-35.3-19.7c-4.2-2.4-9.3-2.1-13.2.7l-12,8.9c-1.4,1-2.2,2.7-2.1,4.4,0,1.4.7,2.7,1.8,3.6.2.2.5.4.7.5l34.3,20.8c2.1,1.2,4.6,1.9,7,1.9s5.7-.9,8.1-2.6l11.3-8.3c.4-.3.8-.6,1.1-1,1-1.2,1.5-2.7,1.4-4.2-.1-2-1.2-3.9-3-4.9ZM363,733l-1.8,1.4-9.5,7c-3.3,2.4-7.8,2.6-11.4.6l-31.6-19.2-2.3-1.4-.3-.2h0c-.5-.3-.8-.9-.9-1.5,0-.6.2-1.2.7-1.6l12.1-8.8c1.5-1.1,3.4-1.7,5.2-1.7s3,.4,4.4,1.2l35.3,19.7c.8.5,1.3,1.3,1.4,2.2,0,.8-.2,1.6-.8,2-.1.1-.2.2-.3.3Z"/>
          </g>
          <g>
            <path class="st4" d="M408.8,700.3l-35.3-19.8c-4.1-2.4-9.3-2.1-13.2.7l-12.1,8.8c-1.4,1-2.2,2.7-2.1,4.4,0,1.7,1,3.3,2.5,4.2l34.3,20.8c2.2,1.3,4.6,1.9,7,1.9s5.7-.9,8.1-2.6l11.3-8.3c1.7-1.2,2.6-3.2,2.5-5.2-.1-2.1-1.2-3.9-3-4.9Z"/>
            <path class="st2" d="M349.6,689.5l34.3,20.8c4.1,2.4,9.3,2.2,13.2-.6l11.3-8.3c2.6-1.9,2.4-5.8-.4-7.3l-35.3-19.8c-3.6-2.1-8-1.8-11.4.6l-12.1,8.9c-2,1.5-1.9,4.5.3,5.8Z"/>
            <path class="st5" d="M361.4,683.6l-9.8,7.2,32.1,19.5c4.1,2.4,9.3,2.2,13.2-.6l10.2-7.5-34.3-19.2c-3.6-2.1-8-1.8-11.4.6Z"/>
            <path class="st4" d="M408.8,692.5l-35.3-19.8c-4.1-2.4-9.3-2.1-13.2.7l-12.1,8.9c-1.4,1-2.2,2.7-2.1,4.4,0,1.4.7,2.7,1.8,3.6.2.2.5.4.8.6l34.3,20.8c2.1,1.2,4.5,1.9,6.9,1.9s5.7-.9,8.1-2.6l11.3-8.3c.4-.3.7-.6,1-.9,1-1.2,1.5-2.7,1.4-4.3-.1-2.1-1.2-3.9-3-4.9ZM407.4,700l-1.9,1.4-9.5,6.9c-3.4,2.4-7.8,2.6-11.4.6l-31.7-19.2-2.3-1.4-.3-.2h0c-.5-.3-.9-.9-.9-1.5s.2-1.2.8-1.6l12.1-8.8c1.5-1.1,3.3-1.7,5.2-1.7s3,.4,4.4,1.2l35.3,19.7c.8.5,1.3,1.3,1.4,2.2,0,.8-.2,1.5-.8,2.1-.1.1-.2.2-.3.3Z"/>
          </g>
          <g>
            <path class="st4" d="M452.9,667.9l-35.3-19.8c-4.1-2.4-9.3-2.1-13.2.7l-12.1,8.8c-1.4,1-2.2,2.7-2.1,4.4,0,1.7,1,3.3,2.5,4.2l34.3,20.8c2.2,1.3,4.6,1.9,7,1.9s5.7-.9,8.1-2.6l11.3-8.3c1.7-1.2,2.6-3.2,2.5-5.2s-1.2-3.9-3-4.9Z"/>
            <path class="st2" d="M393.7,657.1l34.3,20.8c4.1,2.4,9.3,2.2,13.2-.6l11.3-8.3c2.6-1.9,2.4-5.8-.4-7.3l-35.3-19.8c-3.6-2.1-8-1.8-11.4.6l-12.1,8.9c-2,1.5-1.9,4.5.3,5.8Z"/>
            <path class="st5" d="M405.5,651.2l-9.8,7.2,32.1,19.5c4.1,2.4,9.3,2.2,13.2-.6l10.2-7.5-34.3-19.2c-3.6-2.1-8-1.8-11.4.6Z"/>
            <path class="st4" d="M452.9,660.2l-35.3-19.7c-4.1-2.4-9.3-2.1-13.2.7l-12.1,8.9c-1.4,1-2.2,2.7-2.1,4.4,0,1.4.7,2.7,1.8,3.6.2.2.5.4.8.6l34.3,20.8c2.2,1.2,4.6,1.9,7,1.9s5.7-.9,8.1-2.6l11.3-8.3c.4-.3.8-.6,1.1-1,1-1.2,1.5-2.7,1.4-4.2-.1-2-1.2-3.9-3-4.9ZM451.6,667.6l-1.9,1.4-9.5,6.9c-3.4,2.4-7.8,2.6-11.4.6l-31.7-19.2-2.3-1.4-.3-.2c-.6-.3-.9-.9-.9-1.5s.2-1.2.8-1.6l12.1-8.8c1.5-1.1,3.3-1.7,5.2-1.7s3,.4,4.4,1.2l35.3,19.7c.8.5,1.3,1.3,1.4,2.2,0,.8-.2,1.5-.8,2.1s-.2.2-.3.3Z"/>
          </g>
          <g>
            <path class="st4" d="M427,769.7l-35.3-19.8c-4.1-2.4-9.3-2.1-13.2.7l-12.1,8.8c-1.4,1-2.2,2.7-2.1,4.4,0,1.7,1,3.3,2.5,4.2l34.3,20.8c2.2,1.3,4.6,1.9,7,1.9s5.7-.9,8.1-2.6l11.3-8.3c1.7-1.2,2.6-3.2,2.5-5.2-.1-2.1-1.2-3.9-3-4.9Z"/>
            <path class="st2" d="M367.7,758.8l34.3,20.8c4.1,2.4,9.3,2.2,13.2-.6l11.3-8.3c2.6-1.9,2.4-5.8-.4-7.3l-35.3-19.8c-3.6-2.1-8-1.8-11.4.6l-12.1,8.9c-2,1.5-1.9,4.5.3,5.8Z"/>
            <path class="st5" d="M379.5,753l-9.8,7.2,32.1,19.5c4.1,2.4,9.3,2.2,13.2-.6l10.2-7.5-34.3-19.2c-3.6-2.1-8-1.8-11.4.6Z"/>
            <path class="st4" d="M427,761.9l-35.3-19.7c-4.2-2.4-9.3-2.1-13.2.7l-12.1,8.8c-1.4,1-2.2,2.7-2.1,4.4,0,1.4.7,2.7,1.8,3.6.2.2.5.4.7.6l34.3,20.8c2.1,1.3,4.5,1.9,6.9,1.9s5.7-.9,8.1-2.6l11.3-8.3c.4-.3.8-.6,1.1-1,1-1.2,1.5-2.7,1.4-4.3-.1-2-1.2-3.9-3-4.9ZM425.6,769.3l-1.9,1.4-9.4,6.9c-3.3,2.5-7.8,2.7-11.4.6l-31.6-19.2-2.3-1.4-.3-.2h0c-.5-.3-.9-.9-.9-1.5,0-.6.2-1.2.8-1.6l12.1-8.9c1.5-1.1,3.3-1.7,5.2-1.7s3,.4,4.4,1.2l35.3,19.7c.8.5,1.3,1.3,1.4,2.2,0,.8-.2,1.6-.8,2.1-.1.1-.2.2-.3.3Z"/>
          </g>
          <g>
            <path class="st4" d="M471.3,736.7l-35.3-19.8c-4.1-2.4-9.3-2.1-13.2.7l-12.1,8.8c-1.4,1-2.2,2.7-2.1,4.4,0,1.7,1,3.3,2.5,4.2l34.3,20.8c2.2,1.3,4.6,1.9,7,1.9s5.7-.9,8.1-2.6l11.3-8.3c1.7-1.2,2.6-3.2,2.5-5.2-.1-2.1-1.2-3.9-3-4.9Z"/>
            <path class="st2" d="M412.1,725.9l34.3,20.8c4.1,2.4,9.3,2.2,13.2-.6l11.3-8.3c2.6-1.9,2.4-5.8-.4-7.3l-35.3-19.8c-3.6-2.1-8-1.8-11.4.6l-12.1,8.9c-2,1.5-1.9,4.5.3,5.8Z"/>
            <path class="st5" d="M423.9,720l-9.8,7.2,32.1,19.5c4.1,2.4,9.3,2.2,13.2-.6l10.2-7.5-34.3-19.2c-3.6-2.1-8-1.8-11.4.6Z"/>
            <path class="st4" d="M471.3,728.9l-35.3-19.7c-4.2-2.4-9.3-2.1-13.2.7l-12.1,8.9c-1.4,1-2.2,2.7-2.1,4.4,0,1.4.7,2.7,1.8,3.6.2.2.5.4.8.6l34.3,20.8c2.2,1.3,4.6,1.9,7,1.9s5.7-.9,8.1-2.6l11.3-8.3c.4-.3.8-.6,1.1-1,1-1.2,1.5-2.7,1.4-4.3-.1-2-1.2-3.9-3-4.9ZM469.9,736.3l-1.9,1.4-9.4,6.9c-3.4,2.4-7.8,2.7-11.4.6l-31.7-19.2-2.3-1.4-.3-.2c-.6-.3-.9-.9-.9-1.5,0-.6.2-1.2.8-1.6l12-8.9c1.6-1.1,3.4-1.7,5.2-1.7s3,.4,4.4,1.1l35.3,19.8c.8.5,1.3,1.2,1.4,2.2,0,.8-.3,1.6-.9,2.1,0,.1-.2.2-.3.3Z"/>
          </g>
          <g>
            <path class="st4" d="M515.4,704.3l-35.3-19.8c-4.1-2.4-9.3-2.1-13.2.7l-12.1,8.8c-1.4,1-2.2,2.7-2.1,4.4,0,1.7,1,3.3,2.5,4.2l34.3,20.8c2.2,1.3,4.6,1.9,7,1.9s5.7-.9,8.1-2.6l11.3-8.3c1.7-1.2,2.6-3.2,2.5-5.2-.1-2.1-1.2-3.9-3-4.9Z"/>
            <path class="st2" d="M456.2,693.5l34.3,20.8c4.1,2.4,9.3,2.2,13.2-.6l11.3-8.3c2.6-1.9,2.4-5.8-.4-7.3l-35.3-19.8c-3.6-2.1-8-1.8-11.4.6l-12.1,8.9c-2,1.5-1.9,4.5.3,5.8Z"/>
            <path class="st5" d="M468,687.6l-9.8,7.2,32.1,19.5c4.1,2.4,9.3,2.2,13.2-.6l10.2-7.5-34.3-19.2c-3.6-2.1-8-1.8-11.4.6Z"/>
            <path class="st4" d="M515.5,696.5l-35.3-19.7c-4.2-2.4-9.3-2.1-13.2.7l-12,8.8c-1.4,1-2.2,2.7-2.1,4.4,0,1.4.7,2.7,1.8,3.6.2.2.5.4.7.6l34.3,20.8c2.1,1.3,4.6,1.9,7,1.9s5.7-.9,8.1-2.6l11.3-8.3c.4-.3.7-.6,1-1,1-1.1,1.5-2.7,1.4-4.3-.1-2-1.2-3.9-3-4.9ZM514.1,703.9l-1.9,1.4-9.5,6.9c-3.3,2.4-7.8,2.7-11.4.6l-31.6-19.2-2.3-1.4-.4-.2h0c-.5-.3-.8-.9-.9-1.5,0-.6.2-1.2.7-1.6l12.1-8.9c1.5-1.1,3.4-1.7,5.2-1.7s3,.4,4.4,1.2l35.3,19.7c.8.5,1.3,1.3,1.4,2.2,0,.8-.2,1.6-.8,2.1-.1.1-.2.2-.3.3Z"/>
          </g>
          <path class="st2" d="M614.5,405.1l163.4,95.1c5.8,3.4,13.1,3,18.5-1l21.1-15.8c3.6-2.6,3.3-8.1-.6-10.3l-164.8-93.6c-5-2.9-11.3-2.5-15.9.9l-22.2,16.6c-2.8,2.1-2.6,6.4.4,8.1Z"/>
          <path class="st10" d="M614.5,418.4l163.4,95.1c5.8,3.4,13.1,3,18.5-1l21.1-15.8c3.6-2.6,3.3-8.1-.6-10.3l-164.8-93.6c-5-2.9-11.3-2.5-15.9.9l-22.2,16.6c-2.8,2.1-2.6,6.4.4,8.1Z"/>
          <path class="st4" d="M817.8,471.7l-36.6-20.8-128.2-72.8c-5.6-3.2-12.6-2.8-17.7,1l-22.2,16.6c-.2.1-.3.2-.5.4-.5.5-.9,1-1.2,1.5-.3.5-.5,1-.7,1.6,0,0,0,.1,0,.2-.1.5-.2,1-.2,1.5v.4c0,1.5.7,2.9,1.7,4,.5.5,1,.9,1.6,1.3h.1c0,0,2.9,1.7,2.9,1.7l123.2,71.7,37.1,21.6c.3.1.6.3.8.5,2.7,1.4,5.6,2,8.5,2s4-.3,5.9-.9c.7-.2,1.3-.5,1.9-.8.6-.3,1.2-.6,1.7-.9.5-.3,1-.6,1.5-1l19.2-14.4,1.9-1.5c.6-.5,1.1-.9,1.5-1.5,1-1.2,1.6-2.8,1.6-4.4,0-.3,0-.6,0-.9-.2-2.7-1.6-5-3.9-6.3ZM818.3,478.2c.1,1.6-.6,2.9-1.8,3.9l-3.1,2.4-18,13.5c-.9.7-1.9,1.2-2.9,1.7-.7.3-1.4.5-2.1.7-.8.2-1.6.4-2.5.5-3.2.3-6.4-.3-9.3-2l-35.8-20.9-123.3-71.8-4.3-2.5c-.7-.4-1.3-1.1-1.5-1.9,0-.2-.1-.4-.1-.7,0-.4,0-.8.2-1.1.1-.6.5-1.1.9-1.5,0,0,.1-.1.2-.2l1.3-1,20.9-15.6c2.3-1.7,5-2.5,7.7-2.5s4.4.6,6.4,1.7l126.8,72,38,21.6c1.3.8,2.1,2,2.2,3.5h0Z"/>
          <path class="st5" d="M731,553.9l-171.8,126.5c-5.4,4-12.7,4.4-18.5,1l-132.2-76.9-11-6.4,171.5-126.3c4.6-3.4,10.9-3.8,15.9-.9l128.9,73.2,17.2,9.8Z"/>
          <path class="st4" d="M689.9,515.5l-104.3-59.2c-5.6-3.2-12.6-2.8-17.7,1l-45.1,33.3-143.6,105.7-.2.2,160.9,93.6c2.7,1.6,5.6,2.4,8.6,2.5.2,0,.5,0,.7,0h.2c3.8,0,7.6-1.2,10.8-3.6l189.5-139.5-59.7-33.9ZM541.4,687.2l-156.4-91,141.2-104,43.7-32.2c4.1-3,9.7-3.4,14.1-.9l102.9,58.5,56.6,32.2-185.4,136.5c-4.9,3.6-11.4,3.9-16.7.9Z"/>
          <path class="st4" d="M821.7,519h0s0-40.8,0-40.8l-1.9-.7c.5,2,0,4.1-1.4,5.7v.4l-20.4,15.9-2.8,1.1c-1.8,1.1-3.8,1.9-5.9,2.2l-.7.3h-.5c-3.5.2-7-.5-10.1-2.3v11.3l-162.6-94.6c-.9-.5-1.5-1.5-1.6-2.6v-9.8c-1.5-1.3-2-3.4-1.4-5.2l-1.9-.7v15.9c.1,2.2,1.3,4.2,3.2,5.3l163.4,95.1c4.5,2.6,9.8,3.2,14.7,1.7h0c0,0,2.3-.8,2.3-.8,0,0,6.9-2.6,11.1-2.7,3.9,0,5.4.8,5.4.8l11.1,6.4v-1.9Z"/>
        </g>
        <g>
          <g>
            <path class="st9" d="M781.1,450.8l-1.5,1.1-1.5,1.1-8.9,6.3h0s-20.8,14.7-20.8,14.7l-1.5,1.1-1.5,1-2.6,1.8-1.5,1.1-1.5,1.1-7.7,5.5-1,.7-1.9,1.4-27.5,19.5-11.7,8.3-1.5,1.1-1.5,1-8.8,6.3-24.3,17.2c-3.5,2.5-7.5,3.9-11.6,4.3-4.1.3-8.3-.4-12.2-2.3l-94.8-46.4-9.1-4.5-1.7-.8-1.7-.8-11.7-5.8-14.2-7-1.7-.8-1.7-.8,101.4-74.7c6.2-4.6,12.4-6.5,17.7-5.5.1-.1.3-.2.5-.4l22.2-16.6c5.2-3.8,12.1-4.2,17.7-1l128.2,72.8Z"/>
            <path class="st1" d="M924,264.9c0-.1,0-.3,0-.4,0-.1,0-.2,0-.4l-.6-7.6c0-.3,0-.6,0-.9-.4-2.9-2.1-5.3-4.7-6.6l-190.6-93.3c-3.9-1.9-8.1-2.6-12.2-2.3s-8.1,1.8-11.6,4.3l-138.8,98.4h0s-3,2.1-3,2.1h0s-128.6,91.8-128.6,91.8c-2.1,1.5-3.3,3.8-3.5,6.4h-.1s0,1,0,1c0,.1,0,.3,0,.4,0,.1,0,.2,0,.4l.6,7.6c0,.3,0,.6,0,.9.4,2.9,2.1,5.3,4.7,6.6l190.6,93.3c3.9,1.9,8.1,2.6,12.2,2.3,4.1-.3,8.1-1.8,11.6-4.3l138.8-98.4h0s3-2.1,3-2.1h0s128.6-91.8,128.6-91.8c2.1-1.5,3.3-3.8,3.5-6.4h.1s0-1,0-1Z"/>
            <path class="st1" d="M430,356.6l190.4,94.2c9.9,4.6,21.5,3.6,30.6-2.6l272.2-192.5"/>
          </g>
          <g>
            <line class="st10" x1="879.2" y1="229.8" x2="586.1" y2="441.5"/>
            <polygon class="st6" points="600.4 441.5 571.8 428 861 220.9 890 234.6 600.4 441.5"/>
          </g>
        </g>
        <text class="st7" transform="translate(510.3 553.6) rotate(29.7)"><tspan x="0" y="0">PAYMENT</tspan></text>
        <text class="st8" transform="translate(510.3 556.8) rotate(29.7)"><tspan x="0" y="0">PAYMENT</tspan></text>
        <path class="st12" d="M731,553.9l-171.8,126.5c-5.4,4-12.7,4.4-18.5,1l-132.2-76.9,305.3-60.4,17.2,9.8Z"/>
      </g>
    </g>
  </g>
</svg>