<svg width="38" height="26" viewBox="0 0 38 26" fill="none" xmlns="http://www.w3.org/2000/svg">
<path id="Vector" d="M10.5782 1.80425C11.4771 0.927858 12.6828 0.437398 13.9382 0.4375H31.958C33.0045 0.4375 34.2225 0.728 35.2182 1.34575C36.2315 1.97225 37.1607 3.05025 37.1607 4.59375V21.6562C37.1607 23.1998 36.2315 24.276 35.2182 24.9043C34.2329 25.4946 33.1066 25.8084 31.958 25.8125H13.9382C12.6828 25.8126 11.4771 25.3221 10.5782 24.4457L1.21571 15.3178C0.923078 15.0324 0.690518 14.6914 0.53173 14.3148C0.372942 13.9383 0.291138 13.5337 0.291138 13.125C0.291138 12.7163 0.372942 12.3117 0.53173 11.9352C0.690518 11.5586 0.923078 11.2176 1.21571 10.9322L10.5782 1.80425ZM22.2192 8.6975C22.099 8.56855 21.9541 8.46512 21.7931 8.39338C21.6321 8.32165 21.4583 8.28307 21.2821 8.27996C21.1059 8.27685 20.9308 8.30927 20.7674 8.37529C20.604 8.4413 20.4555 8.53955 20.3309 8.66418C20.2063 8.78882 20.108 8.93727 20.042 9.1007C19.976 9.26413 19.9436 9.43918 19.9467 9.61541C19.9498 9.79164 19.9884 9.96544 20.0601 10.1264C20.1318 10.2874 20.2353 10.4323 20.3642 10.5525L22.9367 13.125L20.3642 15.6975C20.2353 15.8177 20.1318 15.9626 20.0601 16.1236C19.9884 16.2846 19.9498 16.4584 19.9467 16.6346C19.9436 16.8108 19.976 16.9859 20.042 17.1493C20.108 17.3127 20.2063 17.4612 20.3309 17.5858C20.4555 17.7104 20.604 17.8087 20.7674 17.8747C20.9308 17.9407 21.1059 17.9731 21.2821 17.97C21.4583 17.9669 21.6321 17.9284 21.7931 17.8566C21.9541 17.7849 22.099 17.6815 22.2192 17.5525L24.7917 14.98L27.3642 17.5525C27.4844 17.6815 27.6293 17.7849 27.7903 17.8566C27.9513 17.9284 28.1251 17.9669 28.3013 17.97C28.4775 17.9731 28.6526 17.9407 28.816 17.8747C28.9794 17.8087 29.1279 17.7104 29.2525 17.5858C29.3772 17.4612 29.4754 17.3127 29.5414 17.1493C29.6074 16.9859 29.6398 16.8108 29.6367 16.6346C29.6336 16.4584 29.5951 16.2846 29.5233 16.1236C29.4516 15.9626 29.3482 15.8177 29.2192 15.6975L26.6467 13.125L29.2192 10.5525C29.3482 10.4323 29.4516 10.2874 29.5233 10.1264C29.5951 9.96544 29.6336 9.79164 29.6367 9.61541C29.6398 9.43918 29.6074 9.26413 29.5414 9.1007C29.4754 8.93727 29.3772 8.78882 29.2525 8.66418C29.1279 8.53955 28.9794 8.4413 28.816 8.37529C28.6526 8.30927 28.4775 8.27685 28.3013 8.27996C28.1251 8.28307 27.9513 8.32165 27.7903 8.39338C27.6293 8.46512 27.4844 8.56855 27.3642 8.6975L24.7917 11.27L22.2192 8.6975Z" fill="black"/>
</svg>
