<svg width="43" height="43" viewBox="0 0 43 43" fill="none" xmlns="http://www.w3.org/2000/svg">
<path d="M13.5782 9.80425C14.4771 8.92786 15.6828 8.4374 16.9382 8.4375H34.958C36.0045 8.4375 37.2225 8.728 38.2182 9.34575C39.2315 9.97225 40.1607 11.0503 40.1607 12.5938V29.6562C40.1607 31.1998 39.2315 32.276 38.2182 32.9043C37.2329 33.4946 36.1066 33.8084 34.958 33.8125H16.9382C15.6828 33.8126 14.4771 33.3221 13.5782 32.4457L4.21571 23.3178C3.92308 23.0324 3.69052 22.6914 3.53173 22.3148C3.37294 21.9383 3.29114 21.5337 3.29114 21.125C3.29114 20.7163 3.37294 20.3117 3.53173 19.9352C3.69052 19.5586 3.92308 19.2176 4.21571 18.9322L13.5782 9.80425ZM25.2192 16.6975C25.099 16.5685 24.9541 16.4651 24.7931 16.3934C24.6321 16.3216 24.4583 16.2831 24.2821 16.28C24.1059 16.2769 23.9308 16.3093 23.7674 16.3753C23.604 16.4413 23.4555 16.5396 23.3309 16.6642C23.2063 16.7888 23.108 16.9373 23.042 17.1007C22.976 17.2641 22.9436 17.4392 22.9467 17.6154C22.9498 17.7916 22.9884 17.9654 23.0601 18.1264C23.1318 18.2874 23.2353 18.4323 23.3642 18.5525L25.9367 21.125L23.3642 23.6975C23.2353 23.8177 23.1318 23.9626 23.0601 24.1236C22.9884 24.2846 22.9498 24.4584 22.9467 24.6346C22.9436 24.8108 22.976 24.9859 23.042 25.1493C23.108 25.3127 23.2063 25.4612 23.3309 25.5858C23.4555 25.7104 23.604 25.8087 23.7674 25.8747C23.9308 25.9407 24.1059 25.9731 24.2821 25.97C24.4583 25.9669 24.6321 25.9284 24.7931 25.8566C24.9541 25.7849 25.099 25.6815 25.2192 25.5525L27.7917 22.98L30.3642 25.5525C30.4844 25.6815 30.6293 25.7849 30.7903 25.8566C30.9513 25.9284 31.1251 25.9669 31.3013 25.97C31.4775 25.9731 31.6526 25.9407 31.816 25.8747C31.9794 25.8087 32.1279 25.7104 32.2525 25.5858C32.3772 25.4612 32.4754 25.3127 32.5414 25.1493C32.6074 24.9859 32.6398 24.8108 32.6367 24.6346C32.6336 24.4584 32.5951 24.2846 32.5233 24.1236C32.4516 23.9626 32.3482 23.8177 32.2192 23.6975L29.6467 21.125L32.2192 18.5525C32.3482 18.4323 32.4516 18.2874 32.5233 18.1264C32.5951 17.9654 32.6336 17.7916 32.6367 17.6154C32.6398 17.4392 32.6074 17.2641 32.5414 17.1007C32.4754 16.9373 32.3772 16.7888 32.2525 16.6642C32.1279 16.5396 31.9794 16.4413 31.816 16.3753C31.6526 16.3093 31.4775 16.2769 31.3013 16.28C31.1251 16.2831 30.9513 16.3216 30.7903 16.3934C30.6293 16.4651 30.4844 16.5685 30.3642 16.6975L27.7917 19.27L25.2192 16.6975Z" fill="black"/>
</svg>
