<svg width="24" height="24" viewBox="0 0 24 24" fill="none" xmlns="http://www.w3.org/2000/svg">
<rect width="24" height="24" rx="12" fill="#FFEEEE"/>
<path d="M8.46675 19V17.4444H10.0667V15.8889H5.26675C4.82675 15.8889 4.45008 15.7366 4.13675 15.4319C3.82341 15.1273 3.66675 14.7611 3.66675 14.3333V6.55556C3.66675 6.12778 3.82341 5.76157 4.13675 5.45694C4.45008 5.15231 4.82675 5 5.26675 5H18.0667C18.5067 5 18.8834 5.15231 19.1967 5.45694C19.5101 5.76157 19.6667 6.12778 19.6667 6.55556V14.3333C19.6667 14.7611 19.5101 15.1273 19.1967 15.4319C18.8834 15.7366 18.5067 15.8889 18.0667 15.8889H13.2667V17.4444H14.8667V19H8.46675Z" fill="#A50101"/>
</svg>
