<svg width="24" height="24" viewBox="0 0 24 24" fill="none" xmlns="http://www.w3.org/2000/svg">
<rect width="24" height="24" rx="12" fill="#FFEEEE"/>
<path d="M14.6399 15.76L15.7599 14.64L12.7999 11.68V8H11.1999V12.32L14.6399 15.76ZM11.9999 20C10.8932 20 9.85321 19.79 8.87988 19.37C7.90654 18.95 7.05988 18.38 6.33988 17.66C5.61988 16.94 5.04988 16.0933 4.62988 15.12C4.20988 14.1467 3.99988 13.1067 3.99988 12C3.99988 10.8933 4.20988 9.85333 4.62988 8.88C5.04988 7.90667 5.61988 7.06 6.33988 6.34C7.05988 5.62 7.90654 5.05 8.87988 4.63C9.85321 4.21 10.8932 4 11.9999 4C13.1065 4 14.1465 4.21 15.1199 4.63C16.0932 5.05 16.9399 5.62 17.6599 6.34C18.3799 7.06 18.9499 7.90667 19.3699 8.88C19.7899 9.85333 19.9999 10.8933 19.9999 12C19.9999 13.1067 19.7899 14.1467 19.3699 15.12C18.9499 16.0933 18.3799 16.94 17.6599 17.66C16.9399 18.38 16.0932 18.95 15.1199 19.37C14.1465 19.79 13.1065 20 11.9999 20Z" fill="#A50101"/>
</svg>
