<svg width="24" height="24" viewBox="0 0 24 24" fill="none" xmlns="http://www.w3.org/2000/svg">
<g clip-path="url(#clip0_859_3065)">
<rect width="24" height="24" rx="12" fill="#FFEEEE"/>
<path d="M12 15C10.625 15 9.44792 14.5104 8.46875 13.5312C7.48958 12.5521 7 11.375 7 10C7 8.625 7.48958 7.44792 8.46875 6.46875C9.44792 5.48958 10.625 5 12 5C13.375 5 14.5521 5.48958 15.5312 6.46875C16.5104 7.44792 17 8.625 17 10C17 11.375 16.5104 12.5521 15.5312 13.5312C14.5521 14.5104 13.375 15 12 15ZM2 25V21.5C2 20.7917 2.18229 20.1406 2.54688 19.5469C2.91146 18.9531 3.39583 18.5 4 18.1875C5.29167 17.5417 6.60417 17.0573 7.9375 16.7344C9.27083 16.4115 10.625 16.25 12 16.25C13.375 16.25 14.7292 16.4115 16.0625 16.7344C17.3958 17.0573 18.7083 17.5417 20 18.1875C20.6042 18.5 21.0885 18.9531 21.4531 19.5469C21.8177 20.1406 22 20.7917 22 21.5V25H2Z" fill="#A50101"/>
</g>
<defs>
<clipPath id="clip0_859_3065">
<rect width="24" height="24" rx="12" fill="white"/>
</clipPath>
</defs>
</svg>
